<svg width="100" height="30" viewBox="0 0 100 30" fill="none" xmlns="http://www.w3.org/2000/svg">
<g clip-path="url(#clip0_28655_2853)">
<rect x="3.75" y="3.75" width="22.5" height="22.5" fill="#26292F"/>
<rect x="38.75" y="3.75" width="22.5" height="22.5" fill="#26292F"/>
<rect x="73.75" y="3.75" width="22.5" height="22.5" fill="#26292F"/>
<path d="M52.6251 9.48236C51.9551 8.94236 51.0401 8.67236 49.8801 8.67236H46.3101V15.0849H49.9701C51.1301 15.0849 52.0301 14.7799 52.6701 14.1699C53.3101 13.5599 53.6301 12.8074 53.6301 11.9074V11.8474C53.6301 10.8099 53.2951 10.0199 52.6251 9.47986V9.48236Z" fill="#FFD7F2"/>
<path d="M35 0V30H65V0H35ZM58.31 11.82C58.31 13.0375 58.09 14.1075 57.65 15.0275C57.21 15.9475 56.605 16.715 55.835 17.335C55.065 17.955 54.165 18.42 53.135 18.7275C52.105 19.0375 51 19.1925 49.82 19.1925H46.31V25.485H41.69V4.51H50.27C51.53 4.51 52.655 4.685 53.645 5.035C54.635 5.385 55.475 5.88 56.165 6.5175C56.855 7.1575 57.385 7.92 57.755 8.81C58.125 9.7 58.31 10.6825 58.31 11.7625V11.8225V11.82Z" fill="#FFD7F2"/>
<path d="M70 0V30H100V0H70ZM92.71 23.375C92.1525 23.82 91.5425 24.2 90.88 24.52C90.2175 24.84 89.4925 25.08 88.705 25.245C87.9175 25.41 87.0325 25.49 86.0525 25.49C84.5725 25.49 83.2 25.22 81.93 24.6775C80.6625 24.1375 79.5675 23.3975 78.645 22.46C77.7225 21.5225 77.0025 20.4175 76.4825 19.1425C75.9625 17.8675 75.705 16.505 75.705 15.055V14.9975C75.705 13.5475 75.965 12.1925 76.4825 10.925C77.0025 9.66 77.7225 8.5475 78.645 7.5925C79.5675 6.635 80.6725 5.8825 81.96 5.3325C83.2475 4.7825 84.67 4.5075 86.225 4.5075C87.165 4.5075 88.0275 4.585 88.805 4.74C89.5825 4.895 90.29 5.1075 90.9225 5.3775C91.5575 5.6475 92.1425 5.9775 92.68 6.3625C93.2175 6.75 93.7175 7.175 94.18 7.6375L91.355 10.9125C90.5675 10.1975 89.765 9.6375 88.9475 9.2325C88.13 8.8275 87.2125 8.625 86.195 8.625C85.35 8.625 84.5675 8.79 83.845 9.1175C83.125 9.4475 82.505 9.9 81.985 10.48C81.465 11.06 81.0625 11.73 80.775 12.495C80.4875 13.2575 80.3425 14.075 80.3425 14.945V15.0025C80.3425 15.8725 80.4875 16.6925 80.775 17.465C81.0625 18.2375 81.4625 18.915 81.97 19.4925C82.48 20.0725 83.095 20.5325 83.815 20.87C84.535 21.2075 85.3275 21.3775 86.1925 21.3775C87.345 21.3775 88.32 21.165 89.1175 20.74C89.915 20.315 90.7075 19.735 91.495 19L94.32 21.87C93.8025 22.43 93.2625 22.9325 92.705 23.3775L92.71 23.375Z" fill="#FFD7F2"/>
<path d="M0 0V30H30V0H0ZM23.71 8.765H17.32V25.49H12.7V8.765H6.31V4.5075H23.71V8.765Z" fill="#FFD7F2"/>
</g>
<defs>
<clipPath id="clip0_28655_2853">
<rect width="100" height="30" fill="white"/>
</clipPath>
</defs>
</svg>
