<svg xmlns="http://www.w3.org/2000/svg" width="153" height="178" fill="none"><g clip-path="url(#a)"><path fill="#26292F" fill-opacity=".25" d="M106.511 32.03c-.091-.552-.163-1.004-.28-1.467-.656-2.386-1.951-4.366-3.62-6.207-2.343-2.55-5.148-4.454-8.183-6.036-5.022-2.595-10.422-4.138-15.98-4.906-8.243-1.153-16.39-.692-24.449 1.231-4.521 1.096-8.825 2.633-12.782 5.032-1.433.864-2.755 1.856-4.044 2.903-.743.619-1.309 1.475-1.907 2.276-.22.277-.437.555-.797.46-.256-.118-.58-.349-.71-.576-.284-.557-.127-1.139.229-1.572.68-.923 1.282-1.914 2.15-2.643a31 31 0 0 1 4.477-3.268c2.972-1.942 6.316-3.304 9.754-4.305 12.024-3.456 24.109-3.725 36.232-.38 5.409 1.498 10.458 3.811 14.834 7.386 3.82 3.137 6.729 6.799 7.51 11.957.428.018.822-.02 1.205-.014 4.887-.131 9.801.176 14.624 1.18 4.69.968 9.177 2.507 13.162 5.208 1.25.864 2.42 1.837 3.497 2.907 5.123 5.265 5.82 11.985 2.023 18.27-1.378 2.273-3.144 4.202-5.11 5.981-3.852 3.436-8.252 6.052-12.882 8.27-1.27.621-2.563 1.14-3.879 1.748-.272.119-.499.25-.885.436.343.332.642.653.908.916 2.603 2.474 4.773 5.314 6.135 8.658 1.72 4.16 2.02 8.42.574 12.74-.876 2.552-2.23 4.735-4.02 6.755-2.823 3.182-6.284 5.521-10.064 7.439-.5.251-.999.502-1.601.772.23.398.472.752.668 1.092 2.116 3.402 3.248 7.069 2.785 11.124-.308 2.944-1.445 5.57-3.106 8.007-2.135 3.128-4.856 5.569-7.964 7.667-4.293 2.934-8.989 5.038-13.955 6.542-.374.14-.793.268-1.268.428.274.41.483.707.725 1.06 2.563 3.522 4.957 7.142 6.781 11.089.86 1.816 1.56 3.685 2.202 5.587.507 1.404.712 2.9.602 4.389-.065 1.136-.379 1.772-1.076 2.402a.7.7 0 0 0-.11-.126c.461-1.366.248-2.72-.112-4.065-.55-2.07-1.43-3.987-2.423-5.838-2.52-4.76-5.552-9.222-8.824-13.51-.077-.069-.155-.138-.297-.32-.307.062-.656.112-1.018.208-8.936 1.977-17.946 2.252-26.949.706-4.782-.801-9.407-2.184-13.586-4.698a19 19 0 0 1-4.01-3.141c-.897-.96-1.621-2.019-2.12-3.209-1.057-2.686-.678-5.179 1.16-7.377 1.275-1.532 2.924-2.483 4.76-3.24 3.774-1.535 7.676-1.931 11.678-1.627 8.925.758 16.621 4.31 22.954 10.619 2.501 2.495 4.773 5.314 7.138 7.965l.76.925c.148-.009.237.014.338-.006 5.972-1.667 11.619-4.093 16.613-7.848 2.827-2.124 5.254-4.549 6.961-7.694 2.79-5.211 2.201-11.085-1.654-16.057-.318.106-.736.234-1.11.375-7.407 2.723-14.996 4.148-22.905 3.903-3.285-.111-6.498-.492-9.634-1.524-1.813-.583-3.59-1.299-5.044-2.505-.834-.656-1.632-1.446-2.213-2.322-1.385-2.005-1.289-4.334.118-6.358.83-1.124 1.88-1.995 3.073-2.684 2.046-1.181 4.298-1.875 6.612-2.264 5.442-.944 10.804-.516 16.07.991 5.892 1.675 11.091 4.509 15.36 9.015l.31.276c.272-.12.589-.226.862-.346 3.131-1.466 6.11-3.262 8.704-5.594 2.023-1.812 3.679-3.867 4.824-6.346 1.576-3.373 1.792-6.87.772-10.411-.753-2.749-2.108-5.225-3.974-7.406-1.06-1.245-2.257-2.334-3.385-3.501-.486-.515-1.004-.558-1.694-.31a94 94 0 0 1-14.329 3.99c-7.421 1.52-14.956 2.383-22.548 2.03-3.701-.174-7.318-.663-10.843-1.848-1.757-.615-3.421-1.397-4.806-2.681-2.228-2.086-2.407-4.825-.475-7.19a8.1 8.1 0 0 1 1.863-1.758 23 23 0 0 1 3.455-1.958c2.677-1.204 5.56-1.92 8.46-2.345 10.168-1.551 20.115-.663 29.814 2.945 3.58 1.343 6.993 3.123 10.098 5.348.444.311.824.51 1.425.237 4.907-2 9.639-4.239 13.969-7.306 2.483-1.737 4.778-3.668 6.697-5.989 1.125-1.332 2.095-2.8 2.764-4.4 1.769-4.09 1.36-7.946-1.111-11.635-1.79-2.642-4.269-4.507-7.035-6.016-3.692-1.999-7.657-3.157-11.8-3.835-4.277-.714-8.551-.898-12.876-.712-.236-.015-.44.026-.7.1-.072.27-.177.481-.192.717-.395 2.73-1.471 5.132-3.274 7.195-1.181 1.365-2.454 2.705-3.857 3.818-6.023 4.728-12.922 7.348-20.555 8.041-1.77.15-3.581.096-5.284-.36a20 20 0 0 1-1.601-.477c-3.21-1.291-4.175-4.144-2.593-7.18.674-1.26 1.626-2.302 2.689-3.219 1.645-1.48 3.545-2.653 5.555-3.7 5.031-2.64 10.428-4.315 15.996-5.37 3.094-.612 6.251-.92 9.355-1.385.386-.185.779-.223 1.219-.25M85.678 146.365c-.872-1.051-1.634-1.976-2.44-2.912-2.605-3.005-5.28-5.932-8.494-8.282-6.194-4.494-13.087-6.918-20.742-6.855-2.838.008-5.615.514-8.203 1.742-1.258.575-2.407 1.276-3.327 2.375-1.287 1.577-1.653 3.304-.761 5.177.435.886.96 1.794 1.692 2.471 1.03.996 2.173 1.928 3.41 2.691 3.51 2.142 7.406 3.378 11.422 4.165 8.763 1.724 17.546 1.579 26.289-.21.316-.107.646-.258 1.154-.362m30.004-71.28c-.277-.219-.389-.344-.555-.436a43.3 43.3 0 0 0-7.6-3.91c-6.744-2.625-13.77-3.835-20.987-3.798-4.863.042-9.623.592-14.232 2.19-1.482.518-2.924 1.236-4.288 2.024-.853.492-1.573 1.21-2.218 2-.93 1.143-.783 2.383.236 3.426.486.514 1.054.906 1.678 1.266 1.783 1.054 3.744 1.627 5.752 2.022 3.05.625 6.158.926 9.272.898 11.042.029 21.758-1.952 32.239-5.39q.359-.127.703-.291M108.577 112c-.22-.251-.352-.478-.552-.628-.899-.769-1.729-1.616-2.697-2.308-5.693-4.216-12.153-6.283-19.17-6.626-3.42-.148-6.723.168-9.961 1.318-1.484.515-2.87 1.201-4.07 2.273-1.92 1.791-1.989 3.839-.14 5.727 1.018 1.042 2.323 1.728 3.665 2.279 2.927 1.265 6.071 1.723 9.243 1.9 7.906.437 15.527-.931 22.922-3.61.204-.042.431-.172.76-.325m-1.979-77.782c-.338.005-.574-.01-.764-.014-7.149.68-14.163 2.115-20.838 4.795-2.8 1.124-5.5 2.418-7.918 4.268-1.083.814-2.112 1.788-2.93 2.866-1.772 2.311-1.072 4.18 1.728 5.026 1.78.526 3.592.58 5.419.397 6.766-.687 12.905-2.982 18.398-6.987 2.028-1.473 3.791-3.21 5.133-5.35.925-1.48 1.549-3.092 1.772-5.001"/></g><defs><clipPath id="a"><path fill="#fff" d="m39.664 0 113.013 30.282-39.34 146.82L.322 146.822z"/></clipPath></defs></svg>