<svg xmlns="http://www.w3.org/2000/svg" width="200" height="60" fill="none"><g clip-path="url(#a)"><path fill="#26292F" d="M7.5 7.5h45v45h-45zM77.5 7.5h45v45h-45zM147.5 7.5h45v45h-45z"/><path fill="#FFD7F2" d="M105.25 18.966q-2.01-1.62-5.49-1.62h-7.14V30.17h7.32q3.48 0 5.4-1.83c1.28-1.22 1.92-2.725 1.92-4.525v-.12q0-3.114-2.01-4.735z"/><path fill="#FFD7F2" d="M70 0v60h60V0zm46.62 23.64q0 3.654-1.32 6.415c-.88 1.84-2.09 3.375-3.63 4.615q-2.31 1.861-5.4 2.785-3.09.93-6.63.93h-7.02V50.97h-9.24V9.02h17.16q3.78 0 6.75 1.05t5.04 2.965a12.95 12.95 0 0 1 3.18 4.585c.74 1.78 1.11 3.745 1.11 5.905v.12zM140 0v60h60V0zm45.42 46.75a19.3 19.3 0 0 1-3.66 2.29c-1.325.64-2.775 1.12-4.35 1.45s-3.345.49-5.305.49c-2.96 0-5.705-.54-8.245-1.625q-3.803-1.621-6.57-4.435-2.766-2.811-4.325-6.635c-1.04-2.55-1.555-5.275-1.555-8.175v-.115c0-2.9.52-5.61 1.555-8.145 1.04-2.53 2.48-4.755 4.325-6.665q2.768-2.871 6.63-4.52 3.864-1.65 8.53-1.65c1.88 0 3.605.155 5.16.465s2.97.735 4.235 1.275c1.27.54 2.44 1.2 3.515 1.97a24.5 24.5 0 0 1 3 2.55l-5.65 6.55q-2.362-2.145-4.815-3.36-2.452-1.215-5.505-1.215-2.534.001-4.7.985a11.2 11.2 0 0 0-3.72 2.725 12.6 12.6 0 0 0-2.42 4.03q-.864 2.289-.865 4.9v.115a14 14 0 0 0 .865 4.925c.575 1.545 1.375 2.9 2.39 4.055q1.53 1.741 3.69 2.755t4.755 1.015q3.457 0 5.85-1.275T182.99 38l5.65 5.74a29 29 0 0 1-3.23 3.015zM0 0v60h60V0zm47.42 17.53H34.64v33.45H25.4V17.53H12.62V9.015h34.8z"/></g><defs><clipPath id="a"><path fill="#fff" d="M0 0h200v60H0z"/></clipPath></defs></svg>