<svg width="407" height="394" viewBox="0 0 407 394" fill="none" xmlns="http://www.w3.org/2000/svg">
<rect width="407" height="394" rx="30" fill="white"/>
<rect x="0.5" y="0.5" width="406" height="393" rx="29.5" stroke="#26292F" stroke-opacity="0.15"/>
<path d="M31.392 334H30.224L34.432 322.544H35.856L40.112 334H38.912L37.792 330.96H32.512L31.392 334ZM34.992 324.16L32.864 329.952H37.424L35.28 324.16C35.232 324 35.152 323.808 35.136 323.696C35.12 323.792 35.056 324 34.992 324.16ZM40.6549 330.144C40.6549 327.712 42.1429 326.048 44.3989 326.048C46.1909 326.048 47.5029 327.088 47.8069 328.688H46.7029C46.4149 327.616 45.4869 327.024 44.4149 327.024C42.8469 327.024 41.7429 328.224 41.7429 330.128C41.7429 331.968 42.7669 333.2 44.3349 333.2C45.4869 333.2 46.4149 332.56 46.7189 331.568H47.8389C47.4709 333.152 46.0949 334.192 44.3349 334.192C42.1429 334.192 40.6549 332.576 40.6549 330.144ZM48.9674 330.096C48.9674 327.76 50.3114 326.048 52.5514 326.048C53.8474 326.048 54.9194 326.624 55.4794 327.824L55.5914 326.256H56.5514V337.376H55.4474V332.512C54.9034 333.632 53.8634 334.192 52.5514 334.192C50.2634 334.192 48.9674 332.432 48.9674 330.096ZM50.0874 330.128C50.0874 331.904 51.0634 333.2 52.7434 333.2C54.4394 333.2 55.4314 331.904 55.4314 330.128C55.4314 328.336 54.4394 327.056 52.7434 327.056C51.0634 327.056 50.0874 328.336 50.0874 330.128ZM64.2951 326.256H65.3991V334H64.4391L64.2951 332.688C63.8631 333.584 62.7911 334.192 61.5751 334.192C59.7511 334.192 58.7591 332.944 58.7591 331.056V326.24H59.8791V330.704C59.8791 332.544 60.6951 333.2 61.9271 333.2C63.4151 333.2 64.2951 332.208 64.2951 330.368V326.256ZM68.2429 324.128C67.7949 324.128 67.4269 323.76 67.4269 323.312C67.4269 322.864 67.7949 322.48 68.2429 322.48C68.6909 322.48 69.0749 322.864 69.0749 323.312C69.0749 323.76 68.6909 324.128 68.2429 324.128ZM67.6989 334V326.256H68.8029V334H67.6989ZM75.1531 326.16V327.152H74.5451C73.1211 327.152 72.2091 328.112 72.2091 329.584V334H71.1051V326.256H72.1451L72.2251 327.456C72.5291 326.624 73.3451 326.08 74.4331 326.08C74.6731 326.08 74.8811 326.096 75.1531 326.16ZM77.1648 324.128C76.7168 324.128 76.3488 323.76 76.3488 323.312C76.3488 322.864 76.7168 322.48 77.1648 322.48C77.6128 322.48 77.9968 322.864 77.9968 323.312C77.9968 323.76 77.6128 324.128 77.1648 324.128ZM76.6208 334V326.256H77.7248V334H76.6208ZM81.131 334H80.027V326.256H80.987L81.147 327.6C81.659 326.608 82.683 326.048 83.803 326.048C85.931 326.048 86.811 327.312 86.811 329.264V334H85.707V329.504C85.707 327.696 84.891 327.056 83.611 327.056C82.027 327.056 81.131 328.208 81.131 329.952V334ZM88.4834 329.904C88.4834 327.792 89.8434 326.048 92.1154 326.048C93.4594 326.048 94.4834 326.672 94.9794 327.808L95.0914 326.256H96.0514V333.76C96.0514 336.064 94.5794 337.568 92.3074 337.568C90.3234 337.568 88.9314 336.448 88.6274 334.576H89.7314C89.9714 335.824 90.9314 336.56 92.3234 336.56C93.9074 336.56 94.9634 335.488 94.9634 333.872V332.032C94.4354 333.12 93.3634 333.76 92.0354 333.76C89.8274 333.76 88.4834 332.016 88.4834 329.904ZM89.5874 329.888C89.5874 331.472 90.5634 332.768 92.1954 332.768C93.8754 332.768 94.8674 331.552 94.8674 329.888C94.8674 328.24 93.9074 327.024 92.2114 327.024C90.5474 327.024 89.5874 328.32 89.5874 329.888ZM105.017 334.192C103.369 334.192 102.393 333.264 102.393 331.904C102.393 330.48 103.481 329.584 105.289 329.44L107.849 329.232V328.976C107.849 327.456 106.937 326.976 105.801 326.976C104.457 326.976 103.657 327.584 103.657 328.624H102.649C102.649 327.056 103.929 326.048 105.833 326.048C107.625 326.048 108.937 326.944 108.937 328.992V334H108.009L107.865 332.64C107.385 333.616 106.329 334.192 105.017 334.192ZM105.273 333.296C106.905 333.296 107.849 332.16 107.849 330.48V330.064L105.561 330.24C104.105 330.368 103.513 331.008 103.513 331.872C103.513 332.816 104.217 333.296 105.273 333.296ZM116.694 334H115.59V326.256H116.549L116.71 327.6C117.222 326.608 118.246 326.048 119.366 326.048C121.494 326.048 122.374 327.312 122.374 329.264V334H121.27V329.504C121.27 327.696 120.454 327.056 119.174 327.056C117.59 327.056 116.694 328.208 116.694 329.952V334ZM127.822 334.192C125.55 334.192 124.03 332.56 124.03 330.128C124.03 327.712 125.534 326.048 127.742 326.048C129.838 326.048 131.262 327.536 131.262 329.728V330.272H125.102C125.182 332.16 126.174 333.248 127.838 333.248C129.102 333.248 129.918 332.704 130.206 331.68H131.262C130.846 333.312 129.646 334.192 127.822 334.192ZM127.742 326.992C126.286 326.992 125.326 327.952 125.134 329.472H130.158C130.158 327.984 129.198 326.992 127.742 326.992ZM134.456 334L131.896 326.256H133.032L134.552 330.928C134.728 331.44 134.872 331.968 135.032 332.592C135.16 331.968 135.416 331.184 135.496 330.928L137.032 326.256H138.168L139.688 330.928C139.832 331.344 140.024 332.016 140.168 332.592C140.328 331.952 140.36 331.76 140.632 330.928L142.168 326.256H143.32L140.696 334H139.624L138.024 329.136C137.832 328.56 137.704 328.08 137.608 327.616C137.496 328.032 137.368 328.496 137.16 329.136L135.56 334H134.456ZM148.592 330.144C148.592 327.712 150.08 326.048 152.336 326.048C154.128 326.048 155.44 327.088 155.744 328.688H154.64C154.352 327.616 153.424 327.024 152.352 327.024C150.784 327.024 149.68 328.224 149.68 330.128C149.68 331.968 150.704 333.2 152.272 333.2C153.424 333.2 154.352 332.56 154.656 331.568H155.776C155.408 333.152 154.032 334.192 152.272 334.192C150.08 334.192 148.592 332.576 148.592 330.144ZM162.889 326.256H163.993V334H163.033L162.889 332.688C162.457 333.584 161.385 334.192 160.169 334.192C158.345 334.192 157.353 332.944 157.353 331.056V326.24H158.473V330.704C158.473 332.544 159.289 333.2 160.521 333.2C162.009 333.2 162.889 332.208 162.889 330.368V326.256ZM165.48 331.824H166.536C166.536 332.72 167.208 333.28 168.296 333.28C169.496 333.28 170.2 332.768 170.2 331.936C170.2 331.296 169.88 330.928 168.968 330.704L167.64 330.368C166.296 330.032 165.64 329.328 165.64 328.272C165.64 326.912 166.776 326.048 168.44 326.048C170.072 326.048 171.128 326.944 171.176 328.384H170.104C170.072 327.488 169.448 326.96 168.408 326.96C167.32 326.96 166.712 327.424 166.712 328.256C166.712 328.848 167.128 329.264 167.976 329.472L169.304 329.808C170.648 330.144 171.256 330.768 171.256 331.888C171.256 333.28 170.072 334.192 168.312 334.192C166.568 334.192 165.48 333.264 165.48 331.824ZM174.85 334H173.762V327.184H172.21V326.256H173.762V323.808H174.85V326.256H176.402V327.184H174.85V334ZM177.217 330.128C177.217 327.76 178.881 326.048 181.153 326.048C183.425 326.048 185.089 327.76 185.089 330.128C185.089 332.48 183.425 334.192 181.153 334.192C178.881 334.192 177.217 332.48 177.217 330.128ZM178.337 330.112C178.337 331.936 179.489 333.2 181.153 333.2C182.801 333.2 183.969 331.936 183.969 330.112C183.969 328.32 182.801 327.04 181.153 327.04C179.489 327.04 178.337 328.32 178.337 330.112ZM187.959 334H186.855V326.256H187.815L187.943 327.36C188.327 326.544 189.191 326.048 190.279 326.048C191.495 326.048 192.407 326.688 192.775 327.696C193.127 326.688 194.071 326.048 195.319 326.048C196.999 326.048 198.103 327.136 198.103 328.928V334H197.031V329.152C197.031 327.824 196.295 327.04 195.111 327.04C193.815 327.04 193.047 328.016 193.047 329.216V334H191.959V329.136C191.959 327.824 191.207 327.056 190.039 327.056C188.743 327.056 187.959 328.016 187.959 329.2V334ZM203.572 334.192C201.3 334.192 199.78 332.56 199.78 330.128C199.78 327.712 201.284 326.048 203.492 326.048C205.588 326.048 207.012 327.536 207.012 329.728V330.272H200.852C200.932 332.16 201.924 333.248 203.588 333.248C204.852 333.248 205.668 332.704 205.956 331.68H207.012C206.596 333.312 205.396 334.192 203.572 334.192ZM203.492 326.992C202.036 326.992 201.076 327.952 200.884 329.472H205.908C205.908 327.984 204.948 326.992 203.492 326.992ZM212.825 326.16V327.152H212.217C210.793 327.152 209.881 328.112 209.881 329.584V334H208.777V326.256H209.817L209.897 327.456C210.201 326.624 211.017 326.08 212.105 326.08C212.345 326.08 212.553 326.096 212.825 326.16ZM218.186 330.144C218.186 327.712 219.674 326.048 221.93 326.048C223.722 326.048 225.034 327.088 225.338 328.688H224.234C223.946 327.616 223.018 327.024 221.946 327.024C220.378 327.024 219.274 328.224 219.274 330.128C219.274 331.968 220.298 333.2 221.866 333.2C223.018 333.2 223.946 332.56 224.25 331.568H225.37C225.002 333.152 223.626 334.192 221.866 334.192C219.674 334.192 218.186 332.576 218.186 330.144ZM229.267 334.192C227.619 334.192 226.643 333.264 226.643 331.904C226.643 330.48 227.731 329.584 229.539 329.44L232.099 329.232V328.976C232.099 327.456 231.187 326.976 230.051 326.976C228.707 326.976 227.907 327.584 227.907 328.624H226.899C226.899 327.056 228.179 326.048 230.083 326.048C231.875 326.048 233.187 326.944 233.187 328.992V334H232.259L232.115 332.64C231.635 333.616 230.579 334.192 229.267 334.192ZM229.523 333.296C231.155 333.296 232.099 332.16 232.099 330.48V330.064L229.811 330.24C228.355 330.368 227.763 331.008 227.763 331.872C227.763 332.816 228.467 333.296 229.523 333.296ZM236.506 334H235.402V326.256H236.362L236.522 327.6C237.034 326.608 238.058 326.048 239.178 326.048C241.306 326.048 242.186 327.312 242.186 329.264V334H241.082V329.504C241.082 327.696 240.266 327.056 238.986 327.056C237.402 327.056 236.506 328.208 236.506 329.952V334ZM248.28 330.144C248.28 327.712 249.768 326.048 252.024 326.048C253.816 326.048 255.128 327.088 255.432 328.688H254.328C254.04 327.616 253.112 327.024 252.04 327.024C250.472 327.024 249.368 328.224 249.368 330.128C249.368 331.968 250.392 333.2 251.96 333.2C253.112 333.2 254.04 332.56 254.344 331.568H255.464C255.096 333.152 253.72 334.192 251.96 334.192C249.768 334.192 248.28 332.576 248.28 330.144ZM256.592 330.128C256.592 327.76 258.256 326.048 260.528 326.048C262.8 326.048 264.464 327.76 264.464 330.128C264.464 332.48 262.8 334.192 260.528 334.192C258.256 334.192 256.592 332.48 256.592 330.128ZM257.712 330.112C257.712 331.936 258.864 333.2 260.528 333.2C262.176 333.2 263.344 331.936 263.344 330.112C263.344 328.32 262.176 327.04 260.528 327.04C258.864 327.04 257.712 328.32 257.712 330.112ZM265.574 331.824H266.63C266.63 332.72 267.302 333.28 268.39 333.28C269.59 333.28 270.294 332.768 270.294 331.936C270.294 331.296 269.974 330.928 269.062 330.704L267.734 330.368C266.39 330.032 265.734 329.328 265.734 328.272C265.734 326.912 266.87 326.048 268.534 326.048C270.166 326.048 271.222 326.944 271.27 328.384H270.198C270.166 327.488 269.542 326.96 268.502 326.96C267.414 326.96 266.806 327.424 266.806 328.256C266.806 328.848 267.222 329.264 268.07 329.472L269.398 329.808C270.742 330.144 271.35 330.768 271.35 331.888C271.35 333.28 270.166 334.192 268.406 334.192C266.662 334.192 265.574 333.264 265.574 331.824ZM274.944 334H273.856V327.184H272.304V326.256H273.856V323.808H274.944V326.256H276.496V327.184H274.944V334ZM285.859 334.192C283.555 334.192 282.083 332.752 282.083 330.496H283.235C283.235 332.144 284.243 333.136 285.875 333.136C287.603 333.136 288.723 331.984 288.723 330.288C288.723 328.688 287.683 327.424 285.875 327.424C284.819 327.424 283.859 327.904 283.235 328.592L282.323 328.304L283.699 322.544H289.235V323.6H284.531L283.667 327.2C284.307 326.688 285.139 326.4 286.035 326.4C288.419 326.4 289.891 328.112 289.891 330.256C289.891 332.56 288.259 334.192 285.859 334.192ZM297.912 334H296.824V327.184H295.272V326.256H296.824V323.808H297.912V326.256H299.464V327.184H297.912V334ZM301.446 324.128C300.998 324.128 300.63 323.76 300.63 323.312C300.63 322.864 300.998 322.48 301.446 322.48C301.894 322.48 302.278 322.864 302.278 323.312C302.278 323.76 301.894 324.128 301.446 324.128ZM300.902 334V326.256H302.006V334H300.902ZM305.412 334H304.308V326.256H305.268L305.396 327.36C305.78 326.544 306.644 326.048 307.732 326.048C308.948 326.048 309.86 326.688 310.228 327.696C310.58 326.688 311.524 326.048 312.772 326.048C314.452 326.048 315.556 327.136 315.556 328.928V334H314.484V329.152C314.484 327.824 313.748 327.04 312.564 327.04C311.268 327.04 310.5 328.016 310.5 329.216V334H309.412V329.136C309.412 327.824 308.66 327.056 307.492 327.056C306.196 327.056 305.412 328.016 305.412 329.2V334ZM321.025 334.192C318.753 334.192 317.233 332.56 317.233 330.128C317.233 327.712 318.737 326.048 320.945 326.048C323.041 326.048 324.465 327.536 324.465 329.728V330.272H318.305C318.385 332.16 319.377 333.248 321.041 333.248C322.305 333.248 323.121 332.704 323.409 331.68H324.465C324.049 333.312 322.849 334.192 321.025 334.192ZM320.945 326.992C319.489 326.992 318.529 327.952 318.337 329.472H323.361C323.361 327.984 322.401 326.992 320.945 326.992ZM325.574 331.824H326.63C326.63 332.72 327.302 333.28 328.39 333.28C329.59 333.28 330.294 332.768 330.294 331.936C330.294 331.296 329.974 330.928 329.062 330.704L327.734 330.368C326.39 330.032 325.734 329.328 325.734 328.272C325.734 326.912 326.87 326.048 328.534 326.048C330.166 326.048 331.222 326.944 331.27 328.384H330.198C330.166 327.488 329.542 326.96 328.502 326.96C327.414 326.96 326.806 327.424 326.806 328.256C326.806 328.848 327.222 329.264 328.07 329.472L329.398 329.808C330.742 330.144 331.35 330.768 331.35 331.888C331.35 333.28 330.166 334.192 328.406 334.192C326.662 334.192 325.574 333.264 325.574 331.824ZM32.256 358H31.152V350.256H32.112L32.24 351.36C32.624 350.544 33.488 350.048 34.576 350.048C35.792 350.048 36.704 350.688 37.072 351.696C37.424 350.688 38.368 350.048 39.616 350.048C41.296 350.048 42.4 351.136 42.4 352.928V358H41.328V353.152C41.328 351.824 40.592 351.04 39.408 351.04C38.112 351.04 37.344 352.016 37.344 353.216V358H36.256V353.136C36.256 351.824 35.504 351.056 34.336 351.056C33.04 351.056 32.256 352.016 32.256 353.2V358ZM44.0768 354.128C44.0768 351.76 45.7408 350.048 48.0128 350.048C50.2848 350.048 51.9488 351.76 51.9488 354.128C51.9488 356.48 50.2848 358.192 48.0128 358.192C45.7408 358.192 44.0768 356.48 44.0768 354.128ZM45.1968 354.112C45.1968 355.936 46.3488 357.2 48.0128 357.2C49.6608 357.2 50.8288 355.936 50.8288 354.112C50.8288 352.32 49.6608 351.04 48.0128 351.04C46.3488 351.04 45.1968 352.32 45.1968 354.112ZM57.7625 350.16V351.152H57.1545C55.7305 351.152 54.8185 352.112 54.8185 353.584V358H53.7145V350.256H54.7545L54.8345 351.456C55.1385 350.624 55.9545 350.08 57.0425 350.08C57.2825 350.08 57.4905 350.096 57.7625 350.16ZM62.1813 358.192C59.9093 358.192 58.3893 356.56 58.3893 354.128C58.3893 351.712 59.8932 350.048 62.1013 350.048C64.1973 350.048 65.6213 351.536 65.6213 353.728V354.272H59.4613C59.5413 356.16 60.5333 357.248 62.1973 357.248C63.4613 357.248 64.2773 356.704 64.5653 355.68H65.6213C65.2053 357.312 64.0053 358.192 62.1813 358.192ZM62.1013 350.992C60.6453 350.992 59.6853 351.952 59.4933 353.472H64.5173C64.5173 351.984 63.5573 350.992 62.1013 350.992ZM73.5999 358H72.5119V351.184H70.9599V350.256H72.5119V347.808H73.5999V350.256H75.1519V351.184H73.5999V358ZM77.6935 357.984H76.5895V346.336H77.6935V351.6C78.1895 350.672 79.1335 350.048 80.4295 350.048C82.4615 350.048 83.3735 351.312 83.3735 353.264V358H82.2695V353.504C82.2695 351.696 81.4215 351.056 80.2215 351.056C78.5575 351.056 77.6935 352.288 77.6935 353.776V357.984ZM87.7979 358.192C86.1499 358.192 85.1739 357.264 85.1739 355.904C85.1739 354.48 86.2619 353.584 88.0699 353.44L90.6299 353.232V352.976C90.6299 351.456 89.7179 350.976 88.5819 350.976C87.2379 350.976 86.4379 351.584 86.4379 352.624H85.4299C85.4299 351.056 86.7099 350.048 88.6139 350.048C90.4059 350.048 91.7179 350.944 91.7179 352.992V358H90.7899L90.6459 356.64C90.1659 357.616 89.1099 358.192 87.7979 358.192ZM88.0539 357.296C89.6859 357.296 90.6299 356.16 90.6299 354.48V354.064L88.3419 354.24C86.8859 354.368 86.2939 355.008 86.2939 355.872C86.2939 356.816 86.9979 357.296 88.0539 357.296ZM95.0373 358H93.9333V350.256H94.8932L95.0533 351.6C95.5653 350.608 96.5893 350.048 97.7093 350.048C99.8373 350.048 100.717 351.312 100.717 353.264V358H99.6133V353.504C99.6133 351.696 98.7973 351.056 97.5173 351.056C95.9333 351.056 95.0373 352.208 95.0373 353.952V358ZM111.403 350.16V351.152H110.795C109.371 351.152 108.459 352.112 108.459 353.584V358H107.355V350.256H108.395L108.475 351.456C108.779 350.624 109.595 350.08 110.683 350.08C110.923 350.08 111.131 350.096 111.403 350.16ZM115.822 358.192C113.55 358.192 112.03 356.56 112.03 354.128C112.03 351.712 113.534 350.048 115.742 350.048C117.838 350.048 119.262 351.536 119.262 353.728V354.272H113.102C113.182 356.16 114.174 357.248 115.838 357.248C117.102 357.248 117.918 356.704 118.206 355.68H119.262C118.846 357.312 117.646 358.192 115.822 358.192ZM115.742 350.992C114.286 350.992 113.326 351.952 113.134 353.472H118.158C118.158 351.984 117.198 350.992 115.742 350.992ZM122.725 358H121.637V351.184H120.085V350.256H121.637V347.808H122.725V350.256H124.277V351.184H122.725V358ZM127.814 358.192C126.166 358.192 125.19 357.264 125.19 355.904C125.19 354.48 126.278 353.584 128.086 353.44L130.646 353.232V352.976C130.646 351.456 129.734 350.976 128.598 350.976C127.254 350.976 126.454 351.584 126.454 352.624H125.446C125.446 351.056 126.726 350.048 128.63 350.048C130.422 350.048 131.734 350.944 131.734 352.992V358H130.806L130.662 356.64C130.182 357.616 129.126 358.192 127.814 358.192ZM128.07 357.296C129.702 357.296 130.646 356.16 130.646 354.48V354.064L128.358 354.24C126.902 354.368 126.31 355.008 126.31 355.872C126.31 356.816 127.014 357.296 128.07 357.296ZM134.493 348.128C134.045 348.128 133.677 347.76 133.677 347.312C133.677 346.864 134.045 346.48 134.493 346.48C134.941 346.48 135.325 346.864 135.325 347.312C135.325 347.76 134.941 348.128 134.493 348.128ZM133.949 358V350.256H135.053V358H133.949ZM138.459 358H137.355V350.256H138.315L138.475 351.6C138.987 350.608 140.011 350.048 141.131 350.048C143.259 350.048 144.139 351.312 144.139 353.264V358H143.035V353.504C143.035 351.696 142.219 351.056 140.939 351.056C139.355 351.056 138.459 352.208 138.459 353.952V358ZM146.884 348.128C146.436 348.128 146.068 347.76 146.068 347.312C146.068 346.864 146.436 346.48 146.884 346.48C147.332 346.48 147.716 346.864 147.716 347.312C147.716 347.76 147.332 348.128 146.884 348.128ZM146.34 358V350.256H147.444V358H146.34ZM150.85 358H149.746V350.256H150.706L150.866 351.6C151.378 350.608 152.402 350.048 153.522 350.048C155.65 350.048 156.53 351.312 156.53 353.264V358H155.426V353.504C155.426 351.696 154.61 351.056 153.33 351.056C151.746 351.056 150.85 352.208 150.85 353.952V358ZM158.202 353.904C158.202 351.792 159.562 350.048 161.834 350.048C163.178 350.048 164.202 350.672 164.698 351.808L164.81 350.256H165.77V357.76C165.77 360.064 164.298 361.568 162.026 361.568C160.042 361.568 158.65 360.448 158.346 358.576H159.45C159.69 359.824 160.65 360.56 162.042 360.56C163.626 360.56 164.682 359.488 164.682 357.872V356.032C164.154 357.12 163.082 357.76 161.754 357.76C159.546 357.76 158.202 356.016 158.202 353.904ZM159.306 353.888C159.306 355.472 160.282 356.768 161.914 356.768C163.594 356.768 164.586 355.552 164.586 353.888C164.586 352.24 163.626 351.024 161.93 351.024C160.266 351.024 159.306 352.32 159.306 353.888ZM174.735 358.192C173.087 358.192 172.111 357.264 172.111 355.904C172.111 354.48 173.199 353.584 175.007 353.44L177.567 353.232V352.976C177.567 351.456 176.655 350.976 175.519 350.976C174.175 350.976 173.375 351.584 173.375 352.624H172.367C172.367 351.056 173.647 350.048 175.551 350.048C177.343 350.048 178.655 350.944 178.655 352.992V358H177.727L177.583 356.64C177.103 357.616 176.047 358.192 174.735 358.192ZM174.991 357.296C176.623 357.296 177.567 356.16 177.567 354.48V354.064L175.279 354.24C173.823 354.368 173.231 355.008 173.231 355.872C173.231 356.816 173.935 357.296 174.991 357.296ZM181.975 358H180.871V350.256H181.831L181.991 351.6C182.503 350.608 183.527 350.048 184.647 350.048C186.775 350.048 187.655 351.312 187.655 353.264V358H186.551V353.504C186.551 351.696 185.735 351.056 184.455 351.056C182.871 351.056 181.975 352.208 181.975 353.952V358ZM197.541 358.192C195.269 358.192 193.749 356.56 193.749 354.128C193.749 351.712 195.253 350.048 197.461 350.048C199.557 350.048 200.981 351.536 200.981 353.728V354.272H194.821C194.901 356.16 195.893 357.248 197.557 357.248C198.821 357.248 199.637 356.704 199.925 355.68H200.981C200.565 357.312 199.365 358.192 197.541 358.192ZM197.461 350.992C196.005 350.992 195.045 351.952 194.853 353.472H199.877C199.877 351.984 198.917 350.992 197.461 350.992ZM202.784 358H201.488L204.256 354.128L201.504 350.256H202.8L204.992 353.36L207.168 350.256H208.448L205.696 354.144L208.432 358H207.12L204.944 354.896L202.784 358ZM210.305 348.128C209.857 348.128 209.489 347.76 209.489 347.312C209.489 346.864 209.857 346.48 210.305 346.48C210.753 346.48 211.137 346.864 211.137 347.312C211.137 347.76 210.753 348.128 210.305 348.128ZM209.761 358V350.256H210.865V358H209.761ZM212.512 355.824H213.568C213.568 356.72 214.24 357.28 215.328 357.28C216.528 357.28 217.232 356.768 217.232 355.936C217.232 355.296 216.912 354.928 216 354.704L214.672 354.368C213.328 354.032 212.672 353.328 212.672 352.272C212.672 350.912 213.808 350.048 215.472 350.048C217.104 350.048 218.16 350.944 218.208 352.384H217.136C217.104 351.488 216.48 350.96 215.44 350.96C214.352 350.96 213.744 351.424 213.744 352.256C213.744 352.848 214.16 353.264 215.008 353.472L216.336 353.808C217.68 354.144 218.288 354.768 218.288 355.888C218.288 357.28 217.104 358.192 215.344 358.192C213.6 358.192 212.512 357.264 212.512 355.824ZM221.881 358H220.793V351.184H219.241V350.256H220.793V347.808H221.881V350.256H223.433V351.184H221.881V358ZM225.415 348.128C224.967 348.128 224.599 347.76 224.599 347.312C224.599 346.864 224.967 346.48 225.415 346.48C225.863 346.48 226.247 346.864 226.247 347.312C226.247 347.76 225.863 348.128 225.415 348.128ZM224.871 358V350.256H225.975V358H224.871ZM229.381 358H228.277V350.256H229.237L229.397 351.6C229.909 350.608 230.933 350.048 232.053 350.048C234.181 350.048 235.061 351.312 235.061 353.264V358H233.957V353.504C233.957 351.696 233.141 351.056 231.861 351.056C230.277 351.056 229.381 352.208 229.381 353.952V358ZM236.733 353.904C236.733 351.792 238.093 350.048 240.365 350.048C241.709 350.048 242.733 350.672 243.229 351.808L243.341 350.256H244.301V357.76C244.301 360.064 242.829 361.568 240.557 361.568C238.573 361.568 237.181 360.448 236.877 358.576H237.981C238.221 359.824 239.181 360.56 240.573 360.56C242.157 360.56 243.213 359.488 243.213 357.872V356.032C242.685 357.12 241.613 357.76 240.285 357.76C238.077 357.76 236.733 356.016 236.733 353.904ZM237.837 353.888C237.837 355.472 238.813 356.768 240.445 356.768C242.125 356.768 243.117 355.552 243.117 353.888C243.117 352.24 242.157 351.024 240.461 351.024C238.797 351.024 237.837 352.32 237.837 353.888ZM250.499 354.128C250.499 351.76 252.163 350.048 254.435 350.048C256.707 350.048 258.371 351.76 258.371 354.128C258.371 356.48 256.707 358.192 254.435 358.192C252.163 358.192 250.499 356.48 250.499 354.128ZM251.619 354.112C251.619 355.936 252.771 357.2 254.435 357.2C256.083 357.2 257.251 355.936 257.251 354.112C257.251 352.32 256.083 351.04 254.435 351.04C252.771 351.04 251.619 352.32 251.619 354.112ZM261.24 358H260.136V350.256H261.096L261.256 351.6C261.768 350.608 262.792 350.048 263.912 350.048C266.04 350.048 266.92 351.312 266.92 353.264V358H265.816V353.504C265.816 351.696 265 351.056 263.72 351.056C262.136 351.056 261.24 352.208 261.24 353.952V358ZM272.369 358.192C270.097 358.192 268.577 356.56 268.577 354.128C268.577 351.712 270.081 350.048 272.289 350.048C274.385 350.048 275.809 351.536 275.809 353.728V354.272H269.649C269.729 356.16 270.721 357.248 272.385 357.248C273.649 357.248 274.465 356.704 274.753 355.68H275.809C275.393 357.312 274.193 358.192 272.369 358.192ZM272.289 350.992C270.833 350.992 269.873 351.952 269.681 353.472H274.705C274.705 351.984 273.745 350.992 272.289 350.992Z" fill="#26292F"/>
<line x1="30.5" y1="30" x2="30.5" y2="286" stroke="#26292F" stroke-opacity="0.15"/>
<line x1="377" y1="286.5" x2="30" y2="286.5" stroke="#26292F" stroke-opacity="0.15"/>
<path d="M113 97C113 88.7157 119.716 82 128 82H149C157.284 82 164 88.7157 164 97V286H113V97Z" fill="#FFD7F2"/>
<mask id="mask0_30557_1075" style="mask-type:alpha" maskUnits="userSpaceOnUse" x="113" y="82" width="51" height="204">
<path d="M113 97C113 88.7157 119.716 82 128 82H149C157.284 82 164 88.7157 164 97V286H113V97Z" fill="#FFD7F2"/>
</mask>
<g mask="url(#mask0_30557_1075)">
<line x1="167.586" y1="78.0485" x2="109.599" y2="88.9339" stroke="#26292F" stroke-opacity="0.15"/>
<line x1="167.586" y1="82.0485" x2="109.599" y2="92.9339" stroke="#26292F" stroke-opacity="0.15"/>
<line x1="167.586" y1="86.0485" x2="109.599" y2="96.9339" stroke="#26292F" stroke-opacity="0.15"/>
<line x1="167.586" y1="90.0485" x2="109.599" y2="100.934" stroke="#26292F" stroke-opacity="0.15"/>
<line x1="167.586" y1="94.0485" x2="109.599" y2="104.934" stroke="#26292F" stroke-opacity="0.15"/>
<line x1="167.586" y1="98.0485" x2="109.599" y2="108.934" stroke="#26292F" stroke-opacity="0.15"/>
<line x1="167.586" y1="102.049" x2="109.599" y2="112.934" stroke="#26292F" stroke-opacity="0.15"/>
<line x1="167.586" y1="106.049" x2="109.599" y2="116.934" stroke="#26292F" stroke-opacity="0.15"/>
<line x1="167.586" y1="110.049" x2="109.599" y2="120.934" stroke="#26292F" stroke-opacity="0.15"/>
<line x1="167.586" y1="114.049" x2="109.599" y2="124.934" stroke="#26292F" stroke-opacity="0.15"/>
<line x1="167.586" y1="118.049" x2="109.599" y2="128.934" stroke="#26292F" stroke-opacity="0.15"/>
<line x1="167.586" y1="122.049" x2="109.599" y2="132.934" stroke="#26292F" stroke-opacity="0.15"/>
<line x1="167.586" y1="126.049" x2="109.599" y2="136.934" stroke="#26292F" stroke-opacity="0.15"/>
<line x1="167.586" y1="130.049" x2="109.599" y2="140.934" stroke="#26292F" stroke-opacity="0.15"/>
<line x1="167.586" y1="134.049" x2="109.599" y2="144.934" stroke="#26292F" stroke-opacity="0.15"/>
<line x1="167.586" y1="138.049" x2="109.599" y2="148.934" stroke="#26292F" stroke-opacity="0.15"/>
<line x1="167.586" y1="142.049" x2="109.599" y2="152.934" stroke="#26292F" stroke-opacity="0.15"/>
<line x1="167.586" y1="146.049" x2="109.599" y2="156.934" stroke="#26292F" stroke-opacity="0.15"/>
<line x1="167.586" y1="150.049" x2="109.599" y2="160.934" stroke="#26292F" stroke-opacity="0.15"/>
<line x1="167.586" y1="154.049" x2="109.599" y2="164.934" stroke="#26292F" stroke-opacity="0.15"/>
<line x1="167.586" y1="158.049" x2="109.599" y2="168.934" stroke="#26292F" stroke-opacity="0.15"/>
<line x1="167.586" y1="162.049" x2="109.599" y2="172.934" stroke="#26292F" stroke-opacity="0.15"/>
<line x1="167.586" y1="166.049" x2="109.599" y2="176.934" stroke="#26292F" stroke-opacity="0.15"/>
<line x1="167.586" y1="170.049" x2="109.599" y2="180.934" stroke="#26292F" stroke-opacity="0.15"/>
<line x1="167.586" y1="174.049" x2="109.599" y2="184.934" stroke="#26292F" stroke-opacity="0.15"/>
<line x1="167.586" y1="178.049" x2="109.599" y2="188.934" stroke="#26292F" stroke-opacity="0.15"/>
<line x1="167.586" y1="182.049" x2="109.599" y2="192.934" stroke="#26292F" stroke-opacity="0.15"/>
<line x1="167.586" y1="186.049" x2="109.599" y2="196.934" stroke="#26292F" stroke-opacity="0.15"/>
<line x1="167.586" y1="190.049" x2="109.599" y2="200.934" stroke="#26292F" stroke-opacity="0.15"/>
<line x1="167.586" y1="194.049" x2="109.599" y2="204.934" stroke="#26292F" stroke-opacity="0.15"/>
<line x1="167.586" y1="198.049" x2="109.599" y2="208.934" stroke="#26292F" stroke-opacity="0.15"/>
<line x1="167.586" y1="202.049" x2="109.599" y2="212.934" stroke="#26292F" stroke-opacity="0.15"/>
<line x1="167.586" y1="206.049" x2="109.599" y2="216.934" stroke="#26292F" stroke-opacity="0.15"/>
<line x1="167.586" y1="210.049" x2="109.599" y2="220.934" stroke="#26292F" stroke-opacity="0.15"/>
<line x1="167.586" y1="214.049" x2="109.599" y2="224.934" stroke="#26292F" stroke-opacity="0.15"/>
<line x1="167.586" y1="218.049" x2="109.599" y2="228.934" stroke="#26292F" stroke-opacity="0.15"/>
<line x1="167.586" y1="222.049" x2="109.599" y2="232.934" stroke="#26292F" stroke-opacity="0.15"/>
<line x1="167.586" y1="226.049" x2="109.599" y2="236.934" stroke="#26292F" stroke-opacity="0.15"/>
<line x1="167.586" y1="230.049" x2="109.599" y2="240.934" stroke="#26292F" stroke-opacity="0.15"/>
<line x1="167.586" y1="234.049" x2="109.599" y2="244.934" stroke="#26292F" stroke-opacity="0.15"/>
<line x1="167.586" y1="238.049" x2="109.599" y2="248.934" stroke="#26292F" stroke-opacity="0.15"/>
<line x1="167.586" y1="242.049" x2="109.599" y2="252.934" stroke="#26292F" stroke-opacity="0.15"/>
<line x1="167.586" y1="246.049" x2="109.599" y2="256.934" stroke="#26292F" stroke-opacity="0.15"/>
<line x1="167.586" y1="250.049" x2="109.599" y2="260.934" stroke="#26292F" stroke-opacity="0.15"/>
<line x1="167.586" y1="254.049" x2="109.599" y2="264.934" stroke="#26292F" stroke-opacity="0.15"/>
<line x1="167.586" y1="258.049" x2="109.599" y2="268.934" stroke="#26292F" stroke-opacity="0.15"/>
<line x1="167.586" y1="262.049" x2="109.599" y2="272.934" stroke="#26292F" stroke-opacity="0.15"/>
<line x1="167.586" y1="266.049" x2="109.599" y2="276.934" stroke="#26292F" stroke-opacity="0.15"/>
<line x1="167.586" y1="270.049" x2="109.599" y2="280.934" stroke="#26292F" stroke-opacity="0.15"/>
<line x1="167.586" y1="274.049" x2="109.599" y2="284.934" stroke="#26292F" stroke-opacity="0.15"/>
<line x1="167.586" y1="278.049" x2="109.599" y2="288.934" stroke="#26292F" stroke-opacity="0.15"/>
<line x1="167.586" y1="282.049" x2="109.599" y2="292.934" stroke="#26292F" stroke-opacity="0.15"/>
</g>
<path d="M243 260C243 251.716 249.716 245 258 245H279C287.284 245 294 251.716 294 260V286H243V260Z" fill="#D7FFE9"/>
<mask id="mask1_30557_1075" style="mask-type:alpha" maskUnits="userSpaceOnUse" x="243" y="245" width="51" height="41">
<path d="M243 260C243 251.716 249.716 245 258 245H279C287.284 245 294 251.716 294 260V286H243V260Z" fill="#FFD7F2"/>
</mask>
<g mask="url(#mask1_30557_1075)">
<line y1="-0.5" x2="59.4075" y2="-0.5" transform="matrix(-0.976091 0.217364 -0.156299 -0.98771 297.494 232.092)" stroke="#26292F" stroke-opacity="0.15"/>
<line y1="-0.5" x2="59.4075" y2="-0.5" transform="matrix(-0.976091 0.217364 -0.156299 -0.98771 297.494 236.837)" stroke="#26292F" stroke-opacity="0.15"/>
<line y1="-0.5" x2="59.4075" y2="-0.5" transform="matrix(-0.976091 0.217364 -0.156299 -0.98771 297.494 241.583)" stroke="#26292F" stroke-opacity="0.15"/>
<line y1="-0.5" x2="59.4075" y2="-0.5" transform="matrix(-0.976091 0.217364 -0.156299 -0.98771 297.494 246.328)" stroke="#26292F" stroke-opacity="0.15"/>
<line y1="-0.5" x2="59.4075" y2="-0.5" transform="matrix(-0.976091 0.217364 -0.156299 -0.98771 297.494 251.073)" stroke="#26292F" stroke-opacity="0.15"/>
<line y1="-0.5" x2="59.4075" y2="-0.5" transform="matrix(-0.976091 0.217364 -0.156299 -0.98771 297.494 255.818)" stroke="#26292F" stroke-opacity="0.15"/>
<line y1="-0.5" x2="59.4075" y2="-0.5" transform="matrix(-0.976091 0.217364 -0.156299 -0.98771 297.494 260.563)" stroke="#26292F" stroke-opacity="0.15"/>
<line y1="-0.5" x2="59.4075" y2="-0.5" transform="matrix(-0.976091 0.217364 -0.156299 -0.98771 297.494 265.308)" stroke="#26292F" stroke-opacity="0.15"/>
<line y1="-0.5" x2="59.4075" y2="-0.5" transform="matrix(-0.976091 0.217364 -0.156299 -0.98771 297.494 270.053)" stroke="#26292F" stroke-opacity="0.15"/>
<line y1="-0.5" x2="59.4075" y2="-0.5" transform="matrix(-0.976091 0.217364 -0.156299 -0.98771 297.494 274.798)" stroke="#26292F" stroke-opacity="0.15"/>
<line y1="-0.5" x2="59.4075" y2="-0.5" transform="matrix(-0.976091 0.217364 -0.156299 -0.98771 297.494 279.543)" stroke="#26292F" stroke-opacity="0.15"/>
<line y1="-0.5" x2="59.4075" y2="-0.5" transform="matrix(-0.976091 0.217364 -0.156299 -0.98771 297.494 284.289)" stroke="#26292F" stroke-opacity="0.15"/>
</g>
<path d="M99.4703 50H97.9583V41.228H99.4823L103.598 47.444V41.228H105.11V50H103.598L99.4703 43.784V50ZM109.488 50.156C107.724 50.156 106.488 48.872 106.488 47.036C106.488 45.176 107.7 43.892 109.44 43.892C111.216 43.892 112.344 45.08 112.344 46.928V47.372L107.88 47.384C107.988 48.428 108.54 48.956 109.512 48.956C110.316 48.956 110.844 48.644 111.012 48.08H112.368C112.116 49.376 111.036 50.156 109.488 50.156ZM109.452 45.092C108.588 45.092 108.06 45.56 107.916 46.448H110.892C110.892 45.632 110.328 45.092 109.452 45.092ZM114.566 50L112.646 44.072H114.17L114.95 46.616C115.082 47.084 115.202 47.6 115.31 48.152C115.418 47.576 115.526 47.204 115.718 46.616L116.534 44.072H118.022L118.814 46.616C118.886 46.856 119.126 47.744 119.198 48.14C119.294 47.696 119.486 46.988 119.594 46.616L120.386 44.072H121.934L119.882 50H118.514L117.698 47.432C117.458 46.652 117.326 46.088 117.278 45.788C117.218 46.064 117.11 46.484 116.81 47.456L115.994 50H114.566ZM129.979 50.144C127.423 50.144 125.767 48.368 125.767 45.62C125.767 42.896 127.483 41.084 130.051 41.084C132.127 41.084 133.675 42.296 133.975 44.18H132.355C132.055 43.16 131.179 42.56 130.015 42.56C128.395 42.56 127.375 43.736 127.375 45.608C127.375 47.468 128.407 48.668 130.015 48.668C131.203 48.668 132.115 48.044 132.403 47.072H133.999C133.663 48.92 132.055 50.144 129.979 50.144ZM139.18 44.072H140.644V50H139.288L139.18 49.208C138.82 49.772 138.052 50.156 137.26 50.156C135.892 50.156 135.088 49.232 135.088 47.78V44.072H136.552V47.264C136.552 48.392 136.996 48.848 137.812 48.848C138.736 48.848 139.18 48.308 139.18 47.18V44.072ZM141.583 48.2H142.975C142.987 48.716 143.371 49.04 144.043 49.04C144.727 49.04 145.099 48.764 145.099 48.332C145.099 48.032 144.943 47.816 144.415 47.696L143.347 47.444C142.279 47.204 141.763 46.7 141.763 45.752C141.763 44.588 142.747 43.892 144.115 43.892C145.447 43.892 146.347 44.66 146.359 45.812H144.967C144.955 45.308 144.619 44.984 144.055 44.984C143.479 44.984 143.143 45.248 143.143 45.692C143.143 46.028 143.407 46.244 143.911 46.364L144.979 46.616C145.975 46.844 146.479 47.3 146.479 48.212C146.479 49.412 145.459 50.156 143.995 50.156C142.519 50.156 141.583 49.364 141.583 48.2ZM149.61 50H148.146V45.296H147.006V44.072H148.146V42.224H149.61V44.072H150.762V45.296H149.61V50ZM151.265 47.024C151.265 45.176 152.597 43.904 154.433 43.904C156.269 43.904 157.601 45.176 157.601 47.024C157.601 48.872 156.269 50.144 154.433 50.144C152.597 50.144 151.265 48.872 151.265 47.024ZM152.729 47.024C152.729 48.104 153.425 48.836 154.433 48.836C155.441 48.836 156.137 48.104 156.137 47.024C156.137 45.944 155.441 45.212 154.433 45.212C153.425 45.212 152.729 45.944 152.729 47.024ZM160.226 50H158.762V44.072H160.106L160.226 44.768C160.526 44.276 161.126 43.892 161.978 43.892C162.878 43.892 163.502 44.336 163.814 45.02C164.114 44.336 164.81 43.892 165.71 43.892C167.15 43.892 167.942 44.756 167.942 46.124V50H166.49V46.508C166.49 45.656 166.034 45.212 165.338 45.212C164.63 45.212 164.09 45.668 164.09 46.64V50H162.626V46.496C162.626 45.668 162.182 45.224 161.486 45.224C160.79 45.224 160.226 45.68 160.226 46.64V50ZM172.031 50.156C170.267 50.156 169.031 48.872 169.031 47.036C169.031 45.176 170.243 43.892 171.983 43.892C173.759 43.892 174.887 45.08 174.887 46.928V47.372L170.423 47.384C170.531 48.428 171.083 48.956 172.055 48.956C172.859 48.956 173.387 48.644 173.555 48.08H174.911C174.659 49.376 173.579 50.156 172.031 50.156ZM171.995 45.092C171.131 45.092 170.603 45.56 170.459 46.448H173.435C173.435 45.632 172.871 45.092 171.995 45.092ZM179.779 44.048V45.404H179.239C178.183 45.404 177.523 45.968 177.523 47.12V50H176.059V44.084H177.439L177.523 44.948C177.775 44.36 178.339 43.964 179.131 43.964C179.335 43.964 179.539 43.988 179.779 44.048ZM94.8178 73H93.2218L96.3898 64.228H97.9618L101.13 73H99.5098L98.8018 70.972H95.5258L94.8178 73ZM96.9778 66.844L95.9818 69.676H98.3578L97.3498 66.844C97.2778 66.616 97.1938 66.352 97.1698 66.172C97.1338 66.34 97.0618 66.604 96.9778 66.844ZM101.396 70.024C101.396 68.188 102.608 66.892 104.36 66.892C105.98 66.892 107.084 67.792 107.24 69.22H105.776C105.608 68.548 105.116 68.2 104.42 68.2C103.484 68.2 102.86 68.908 102.86 70.024C102.86 71.14 103.436 71.836 104.372 71.836C105.104 71.836 105.62 71.476 105.776 70.828H107.252C107.072 72.208 105.92 73.156 104.372 73.156C102.572 73.156 101.396 71.908 101.396 70.024ZM107.994 69.964C107.994 68.104 109.098 66.892 110.766 66.892C111.666 66.892 112.446 67.288 112.806 67.972L112.902 67.072H114.246V75.748H112.794V72.208C112.422 72.808 111.642 73.156 110.766 73.156C109.002 73.156 107.994 71.812 107.994 69.964ZM109.458 70.036C109.458 71.092 110.082 71.836 111.102 71.836C112.122 71.836 112.782 71.104 112.782 70.036C112.782 68.968 112.122 68.224 111.102 68.224C110.082 68.224 109.458 68.98 109.458 70.036ZM119.792 67.072H121.256V73H119.9L119.792 72.208C119.432 72.772 118.664 73.156 117.872 73.156C116.504 73.156 115.7 72.232 115.7 70.78V67.072H117.164V70.264C117.164 71.392 117.608 71.848 118.424 71.848C119.348 71.848 119.792 71.308 119.792 70.18V67.072ZM123.5 65.884C122.996 65.884 122.6 65.488 122.6 64.996C122.6 64.504 122.996 64.12 123.5 64.12C123.98 64.12 124.376 64.504 124.376 64.996C124.376 65.488 123.98 65.884 123.5 65.884ZM122.768 73V67.072H124.232V73H122.768ZM125.288 71.2H126.68C126.692 71.716 127.076 72.04 127.748 72.04C128.432 72.04 128.804 71.764 128.804 71.332C128.804 71.032 128.648 70.816 128.12 70.696L127.052 70.444C125.984 70.204 125.468 69.7 125.468 68.752C125.468 67.588 126.452 66.892 127.82 66.892C129.152 66.892 130.052 67.66 130.064 68.812H128.672C128.66 68.308 128.324 67.984 127.76 67.984C127.184 67.984 126.848 68.248 126.848 68.692C126.848 69.028 127.112 69.244 127.616 69.364L128.684 69.616C129.68 69.844 130.184 70.3 130.184 71.212C130.184 72.412 129.164 73.156 127.7 73.156C126.224 73.156 125.288 72.364 125.288 71.2ZM132.031 65.884C131.527 65.884 131.131 65.488 131.131 64.996C131.131 64.504 131.527 64.12 132.031 64.12C132.511 64.12 132.907 64.504 132.907 64.996C132.907 65.488 132.511 65.884 132.031 65.884ZM131.299 73V67.072H132.763V73H131.299ZM136.292 73H134.828V68.296H133.688V67.072H134.828V65.224H136.292V67.072H137.444V68.296H136.292V73ZM139.086 65.884C138.582 65.884 138.186 65.488 138.186 64.996C138.186 64.504 138.582 64.12 139.086 64.12C139.566 64.12 139.962 64.504 139.962 64.996C139.962 65.488 139.566 65.884 139.086 65.884ZM138.354 73V67.072H139.818V73H138.354ZM140.982 70.024C140.982 68.176 142.314 66.904 144.15 66.904C145.986 66.904 147.318 68.176 147.318 70.024C147.318 71.872 145.986 73.144 144.15 73.144C142.314 73.144 140.982 71.872 140.982 70.024ZM142.446 70.024C142.446 71.104 143.142 71.836 144.15 71.836C145.158 71.836 145.854 71.104 145.854 70.024C145.854 68.944 145.158 68.212 144.15 68.212C143.142 68.212 142.446 68.944 142.446 70.024ZM149.943 73H148.479V67.072H149.835L149.955 67.84C150.327 67.24 151.047 66.892 151.851 66.892C153.339 66.892 154.107 67.816 154.107 69.352V73H152.643V69.7C152.643 68.704 152.151 68.224 151.395 68.224C150.495 68.224 149.943 68.848 149.943 69.808V73ZM162.703 73.144C160.147 73.144 158.491 71.368 158.491 68.62C158.491 65.896 160.207 64.084 162.775 64.084C164.851 64.084 166.399 65.296 166.699 67.18H165.079C164.779 66.16 163.903 65.56 162.739 65.56C161.119 65.56 160.099 66.736 160.099 68.608C160.099 70.468 161.131 71.668 162.739 71.668C163.927 71.668 164.839 71.044 165.127 70.072H166.723C166.387 71.92 164.779 73.144 162.703 73.144ZM167.537 70.024C167.537 68.176 168.869 66.904 170.705 66.904C172.541 66.904 173.873 68.176 173.873 70.024C173.873 71.872 172.541 73.144 170.705 73.144C168.869 73.144 167.537 71.872 167.537 70.024ZM169.001 70.024C169.001 71.104 169.697 71.836 170.705 71.836C171.713 71.836 172.409 71.104 172.409 70.024C172.409 68.944 171.713 68.212 170.705 68.212C169.697 68.212 169.001 68.944 169.001 70.024ZM174.577 71.2H175.969C175.981 71.716 176.365 72.04 177.037 72.04C177.721 72.04 178.093 71.764 178.093 71.332C178.093 71.032 177.937 70.816 177.409 70.696L176.341 70.444C175.273 70.204 174.757 69.7 174.757 68.752C174.757 67.588 175.741 66.892 177.109 66.892C178.441 66.892 179.341 67.66 179.353 68.812H177.961C177.949 68.308 177.613 67.984 177.049 67.984C176.473 67.984 176.137 68.248 176.137 68.692C176.137 69.028 176.401 69.244 176.905 69.364L177.973 69.616C178.969 69.844 179.473 70.3 179.473 71.212C179.473 72.412 178.453 73.156 176.989 73.156C175.513 73.156 174.577 72.364 174.577 71.2ZM182.604 73H181.14V68.296H180V67.072H181.14V65.224H182.604V67.072H183.756V68.296H182.604V73Z" fill="#26292F"/>
<path d="M221.524 215H216.076V206.228H221.524V207.644H217.612V209.9H221.116V211.256H217.612V213.584H221.524V215ZM224.005 215H222.337L224.377 212.096L222.337 209.072H224.041L225.349 211.088L226.609 209.072H228.253L226.237 212.072L228.193 215H226.513L225.253 213.044L224.005 215ZM229.857 207.884C229.353 207.884 228.957 207.488 228.957 206.996C228.957 206.504 229.353 206.12 229.857 206.12C230.337 206.12 230.733 206.504 230.733 206.996C230.733 207.488 230.337 207.884 229.857 207.884ZM229.125 215V209.072H230.589V215H229.125ZM231.646 213.2H233.038C233.05 213.716 233.434 214.04 234.106 214.04C234.79 214.04 235.162 213.764 235.162 213.332C235.162 213.032 235.006 212.816 234.478 212.696L233.41 212.444C232.342 212.204 231.826 211.7 231.826 210.752C231.826 209.588 232.81 208.892 234.178 208.892C235.51 208.892 236.41 209.66 236.422 210.812H235.03C235.018 210.308 234.682 209.984 234.118 209.984C233.542 209.984 233.206 210.248 233.206 210.692C233.206 211.028 233.47 211.244 233.974 211.364L235.042 211.616C236.038 211.844 236.542 212.3 236.542 213.212C236.542 214.412 235.522 215.156 234.058 215.156C232.582 215.156 231.646 214.364 231.646 213.2ZM239.672 215H238.208V210.296H237.068V209.072H238.208V207.224H239.672V209.072H240.824V210.296H239.672V215ZM242.467 207.884C241.963 207.884 241.567 207.488 241.567 206.996C241.567 206.504 241.963 206.12 242.467 206.12C242.947 206.12 243.343 206.504 243.343 206.996C243.343 207.488 242.947 207.884 242.467 207.884ZM241.735 215V209.072H243.199V215H241.735ZM246.175 215H244.711V209.072H246.067L246.187 209.84C246.559 209.24 247.279 208.892 248.083 208.892C249.571 208.892 250.339 209.816 250.339 211.352V215H248.875V211.7C248.875 210.704 248.383 210.224 247.627 210.224C246.727 210.224 246.175 210.848 246.175 211.808V215ZM251.441 211.904C251.441 210.176 252.569 208.88 254.261 208.88C255.149 208.88 255.845 209.252 256.193 209.888L256.277 209.072H257.633V214.7C257.633 216.68 256.445 217.916 254.525 217.916C252.821 217.916 251.657 216.944 251.477 215.36H252.941C253.037 216.128 253.625 216.584 254.525 216.584C255.533 216.584 256.181 215.948 256.181 214.964V213.98C255.809 214.532 255.077 214.88 254.225 214.88C252.545 214.88 251.441 213.62 251.441 211.904ZM252.917 211.868C252.917 212.864 253.553 213.608 254.513 213.608C255.521 213.608 256.145 212.9 256.145 211.868C256.145 210.86 255.533 210.164 254.513 210.164C253.541 210.164 252.917 210.896 252.917 211.868ZM266.307 215.144C263.751 215.144 262.095 213.368 262.095 210.62C262.095 207.896 263.811 206.084 266.379 206.084C268.455 206.084 270.003 207.296 270.303 209.18H268.683C268.383 208.16 267.507 207.56 266.343 207.56C264.723 207.56 263.703 208.736 263.703 210.608C263.703 212.468 264.735 213.668 266.343 213.668C267.531 213.668 268.443 213.044 268.731 212.072H270.327C269.991 213.92 268.383 215.144 266.307 215.144ZM275.508 209.072H276.972V215H275.616L275.508 214.208C275.148 214.772 274.38 215.156 273.588 215.156C272.22 215.156 271.416 214.232 271.416 212.78V209.072H272.88V212.264C272.88 213.392 273.324 213.848 274.14 213.848C275.064 213.848 275.508 213.308 275.508 212.18V209.072ZM277.911 213.2H279.303C279.315 213.716 279.699 214.04 280.371 214.04C281.055 214.04 281.427 213.764 281.427 213.332C281.427 213.032 281.271 212.816 280.743 212.696L279.675 212.444C278.607 212.204 278.091 211.7 278.091 210.752C278.091 209.588 279.075 208.892 280.443 208.892C281.775 208.892 282.675 209.66 282.687 210.812H281.295C281.283 210.308 280.947 209.984 280.383 209.984C279.807 209.984 279.471 210.248 279.471 210.692C279.471 211.028 279.735 211.244 280.239 211.364L281.307 211.616C282.303 211.844 282.807 212.3 282.807 213.212C282.807 214.412 281.787 215.156 280.323 215.156C278.847 215.156 277.911 214.364 277.911 213.2ZM285.938 215H284.474V210.296H283.334V209.072H284.474V207.224H285.938V209.072H287.09V210.296H285.938V215ZM287.594 212.024C287.594 210.176 288.926 208.904 290.762 208.904C292.598 208.904 293.93 210.176 293.93 212.024C293.93 213.872 292.598 215.144 290.762 215.144C288.926 215.144 287.594 213.872 287.594 212.024ZM289.058 212.024C289.058 213.104 289.754 213.836 290.762 213.836C291.77 213.836 292.466 213.104 292.466 212.024C292.466 210.944 291.77 210.212 290.762 210.212C289.754 210.212 289.058 210.944 289.058 212.024ZM296.554 215H295.09V209.072H296.434L296.554 209.768C296.854 209.276 297.454 208.892 298.306 208.892C299.206 208.892 299.83 209.336 300.142 210.02C300.442 209.336 301.138 208.892 302.038 208.892C303.478 208.892 304.27 209.756 304.27 211.124V215H302.818V211.508C302.818 210.656 302.362 210.212 301.666 210.212C300.958 210.212 300.418 210.668 300.418 211.64V215H298.954V211.496C298.954 210.668 298.51 210.224 297.814 210.224C297.118 210.224 296.554 210.68 296.554 211.64V215ZM308.359 215.156C306.595 215.156 305.359 213.872 305.359 212.036C305.359 210.176 306.571 208.892 308.311 208.892C310.087 208.892 311.215 210.08 311.215 211.928V212.372L306.751 212.384C306.859 213.428 307.411 213.956 308.383 213.956C309.187 213.956 309.715 213.644 309.883 213.08H311.239C310.987 214.376 309.907 215.156 308.359 215.156ZM308.323 210.092C307.459 210.092 306.931 210.56 306.787 211.448H309.763C309.763 210.632 309.199 210.092 308.323 210.092ZM316.107 209.048V210.404H315.567C314.511 210.404 313.851 210.968 313.851 212.12V215H312.387V209.084H313.767L313.851 209.948C314.103 209.36 314.667 208.964 315.459 208.964C315.663 208.964 315.867 208.988 316.107 209.048ZM316.642 213.2H318.034C318.046 213.716 318.43 214.04 319.102 214.04C319.786 214.04 320.158 213.764 320.158 213.332C320.158 213.032 320.002 212.816 319.474 212.696L318.406 212.444C317.338 212.204 316.822 211.7 316.822 210.752C316.822 209.588 317.806 208.892 319.174 208.892C320.506 208.892 321.406 209.66 321.418 210.812H320.026C320.014 210.308 319.678 209.984 319.114 209.984C318.538 209.984 318.202 210.248 318.202 210.692C318.202 211.028 318.466 211.244 318.97 211.364L320.038 211.616C321.034 211.844 321.538 212.3 321.538 213.212C321.538 214.412 320.518 215.156 319.054 215.156C317.578 215.156 316.642 214.364 316.642 213.2ZM229.811 238H228.275V229.228H231.623C233.615 229.228 234.779 230.236 234.779 231.964C234.779 233.14 234.227 233.98 233.195 234.4L234.863 238H233.183L231.695 234.724H229.811V238ZM229.811 230.596V233.368H231.623C232.595 233.368 233.171 232.852 233.171 231.964C233.171 231.088 232.595 230.596 231.623 230.596H229.811ZM238.328 238.156C236.564 238.156 235.328 236.872 235.328 235.036C235.328 233.176 236.54 231.892 238.28 231.892C240.056 231.892 241.184 233.08 241.184 234.928V235.372L236.72 235.384C236.828 236.428 237.38 236.956 238.352 236.956C239.156 236.956 239.684 236.644 239.852 236.08H241.208C240.956 237.376 239.876 238.156 238.328 238.156ZM238.292 233.092C237.428 233.092 236.9 233.56 236.756 234.448H239.732C239.732 233.632 239.168 233.092 238.292 233.092ZM244.313 238H242.849V233.296H241.709V232.072H242.849V230.224H244.313V232.072H245.465V233.296H244.313V238ZM248.969 238.156C247.205 238.156 245.969 236.872 245.969 235.036C245.969 233.176 247.181 231.892 248.921 231.892C250.697 231.892 251.825 233.08 251.825 234.928V235.372L247.361 235.384C247.469 236.428 248.021 236.956 248.993 236.956C249.797 236.956 250.325 236.644 250.493 236.08H251.849C251.597 237.376 250.517 238.156 248.969 238.156ZM248.933 233.092C248.069 233.092 247.541 233.56 247.397 234.448H250.373C250.373 233.632 249.809 233.092 248.933 233.092ZM254.46 238H252.996V232.072H254.352L254.472 232.84C254.844 232.24 255.564 231.892 256.368 231.892C257.856 231.892 258.624 232.816 258.624 234.352V238H257.16V234.7C257.16 233.704 256.668 233.224 255.912 233.224C255.012 233.224 254.46 233.848 254.46 234.808V238ZM262.079 238H260.615V233.296H259.475V232.072H260.615V230.224H262.079V232.072H263.231V233.296H262.079V238ZM264.873 230.884C264.369 230.884 263.973 230.488 263.973 229.996C263.973 229.504 264.369 229.12 264.873 229.12C265.353 229.12 265.749 229.504 265.749 229.996C265.749 230.488 265.353 230.884 264.873 230.884ZM264.141 238V232.072H265.605V238H264.141ZM266.769 235.024C266.769 233.176 268.101 231.904 269.937 231.904C271.773 231.904 273.105 233.176 273.105 235.024C273.105 236.872 271.773 238.144 269.937 238.144C268.101 238.144 266.769 236.872 266.769 235.024ZM268.233 235.024C268.233 236.104 268.929 236.836 269.937 236.836C270.945 236.836 271.641 236.104 271.641 235.024C271.641 233.944 270.945 233.212 269.937 233.212C268.929 233.212 268.233 233.944 268.233 235.024ZM275.73 238H274.266V232.072H275.622L275.742 232.84C276.114 232.24 276.834 231.892 277.638 231.892C279.126 231.892 279.894 232.816 279.894 234.352V238H278.43V234.7C278.43 233.704 277.938 233.224 277.182 233.224C276.282 233.224 275.73 233.848 275.73 234.808V238ZM288.491 238.144C285.935 238.144 284.279 236.368 284.279 233.62C284.279 230.896 285.995 229.084 288.563 229.084C290.639 229.084 292.187 230.296 292.487 232.18H290.867C290.567 231.16 289.691 230.56 288.527 230.56C286.907 230.56 285.887 231.736 285.887 233.608C285.887 235.468 286.919 236.668 288.527 236.668C289.715 236.668 290.627 236.044 290.915 235.072H292.511C292.175 236.92 290.567 238.144 288.491 238.144ZM293.324 235.024C293.324 233.176 294.656 231.904 296.492 231.904C298.328 231.904 299.66 233.176 299.66 235.024C299.66 236.872 298.328 238.144 296.492 238.144C294.656 238.144 293.324 236.872 293.324 235.024ZM294.788 235.024C294.788 236.104 295.484 236.836 296.492 236.836C297.5 236.836 298.196 236.104 298.196 235.024C298.196 233.944 297.5 233.212 296.492 233.212C295.484 233.212 294.788 233.944 294.788 235.024ZM300.364 236.2H301.756C301.768 236.716 302.152 237.04 302.824 237.04C303.508 237.04 303.88 236.764 303.88 236.332C303.88 236.032 303.724 235.816 303.196 235.696L302.128 235.444C301.06 235.204 300.544 234.7 300.544 233.752C300.544 232.588 301.528 231.892 302.896 231.892C304.228 231.892 305.128 232.66 305.14 233.812H303.748C303.736 233.308 303.4 232.984 302.836 232.984C302.26 232.984 301.924 233.248 301.924 233.692C301.924 234.028 302.188 234.244 302.692 234.364L303.76 234.616C304.756 234.844 305.26 235.3 305.26 236.212C305.26 237.412 304.24 238.156 302.776 238.156C301.3 238.156 300.364 237.364 300.364 236.2ZM308.391 238H306.927V233.296H305.787V232.072H306.927V230.224H308.391V232.072H309.543V233.296H308.391V238Z" fill="#26292F"/>
</svg>
