<svg xmlns="http://www.w3.org/2000/svg" width="407" height="394" fill="none"><rect width="407" height="394" fill="#fff" rx="30"/><rect width="406" height="393" x=".5" y=".5" stroke="#26292F" stroke-opacity=".15" rx="29.5"/><path fill="#26292F" d="M31.392 334h-1.168l4.208-11.456h1.424L40.112 334h-1.2l-1.12-3.04h-5.28zm3.6-9.84-2.128 5.792h4.56l-2.144-5.792c-.048-.16-.128-.352-.144-.464-.016.096-.08.304-.144.464m5.663 5.984c0-2.432 1.488-4.096 3.744-4.096 1.792 0 3.104 1.04 3.408 2.64h-1.104c-.288-1.072-1.216-1.664-2.288-1.664-1.568 0-2.672 1.2-2.672 3.104 0 1.84 1.024 3.072 2.592 3.072 1.152 0 2.08-.64 2.384-1.632h1.12c-.368 1.584-1.744 2.624-3.504 2.624-2.192 0-3.68-1.616-3.68-4.048m8.312-.048c0-2.336 1.344-4.048 3.584-4.048 1.296 0 2.368.576 2.928 1.776l.112-1.568h.96v11.12h-1.104v-4.864c-.544 1.12-1.584 1.68-2.896 1.68-2.288 0-3.584-1.76-3.584-4.096m1.12.032c0 1.776.976 3.072 2.656 3.072 1.696 0 2.688-1.296 2.688-3.072 0-1.792-.992-3.072-2.688-3.072-1.68 0-2.656 1.28-2.656 3.072m14.208-3.872H65.4V334h-.96l-.144-1.312c-.432.896-1.504 1.504-2.72 1.504-1.824 0-2.816-1.248-2.816-3.136v-4.816h1.12v4.464c0 1.84.816 2.496 2.048 2.496 1.488 0 2.368-.992 2.368-2.832zm3.948-2.128a.82.82 0 0 1-.816-.816c0-.448.368-.832.816-.832s.832.384.832.832a.833.833 0 0 1-.832.816M67.699 334v-7.744h1.104V334zm7.454-7.84v.992h-.608c-1.424 0-2.336.96-2.336 2.432V334h-1.104v-7.744h1.04l.08 1.2c.304-.832 1.12-1.376 2.208-1.376.24 0 .448.016.72.08m2.012-2.032a.82.82 0 0 1-.816-.816c0-.448.368-.832.816-.832s.832.384.832.832a.833.833 0 0 1-.832.816M76.62 334v-7.744h1.104V334zm4.51 0h-1.104v-7.744h.96l.16 1.344c.512-.992 1.536-1.552 2.656-1.552 2.128 0 3.008 1.264 3.008 3.216V334h-1.104v-4.496c0-1.808-.816-2.448-2.096-2.448-1.584 0-2.48 1.152-2.48 2.896zm7.352-4.096c0-2.112 1.36-3.856 3.632-3.856 1.344 0 2.368.624 2.864 1.76l.112-1.552h.96v7.504c0 2.304-1.472 3.808-3.744 3.808-1.984 0-3.376-1.12-3.68-2.992h1.104c.24 1.248 1.2 1.984 2.592 1.984 1.584 0 2.64-1.072 2.64-2.688v-1.84c-.528 1.088-1.6 1.728-2.928 1.728-2.208 0-3.552-1.744-3.552-3.856m1.104-.016c0 1.584.976 2.88 2.608 2.88 1.68 0 2.672-1.216 2.672-2.88 0-1.648-.96-2.864-2.656-2.864-1.664 0-2.624 1.296-2.624 2.864m15.43 4.304c-1.648 0-2.624-.928-2.624-2.288 0-1.424 1.088-2.32 2.896-2.464l2.56-.208v-.256c0-1.52-.912-2-2.048-2-1.344 0-2.144.608-2.144 1.648h-1.008c0-1.568 1.28-2.576 3.184-2.576 1.792 0 3.104.896 3.104 2.944V334h-.928l-.144-1.36c-.48.976-1.536 1.552-2.848 1.552m.256-.896c1.632 0 2.576-1.136 2.576-2.816v-.416l-2.288.176c-1.456.128-2.048.768-2.048 1.632 0 .944.704 1.424 1.76 1.424m11.421.704h-1.104v-7.744h.959l.161 1.344c.512-.992 1.536-1.552 2.656-1.552 2.128 0 3.008 1.264 3.008 3.216V334h-1.104v-4.496c0-1.808-.816-2.448-2.096-2.448-1.584 0-2.48 1.152-2.48 2.896zm11.128.192c-2.272 0-3.792-1.632-3.792-4.064 0-2.416 1.504-4.08 3.712-4.08 2.096 0 3.52 1.488 3.52 3.68v.544h-6.16c.08 1.888 1.072 2.976 2.736 2.976 1.264 0 2.08-.544 2.368-1.568h1.056c-.416 1.632-1.616 2.512-3.44 2.512m-.08-7.2c-1.456 0-2.416.96-2.608 2.48h5.024c0-1.488-.96-2.48-2.416-2.48m6.714 7.008-2.56-7.744h1.136l1.52 4.672c.176.512.32 1.04.48 1.664.128-.624.384-1.408.464-1.664l1.536-4.672h1.136l1.52 4.672c.144.416.336 1.088.48 1.664.16-.64.192-.832.464-1.664l1.536-4.672h1.152L140.696 334h-1.072l-1.6-4.864a13 13 0 0 1-.416-1.52c-.112.416-.24.88-.448 1.52l-1.6 4.864zm14.136-3.856c0-2.432 1.488-4.096 3.744-4.096 1.792 0 3.104 1.04 3.408 2.64h-1.104c-.288-1.072-1.216-1.664-2.288-1.664-1.568 0-2.672 1.2-2.672 3.104 0 1.84 1.024 3.072 2.592 3.072 1.152 0 2.08-.64 2.384-1.632h1.12c-.368 1.584-1.744 2.624-3.504 2.624-2.192 0-3.68-1.616-3.68-4.048m14.297-3.888h1.104V334h-.96l-.144-1.312c-.432.896-1.504 1.504-2.72 1.504-1.824 0-2.816-1.248-2.816-3.136v-4.816h1.12v4.464c0 1.84.816 2.496 2.048 2.496 1.488 0 2.368-.992 2.368-2.832zm2.591 5.568h1.056c0 .896.672 1.456 1.76 1.456 1.2 0 1.904-.512 1.904-1.344 0-.64-.32-1.008-1.232-1.232l-1.328-.336c-1.344-.336-2-1.04-2-2.096 0-1.36 1.136-2.224 2.8-2.224 1.632 0 2.688.896 2.736 2.336h-1.072c-.032-.896-.656-1.424-1.696-1.424-1.088 0-1.696.464-1.696 1.296 0 .592.416 1.008 1.264 1.216l1.328.336c1.344.336 1.952.96 1.952 2.08 0 1.392-1.184 2.304-2.944 2.304-1.744 0-2.832-.928-2.832-2.368m9.37 2.176h-1.088v-6.816h-1.552v-.928h1.552v-2.448h1.088v2.448h1.552v.928h-1.552zm2.367-3.872c0-2.368 1.664-4.08 3.936-4.08s3.936 1.712 3.936 4.08c0 2.352-1.664 4.064-3.936 4.064s-3.936-1.712-3.936-4.064m1.12-.016c0 1.824 1.152 3.088 2.816 3.088 1.648 0 2.816-1.264 2.816-3.088 0-1.792-1.168-3.072-2.816-3.072-1.664 0-2.816 1.28-2.816 3.072m9.622 3.888h-1.104v-7.744h.96l.128 1.104c.384-.816 1.248-1.312 2.336-1.312 1.216 0 2.128.64 2.496 1.648.352-1.008 1.296-1.648 2.544-1.648 1.68 0 2.784 1.088 2.784 2.88V334h-1.072v-4.848c0-1.328-.736-2.112-1.92-2.112-1.296 0-2.064.976-2.064 2.176V334h-1.088v-4.864c0-1.312-.752-2.08-1.92-2.08-1.296 0-2.08.96-2.08 2.144zm15.613.192c-2.272 0-3.792-1.632-3.792-4.064 0-2.416 1.504-4.08 3.712-4.08 2.096 0 3.52 1.488 3.52 3.68v.544h-6.16c.08 1.888 1.072 2.976 2.736 2.976 1.264 0 2.08-.544 2.368-1.568h1.056c-.416 1.632-1.616 2.512-3.44 2.512m-.08-7.2c-1.456 0-2.416.96-2.608 2.48h5.024c0-1.488-.96-2.48-2.416-2.48m9.333-.832v.992h-.608c-1.424 0-2.336.96-2.336 2.432V334h-1.104v-7.744h1.04l.08 1.2c.304-.832 1.12-1.376 2.208-1.376.24 0 .448.016.72.08m5.361 3.984c0-2.432 1.488-4.096 3.744-4.096 1.792 0 3.104 1.04 3.408 2.64h-1.104c-.288-1.072-1.216-1.664-2.288-1.664-1.568 0-2.672 1.2-2.672 3.104 0 1.84 1.024 3.072 2.592 3.072 1.152 0 2.08-.64 2.384-1.632h1.12c-.368 1.584-1.744 2.624-3.504 2.624-2.192 0-3.68-1.616-3.68-4.048m11.081 4.048c-1.648 0-2.624-.928-2.624-2.288 0-1.424 1.088-2.32 2.896-2.464l2.56-.208v-.256c0-1.52-.912-2-2.048-2-1.344 0-2.144.608-2.144 1.648h-1.008c0-1.568 1.28-2.576 3.184-2.576 1.792 0 3.104.896 3.104 2.944V334h-.928l-.144-1.36c-.48.976-1.536 1.552-2.848 1.552m.256-.896c1.632 0 2.576-1.136 2.576-2.816v-.416l-2.288.176c-1.456.128-2.048.768-2.048 1.632 0 .944.704 1.424 1.76 1.424m6.983.704h-1.104v-7.744h.96l.16 1.344c.512-.992 1.536-1.552 2.656-1.552 2.128 0 3.008 1.264 3.008 3.216V334h-1.104v-4.496c0-1.808-.816-2.448-2.096-2.448-1.584 0-2.48 1.152-2.48 2.896zm11.774-3.856c0-2.432 1.488-4.096 3.744-4.096 1.792 0 3.104 1.04 3.408 2.64h-1.104c-.288-1.072-1.216-1.664-2.288-1.664-1.568 0-2.672 1.2-2.672 3.104 0 1.84 1.024 3.072 2.592 3.072 1.152 0 2.08-.64 2.384-1.632h1.12c-.368 1.584-1.744 2.624-3.504 2.624-2.192 0-3.68-1.616-3.68-4.048m8.312-.016c0-2.368 1.664-4.08 3.936-4.08s3.936 1.712 3.936 4.08c0 2.352-1.664 4.064-3.936 4.064s-3.936-1.712-3.936-4.064m1.12-.016c0 1.824 1.152 3.088 2.816 3.088 1.648 0 2.816-1.264 2.816-3.088 0-1.792-1.168-3.072-2.816-3.072-1.664 0-2.816 1.28-2.816 3.072m7.862 1.712h1.056c0 .896.672 1.456 1.76 1.456 1.2 0 1.904-.512 1.904-1.344 0-.64-.32-1.008-1.232-1.232l-1.328-.336c-1.344-.336-2-1.04-2-2.096 0-1.36 1.136-2.224 2.8-2.224 1.632 0 2.688.896 2.736 2.336h-1.072c-.032-.896-.656-1.424-1.696-1.424-1.088 0-1.696.464-1.696 1.296 0 .592.416 1.008 1.264 1.216l1.328.336c1.344.336 1.952.96 1.952 2.08 0 1.392-1.184 2.304-2.944 2.304-1.744 0-2.832-.928-2.832-2.368m9.37 2.176h-1.088v-6.816h-1.552v-.928h1.552v-2.448h1.088v2.448h1.552v.928h-1.552zm10.915.192c-2.304 0-3.776-1.44-3.776-3.696h1.152c0 1.648 1.008 2.64 2.64 2.64 1.728 0 2.848-1.152 2.848-2.848 0-1.6-1.04-2.864-2.848-2.864-1.056 0-2.016.48-2.64 1.168l-.912-.288 1.376-5.76h5.536v1.056h-4.704l-.864 3.6c.64-.512 1.472-.8 2.368-.8 2.384 0 3.856 1.712 3.856 3.856 0 2.304-1.632 3.936-4.032 3.936m12.053-.192h-1.088v-6.816h-1.552v-.928h1.552v-2.448h1.088v2.448h1.552v.928h-1.552zm3.534-9.872a.82.82 0 0 1-.816-.816c0-.448.368-.832.816-.832s.832.384.832.832a.833.833 0 0 1-.832.816m-.544 9.872v-7.744h1.104V334zm4.51 0h-1.104v-7.744h.96l.128 1.104c.384-.816 1.248-1.312 2.336-1.312 1.216 0 2.128.64 2.496 1.648.352-1.008 1.296-1.648 2.544-1.648 1.68 0 2.784 1.088 2.784 2.88V334h-1.072v-4.848c0-1.328-.736-2.112-1.92-2.112-1.296 0-2.064.976-2.064 2.176V334h-1.088v-4.864c0-1.312-.752-2.08-1.92-2.08-1.296 0-2.08.96-2.08 2.144zm15.613.192c-2.272 0-3.792-1.632-3.792-4.064 0-2.416 1.504-4.08 3.712-4.08 2.096 0 3.52 1.488 3.52 3.68v.544h-6.16c.08 1.888 1.072 2.976 2.736 2.976 1.264 0 2.08-.544 2.368-1.568h1.056c-.416 1.632-1.616 2.512-3.44 2.512m-.08-7.2c-1.456 0-2.416.96-2.608 2.48h5.024c0-1.488-.96-2.48-2.416-2.48m4.629 4.832h1.056c0 .896.672 1.456 1.76 1.456 1.2 0 1.904-.512 1.904-1.344 0-.64-.32-1.008-1.232-1.232l-1.328-.336c-1.344-.336-2-1.04-2-2.096 0-1.36 1.136-2.224 2.8-2.224 1.632 0 2.688.896 2.736 2.336h-1.072c-.032-.896-.656-1.424-1.696-1.424-1.088 0-1.696.464-1.696 1.296 0 .592.416 1.008 1.264 1.216l1.328.336c1.344.336 1.952.96 1.952 2.08 0 1.392-1.184 2.304-2.944 2.304-1.744 0-2.832-.928-2.832-2.368M32.256 358h-1.104v-7.744h.96l.128 1.104c.384-.816 1.248-1.312 2.336-1.312 1.216 0 2.128.64 2.496 1.648.352-1.008 1.296-1.648 2.544-1.648 1.68 0 2.784 1.088 2.784 2.88V358h-1.072v-4.848c0-1.328-.736-2.112-1.92-2.112-1.296 0-2.064.976-2.064 2.176V358h-1.088v-4.864c0-1.312-.752-2.08-1.92-2.08-1.296 0-2.08.96-2.08 2.144zm11.82-3.872c0-2.368 1.665-4.08 3.937-4.08s3.936 1.712 3.936 4.08c0 2.352-1.664 4.064-3.936 4.064s-3.936-1.712-3.936-4.064m1.12-.016c0 1.824 1.153 3.088 2.817 3.088 1.648 0 2.816-1.264 2.816-3.088 0-1.792-1.168-3.072-2.816-3.072-1.664 0-2.816 1.28-2.816 3.072m12.567-3.952v.992h-.608c-1.425 0-2.337.96-2.337 2.432V358h-1.103v-7.744h1.04l.08 1.2c.303-.832 1.12-1.376 2.207-1.376.24 0 .448.016.72.08m4.418 8.032c-2.272 0-3.792-1.632-3.792-4.064 0-2.416 1.504-4.08 3.712-4.08 2.096 0 3.52 1.488 3.52 3.68v.544h-6.16c.08 1.888 1.072 2.976 2.736 2.976 1.264 0 2.08-.544 2.368-1.568h1.056c-.416 1.632-1.616 2.512-3.44 2.512m-.08-7.2c-1.456 0-2.416.96-2.608 2.48h5.024c0-1.488-.96-2.48-2.416-2.48M73.6 358h-1.088v-6.816H70.96v-.928h1.552v-2.448H73.6v2.448h1.552v.928H73.6zm4.094-.016h-1.105v-11.648h1.105v5.264c.495-.928 1.44-1.552 2.736-1.552 2.031 0 2.944 1.264 2.944 3.216V358h-1.105v-4.496c0-1.808-.848-2.448-2.047-2.448-1.664 0-2.528 1.232-2.528 2.72zm10.104.208c-1.648 0-2.624-.928-2.624-2.288 0-1.424 1.088-2.32 2.896-2.464l2.56-.208v-.256c0-1.52-.912-2-2.048-2-1.344 0-2.144.608-2.144 1.648H85.43c0-1.568 1.28-2.576 3.184-2.576 1.792 0 3.104.896 3.104 2.944V358h-.928l-.144-1.36c-.48.976-1.536 1.552-2.848 1.552m.256-.896c1.632 0 2.576-1.136 2.576-2.816v-.416l-2.288.176c-1.456.128-2.048.768-2.048 1.632 0 .944.704 1.424 1.76 1.424m6.983.704h-1.104v-7.744h.96l.16 1.344c.512-.992 1.536-1.552 2.656-1.552 2.128 0 3.008 1.264 3.008 3.216V358h-1.104v-4.496c0-1.808-.816-2.448-2.096-2.448-1.584 0-2.48 1.152-2.48 2.896zm16.366-7.84v.992h-.608c-1.424 0-2.336.96-2.336 2.432V358h-1.104v-7.744h1.04l.08 1.2c.304-.832 1.12-1.376 2.208-1.376.24 0 .448.016.72.08m4.419 8.032c-2.272 0-3.792-1.632-3.792-4.064 0-2.416 1.504-4.08 3.712-4.08 2.096 0 3.52 1.488 3.52 3.68v.544h-6.16c.08 1.888 1.072 2.976 2.736 2.976 1.264 0 2.08-.544 2.368-1.568h1.056c-.416 1.632-1.616 2.512-3.44 2.512m-.08-7.2c-1.456 0-2.416.96-2.608 2.48h5.024c0-1.488-.96-2.48-2.416-2.48m6.983 7.008h-1.088v-6.816h-1.552v-.928h1.552v-2.448h1.088v2.448h1.552v.928h-1.552zm5.089.192c-1.648 0-2.624-.928-2.624-2.288 0-1.424 1.088-2.32 2.896-2.464l2.56-.208v-.256c0-1.52-.912-2-2.048-2-1.344 0-2.144.608-2.144 1.648h-1.008c0-1.568 1.28-2.576 3.184-2.576 1.792 0 3.104.896 3.104 2.944V358h-.928l-.144-1.36c-.48.976-1.536 1.552-2.848 1.552m.256-.896c1.632 0 2.576-1.136 2.576-2.816v-.416l-2.288.176c-1.456.128-2.048.768-2.048 1.632 0 .944.704 1.424 1.76 1.424m6.423-9.168a.82.82 0 0 1-.816-.816c0-.448.368-.832.816-.832s.832.384.832.832a.833.833 0 0 1-.832.816m-.544 9.872v-7.744h1.104V358zm4.51 0h-1.104v-7.744h.96l.16 1.344c.512-.992 1.536-1.552 2.656-1.552 2.128 0 3.008 1.264 3.008 3.216V358h-1.104v-4.496c0-1.808-.816-2.448-2.096-2.448-1.584 0-2.48 1.152-2.48 2.896zm8.425-9.872a.82.82 0 0 1-.816-.816c0-.448.368-.832.816-.832s.832.384.832.832a.833.833 0 0 1-.832.816M146.34 358v-7.744h1.104V358zm4.51 0h-1.104v-7.744h.96l.16 1.344c.512-.992 1.536-1.552 2.656-1.552 2.128 0 3.008 1.264 3.008 3.216V358h-1.104v-4.496c0-1.808-.816-2.448-2.096-2.448-1.584 0-2.48 1.152-2.48 2.896zm7.352-4.096c0-2.112 1.36-3.856 3.632-3.856 1.344 0 2.368.624 2.864 1.76l.112-1.552h.96v7.504c0 2.304-1.472 3.808-3.744 3.808-1.984 0-3.376-1.12-3.68-2.992h1.104c.24 1.248 1.2 1.984 2.592 1.984 1.584 0 2.64-1.072 2.64-2.688v-1.84c-.528 1.088-1.6 1.728-2.928 1.728-2.208 0-3.552-1.744-3.552-3.856m1.104-.016c0 1.584.976 2.88 2.608 2.88 1.68 0 2.672-1.216 2.672-2.88 0-1.648-.96-2.864-2.656-2.864-1.664 0-2.624 1.296-2.624 2.864m15.429 4.304c-1.648 0-2.624-.928-2.624-2.288 0-1.424 1.088-2.32 2.896-2.464l2.56-.208v-.256c0-1.52-.912-2-2.048-2-1.344 0-2.144.608-2.144 1.648h-1.008c0-1.568 1.28-2.576 3.184-2.576 1.792 0 3.104.896 3.104 2.944V358h-.928l-.144-1.36c-.48.976-1.536 1.552-2.848 1.552m.256-.896c1.632 0 2.576-1.136 2.576-2.816v-.416l-2.288.176c-1.456.128-2.048.768-2.048 1.632 0 .944.704 1.424 1.76 1.424m6.984.704h-1.104v-7.744h.96l.16 1.344c.512-.992 1.536-1.552 2.656-1.552 2.128 0 3.008 1.264 3.008 3.216V358h-1.104v-4.496c0-1.808-.816-2.448-2.096-2.448-1.584 0-2.48 1.152-2.48 2.896zm15.566.192c-2.272 0-3.792-1.632-3.792-4.064 0-2.416 1.504-4.08 3.712-4.08 2.096 0 3.52 1.488 3.52 3.68v.544h-6.16c.08 1.888 1.072 2.976 2.736 2.976 1.264 0 2.08-.544 2.368-1.568h1.056c-.416 1.632-1.616 2.512-3.44 2.512m-.08-7.2c-1.456 0-2.416.96-2.608 2.48h5.024c0-1.488-.96-2.48-2.416-2.48m5.323 7.008h-1.296l2.768-3.872-2.752-3.872h1.296l2.192 3.104 2.176-3.104h1.28l-2.752 3.888 2.736 3.856h-1.312l-2.176-3.104zm7.521-9.872a.82.82 0 0 1-.816-.816c0-.448.368-.832.816-.832s.832.384.832.832a.833.833 0 0 1-.832.816m-.544 9.872v-7.744h1.104V358zm2.751-2.176h1.056c0 .896.672 1.456 1.76 1.456 1.2 0 1.904-.512 1.904-1.344 0-.64-.32-1.008-1.232-1.232l-1.328-.336c-1.344-.336-2-1.04-2-2.096 0-1.36 1.136-2.224 2.8-2.224 1.632 0 2.688.896 2.736 2.336h-1.072c-.032-.896-.656-1.424-1.696-1.424-1.088 0-1.696.464-1.696 1.296 0 .592.416 1.008 1.264 1.216l1.328.336c1.344.336 1.952.96 1.952 2.08 0 1.392-1.184 2.304-2.944 2.304-1.744 0-2.832-.928-2.832-2.368m9.369 2.176h-1.088v-6.816h-1.552v-.928h1.552v-2.448h1.088v2.448h1.552v.928h-1.552zm3.534-9.872a.82.82 0 0 1-.816-.816c0-.448.368-.832.816-.832s.832.384.832.832a.833.833 0 0 1-.832.816m-.544 9.872v-7.744h1.104V358zm4.51 0h-1.104v-7.744h.96l.16 1.344c.512-.992 1.536-1.552 2.656-1.552 2.128 0 3.008 1.264 3.008 3.216V358h-1.104v-4.496c0-1.808-.816-2.448-2.096-2.448-1.584 0-2.48 1.152-2.48 2.896zm7.352-4.096c0-2.112 1.36-3.856 3.632-3.856 1.344 0 2.368.624 2.864 1.76l.112-1.552h.96v7.504c0 2.304-1.472 3.808-3.744 3.808-1.984 0-3.376-1.12-3.68-2.992h1.104c.24 1.248 1.2 1.984 2.592 1.984 1.584 0 2.64-1.072 2.64-2.688v-1.84c-.528 1.088-1.6 1.728-2.928 1.728-2.208 0-3.552-1.744-3.552-3.856m1.104-.016c0 1.584.976 2.88 2.608 2.88 1.68 0 2.672-1.216 2.672-2.88 0-1.648-.96-2.864-2.656-2.864-1.664 0-2.624 1.296-2.624 2.864m12.662.24c0-2.368 1.664-4.08 3.936-4.08s3.936 1.712 3.936 4.08c0 2.352-1.664 4.064-3.936 4.064s-3.936-1.712-3.936-4.064m1.12-.016c0 1.824 1.152 3.088 2.816 3.088 1.648 0 2.816-1.264 2.816-3.088 0-1.792-1.168-3.072-2.816-3.072-1.664 0-2.816 1.28-2.816 3.072M261.24 358h-1.104v-7.744h.96l.16 1.344c.512-.992 1.536-1.552 2.656-1.552 2.128 0 3.008 1.264 3.008 3.216V358h-1.104v-4.496c0-1.808-.816-2.448-2.096-2.448-1.584 0-2.48 1.152-2.48 2.896zm11.129.192c-2.272 0-3.792-1.632-3.792-4.064 0-2.416 1.504-4.08 3.712-4.08 2.096 0 3.52 1.488 3.52 3.68v.544h-6.16c.08 1.888 1.072 2.976 2.736 2.976 1.264 0 2.08-.544 2.368-1.568h1.056c-.416 1.632-1.616 2.512-3.44 2.512m-.08-7.2c-1.456 0-2.416.96-2.608 2.48h5.024c0-1.488-.96-2.48-2.416-2.48"/><path stroke="#26292F" stroke-opacity=".15" d="M30.5 30v256M377 286.5H30"/><path fill="#FFD7F2" d="M113 97c0-8.284 6.716-15 15-15h21c8.284 0 15 6.716 15 15v189h-51z"/><mask id="a" width="51" height="204" x="113" y="82" maskUnits="userSpaceOnUse" style="mask-type:alpha"><path fill="#FFD7F2" d="M113 97c0-8.284 6.716-15 15-15h21c8.284 0 15 6.716 15 15v189h-51z"/></mask><g stroke="#26292F" stroke-opacity=".15" mask="url(#a)"><path d="m167.586 78.049-57.987 10.885M167.586 82.049l-57.987 10.885M167.586 86.049l-57.987 10.885M167.586 90.049l-57.987 10.885M167.586 94.049l-57.987 10.885M167.586 98.049l-57.987 10.885M167.586 102.049l-57.987 10.885M167.586 106.049l-57.987 10.885M167.586 110.049l-57.987 10.885M167.586 114.049l-57.987 10.885M167.586 118.049l-57.987 10.885M167.586 122.049l-57.987 10.885M167.586 126.049l-57.987 10.885M167.586 130.049l-57.987 10.885M167.586 134.049l-57.987 10.885M167.586 138.049l-57.987 10.885M167.586 142.049l-57.987 10.885M167.586 146.049l-57.987 10.885M167.586 150.049l-57.987 10.885M167.586 154.049l-57.987 10.885M167.586 158.049l-57.987 10.885M167.586 162.049l-57.987 10.885M167.586 166.049l-57.987 10.885M167.586 170.049l-57.987 10.885M167.586 174.049l-57.987 10.885M167.586 178.049l-57.987 10.885M167.586 182.049l-57.987 10.885M167.586 186.049l-57.987 10.885M167.586 190.049l-57.987 10.885M167.586 194.049l-57.987 10.885M167.586 198.049l-57.987 10.885M167.586 202.049l-57.987 10.885M167.586 206.049l-57.987 10.885M167.586 210.049l-57.987 10.885M167.586 214.049l-57.987 10.885M167.586 218.049l-57.987 10.885M167.586 222.049l-57.987 10.885M167.586 226.049l-57.987 10.885M167.586 230.049l-57.987 10.885M167.586 234.049l-57.987 10.885M167.586 238.049l-57.987 10.885M167.586 242.049l-57.987 10.885M167.586 246.049l-57.987 10.885M167.586 250.049l-57.987 10.885M167.586 254.049l-57.987 10.885M167.586 258.049l-57.987 10.885M167.586 262.049l-57.987 10.885M167.586 266.049l-57.987 10.885M167.586 270.049l-57.987 10.885M167.586 274.049l-57.987 10.885M167.586 278.049l-57.987 10.885M167.586 282.049l-57.987 10.885"/></g><path fill="#D7FFE9" d="M243 260c0-8.284 6.716-15 15-15h21c8.284 0 15 6.716 15 15v26h-51z"/><mask id="b" width="51" height="41" x="243" y="245" maskUnits="userSpaceOnUse" style="mask-type:alpha"><path fill="#FFD7F2" d="M243 260c0-8.284 6.716-15 15-15h21c8.284 0 15 6.716 15 15v26h-51z"/></mask><g stroke="#26292F" stroke-opacity=".15" mask="url(#b)"><path d="M0-.5h59.407" transform="matrix(-.9761 .21736 -.1563 -.98771 297.494 232.092)"/><path d="M0-.5h59.407" transform="matrix(-.9761 .21736 -.1563 -.98771 297.494 236.837)"/><path d="M0-.5h59.407" transform="matrix(-.9761 .21736 -.1563 -.98771 297.494 241.583)"/><path d="M0-.5h59.407" transform="matrix(-.9761 .21736 -.1563 -.98771 297.494 246.328)"/><path d="M0-.5h59.407" transform="matrix(-.9761 .21736 -.1563 -.98771 297.494 251.073)"/><path d="M0-.5h59.407" transform="matrix(-.9761 .21736 -.1563 -.98771 297.494 255.818)"/><path d="M0-.5h59.407" transform="matrix(-.9761 .21736 -.1563 -.98771 297.494 260.563)"/><path d="M0-.5h59.407" transform="matrix(-.9761 .21736 -.1563 -.98771 297.494 265.308)"/><path d="M0-.5h59.407" transform="matrix(-.9761 .21736 -.1563 -.98771 297.494 270.053)"/><path d="M0-.5h59.407" transform="matrix(-.9761 .21736 -.1563 -.98771 297.494 274.798)"/><path d="M0-.5h59.407" transform="matrix(-.9761 .21736 -.1563 -.98771 297.494 279.543)"/><path d="M0-.5h59.407" transform="matrix(-.9761 .21736 -.1563 -.98771 297.494 284.289)"/></g><path fill="#26292F" d="M99.47 50h-1.512v-8.772h1.524l4.116 6.216v-6.216h1.512V50h-1.512l-4.128-6.216zm10.018.156c-1.764 0-3-1.284-3-3.12 0-1.86 1.212-3.144 2.952-3.144 1.776 0 2.904 1.188 2.904 3.036v.444l-4.464.012c.108 1.044.66 1.572 1.632 1.572.804 0 1.332-.312 1.5-.876h1.356c-.252 1.296-1.332 2.076-2.88 2.076m-.036-5.064c-.864 0-1.392.468-1.536 1.356h2.976c0-.816-.564-1.356-1.44-1.356M114.566 50l-1.92-5.928h1.524l.78 2.544c.132.468.252.984.36 1.536.108-.576.216-.948.408-1.536l.816-2.544h1.488l.792 2.544c.072.24.312 1.128.384 1.524.096-.444.288-1.152.396-1.524l.792-2.544h1.548L119.882 50h-1.368l-.816-2.568c-.24-.78-.372-1.344-.42-1.644-.06.276-.168.696-.468 1.668L115.994 50zm15.413.144c-2.556 0-4.212-1.776-4.212-4.524 0-2.724 1.716-4.536 4.284-4.536 2.076 0 3.624 1.212 3.924 3.096h-1.62c-.3-1.02-1.176-1.62-2.34-1.62-1.62 0-2.64 1.176-2.64 3.048 0 1.86 1.032 3.06 2.64 3.06 1.188 0 2.1-.624 2.388-1.596h1.596c-.336 1.848-1.944 3.072-4.02 3.072m9.201-6.072h1.464V50h-1.356l-.108-.792c-.36.564-1.128.948-1.92.948-1.368 0-2.172-.924-2.172-2.376v-3.708h1.464v3.192c0 1.128.444 1.584 1.26 1.584.924 0 1.368-.54 1.368-1.668zm2.403 4.128h1.392c.012.516.396.84 1.068.84.684 0 1.056-.276 1.056-.708 0-.3-.156-.516-.684-.636l-1.068-.252c-1.068-.24-1.584-.744-1.584-1.692 0-1.164.984-1.86 2.352-1.86 1.332 0 2.232.768 2.244 1.92h-1.392c-.012-.504-.348-.828-.912-.828-.576 0-.912.264-.912.708 0 .336.264.552.768.672l1.068.252c.996.228 1.5.684 1.5 1.596 0 1.2-1.02 1.944-2.484 1.944-1.476 0-2.412-.792-2.412-1.956m8.027 1.8h-1.464v-4.704h-1.14v-1.224h1.14v-1.848h1.464v1.848h1.152v1.224h-1.152zm1.655-2.976c0-1.848 1.332-3.12 3.168-3.12s3.168 1.272 3.168 3.12-1.332 3.12-3.168 3.12-3.168-1.272-3.168-3.12m1.464 0c0 1.08.696 1.812 1.704 1.812s1.704-.732 1.704-1.812-.696-1.812-1.704-1.812-1.704.732-1.704 1.812M160.226 50h-1.464v-5.928h1.344l.12.696c.3-.492.9-.876 1.752-.876.9 0 1.524.444 1.836 1.128.3-.684.996-1.128 1.896-1.128 1.44 0 2.232.864 2.232 2.232V50h-1.452v-3.492c0-.852-.456-1.296-1.152-1.296-.708 0-1.248.456-1.248 1.428V50h-1.464v-3.504c0-.828-.444-1.272-1.14-1.272s-1.26.456-1.26 1.416zm11.805.156c-1.764 0-3-1.284-3-3.12 0-1.86 1.212-3.144 2.952-3.144 1.776 0 2.904 1.188 2.904 3.036v.444l-4.464.012c.108 1.044.66 1.572 1.632 1.572.804 0 1.332-.312 1.5-.876h1.356c-.252 1.296-1.332 2.076-2.88 2.076m-.036-5.064c-.864 0-1.392.468-1.536 1.356h2.976c0-.816-.564-1.356-1.44-1.356m7.784-1.044v1.356h-.54c-1.056 0-1.716.564-1.716 1.716V50h-1.464v-5.916h1.38l.084.864c.252-.588.816-.984 1.608-.984.204 0 .408.024.648.084M94.818 73h-1.596l3.168-8.772h1.572L101.13 73h-1.62l-.708-2.028h-3.276zm2.16-6.156-.996 2.832h2.376l-1.008-2.832c-.072-.228-.156-.492-.18-.672a6 6 0 0 1-.192.672m4.418 3.18c0-1.836 1.212-3.132 2.964-3.132 1.62 0 2.724.9 2.88 2.328h-1.464c-.168-.672-.66-1.02-1.356-1.02-.936 0-1.56.708-1.56 1.824s.576 1.812 1.512 1.812c.732 0 1.248-.36 1.404-1.008h1.476c-.18 1.38-1.332 2.328-2.88 2.328-1.8 0-2.976-1.248-2.976-3.132m6.598-.06c0-1.86 1.104-3.072 2.772-3.072.9 0 1.68.396 2.04 1.08l.096-.9h1.344v8.676h-1.452v-3.54c-.372.6-1.152.948-2.028.948-1.764 0-2.772-1.344-2.772-3.192m1.464.072c0 1.056.624 1.8 1.644 1.8s1.68-.732 1.68-1.8-.66-1.812-1.68-1.812-1.644.756-1.644 1.812m10.334-2.964h1.464V73H119.9l-.108-.792c-.36.564-1.128.948-1.92.948-1.368 0-2.172-.924-2.172-2.376v-3.708h1.464v3.192c0 1.128.444 1.584 1.26 1.584.924 0 1.368-.54 1.368-1.668zm3.708-1.188a.89.89 0 0 1-.9-.888c0-.492.396-.876.9-.876.48 0 .876.384.876.876a.884.884 0 0 1-.876.888M122.768 73v-5.928h1.464V73zm2.52-1.8h1.392c.012.516.396.84 1.068.84.684 0 1.056-.276 1.056-.708 0-.3-.156-.516-.684-.636l-1.068-.252c-1.068-.24-1.584-.744-1.584-1.692 0-1.164.984-1.86 2.352-1.86 1.332 0 2.232.768 2.244 1.92h-1.392c-.012-.504-.348-.828-.912-.828-.576 0-.912.264-.912.708 0 .336.264.552.768.672l1.068.252c.996.228 1.5.684 1.5 1.596 0 1.2-1.02 1.944-2.484 1.944-1.476 0-2.412-.792-2.412-1.956m6.743-5.316a.89.89 0 0 1-.9-.888c0-.492.396-.876.9-.876.48 0 .876.384.876.876a.884.884 0 0 1-.876.888M131.299 73v-5.928h1.464V73zm4.993 0h-1.464v-4.704h-1.14v-1.224h1.14v-1.848h1.464v1.848h1.152v1.224h-1.152zm2.794-7.116a.89.89 0 0 1-.9-.888c0-.492.396-.876.9-.876.48 0 .876.384.876.876a.884.884 0 0 1-.876.888M138.354 73v-5.928h1.464V73zm2.628-2.976c0-1.848 1.332-3.12 3.168-3.12s3.168 1.272 3.168 3.12-1.332 3.12-3.168 3.12-3.168-1.272-3.168-3.12m1.464 0c0 1.08.696 1.812 1.704 1.812s1.704-.732 1.704-1.812-.696-1.812-1.704-1.812-1.704.732-1.704 1.812M149.943 73h-1.464v-5.928h1.356l.12.768c.372-.6 1.092-.948 1.896-.948 1.488 0 2.256.924 2.256 2.46V73h-1.464v-3.3c0-.996-.492-1.476-1.248-1.476-.9 0-1.452.624-1.452 1.584zm12.76.144c-2.556 0-4.212-1.776-4.212-4.524 0-2.724 1.716-4.536 4.284-4.536 2.076 0 3.624 1.212 3.924 3.096h-1.62c-.3-1.02-1.176-1.62-2.34-1.62-1.62 0-2.64 1.176-2.64 3.048 0 1.86 1.032 3.06 2.64 3.06 1.188 0 2.1-.624 2.388-1.596h1.596c-.336 1.848-1.944 3.072-4.02 3.072m4.834-3.12c0-1.848 1.332-3.12 3.168-3.12s3.168 1.272 3.168 3.12-1.332 3.12-3.168 3.12-3.168-1.272-3.168-3.12m1.464 0c0 1.08.696 1.812 1.704 1.812s1.704-.732 1.704-1.812-.696-1.812-1.704-1.812-1.704.732-1.704 1.812m5.576 1.176h1.392c.012.516.396.84 1.068.84.684 0 1.056-.276 1.056-.708 0-.3-.156-.516-.684-.636l-1.068-.252c-1.068-.24-1.584-.744-1.584-1.692 0-1.164.984-1.86 2.352-1.86 1.332 0 2.232.768 2.244 1.92h-1.392c-.012-.504-.348-.828-.912-.828-.576 0-.912.264-.912.708 0 .336.264.552.768.672l1.068.252c.996.228 1.5.684 1.5 1.596 0 1.2-1.02 1.944-2.484 1.944-1.476 0-2.412-.792-2.412-1.956m8.027 1.8h-1.464v-4.704H180v-1.224h1.14v-1.848h1.464v1.848h1.152v1.224h-1.152zM221.524 215h-5.448v-8.772h5.448v1.416h-3.912v2.256h3.504v1.356h-3.504v2.328h3.912zm2.481 0h-1.668l2.04-2.904-2.04-3.024h1.704l1.308 2.016 1.26-2.016h1.644l-2.016 3 1.956 2.928h-1.68l-1.26-1.956zm5.852-7.116a.89.89 0 0 1-.9-.888c0-.492.396-.876.9-.876.48 0 .876.384.876.876a.884.884 0 0 1-.876.888m-.732 7.116v-5.928h1.464V215zm2.521-1.8h1.392c.012.516.396.84 1.068.84.684 0 1.056-.276 1.056-.708 0-.3-.156-.516-.684-.636l-1.068-.252c-1.068-.24-1.584-.744-1.584-1.692 0-1.164.984-1.86 2.352-1.86 1.332 0 2.232.768 2.244 1.92h-1.392c-.012-.504-.348-.828-.912-.828-.576 0-.912.264-.912.708 0 .336.264.552.768.672l1.068.252c.996.228 1.5.684 1.5 1.596 0 1.2-1.02 1.944-2.484 1.944-1.476 0-2.412-.792-2.412-1.956m8.026 1.8h-1.464v-4.704h-1.14v-1.224h1.14v-1.848h1.464v1.848h1.152v1.224h-1.152zm2.795-7.116a.89.89 0 0 1-.9-.888c0-.492.396-.876.9-.876.48 0 .876.384.876.876a.884.884 0 0 1-.876.888m-.732 7.116v-5.928h1.464V215zm4.44 0h-1.464v-5.928h1.356l.12.768c.372-.6 1.092-.948 1.896-.948 1.488 0 2.256.924 2.256 2.46V215h-1.464v-3.3c0-.996-.492-1.476-1.248-1.476-.9 0-1.452.624-1.452 1.584zm5.266-3.096c0-1.728 1.128-3.024 2.82-3.024.888 0 1.584.372 1.932 1.008l.084-.816h1.356v5.628c0 1.98-1.188 3.216-3.108 3.216-1.704 0-2.868-.972-3.048-2.556h1.464c.096.768.684 1.224 1.584 1.224 1.008 0 1.656-.636 1.656-1.62v-.984c-.372.552-1.104.9-1.956.9-1.68 0-2.784-1.26-2.784-2.976m1.476-.036c0 .996.636 1.74 1.596 1.74 1.008 0 1.632-.708 1.632-1.74 0-1.008-.612-1.704-1.632-1.704-.972 0-1.596.732-1.596 1.704m13.39 3.276c-2.556 0-4.212-1.776-4.212-4.524 0-2.724 1.716-4.536 4.284-4.536 2.076 0 3.624 1.212 3.924 3.096h-1.62c-.3-1.02-1.176-1.62-2.34-1.62-1.62 0-2.64 1.176-2.64 3.048 0 1.86 1.032 3.06 2.64 3.06 1.188 0 2.1-.624 2.388-1.596h1.596c-.336 1.848-1.944 3.072-4.02 3.072m9.201-6.072h1.464V215h-1.356l-.108-.792c-.36.564-1.128.948-1.92.948-1.368 0-2.172-.924-2.172-2.376v-3.708h1.464v3.192c0 1.128.444 1.584 1.26 1.584.924 0 1.368-.54 1.368-1.668zm2.403 4.128h1.392c.012.516.396.84 1.068.84.684 0 1.056-.276 1.056-.708 0-.3-.156-.516-.684-.636l-1.068-.252c-1.068-.24-1.584-.744-1.584-1.692 0-1.164.984-1.86 2.352-1.86 1.332 0 2.232.768 2.244 1.92h-1.392c-.012-.504-.348-.828-.912-.828-.576 0-.912.264-.912.708 0 .336.264.552.768.672l1.068.252c.996.228 1.5.684 1.5 1.596 0 1.2-1.02 1.944-2.484 1.944-1.476 0-2.412-.792-2.412-1.956m8.027 1.8h-1.464v-4.704h-1.14v-1.224h1.14v-1.848h1.464v1.848h1.152v1.224h-1.152zm1.656-2.976c0-1.848 1.332-3.12 3.168-3.12s3.168 1.272 3.168 3.12-1.332 3.12-3.168 3.12-3.168-1.272-3.168-3.12m1.464 0c0 1.08.696 1.812 1.704 1.812s1.704-.732 1.704-1.812-.696-1.812-1.704-1.812-1.704.732-1.704 1.812m7.496 2.976h-1.464v-5.928h1.344l.12.696c.3-.492.9-.876 1.752-.876.9 0 1.524.444 1.836 1.128.3-.684.996-1.128 1.896-1.128 1.44 0 2.232.864 2.232 2.232V215h-1.452v-3.492c0-.852-.456-1.296-1.152-1.296-.708 0-1.248.456-1.248 1.428V215h-1.464v-3.504c0-.828-.444-1.272-1.14-1.272s-1.26.456-1.26 1.416zm11.805.156c-1.764 0-3-1.284-3-3.12 0-1.86 1.212-3.144 2.952-3.144 1.776 0 2.904 1.188 2.904 3.036v.444l-4.464.012c.108 1.044.66 1.572 1.632 1.572.804 0 1.332-.312 1.5-.876h1.356c-.252 1.296-1.332 2.076-2.88 2.076m-.036-5.064c-.864 0-1.392.468-1.536 1.356h2.976c0-.816-.564-1.356-1.44-1.356m7.784-1.044v1.356h-.54c-1.056 0-1.716.564-1.716 1.716V215h-1.464v-5.916h1.38l.084.864c.252-.588.816-.984 1.608-.984.204 0 .408.024.648.084m.535 4.152h1.392c.012.516.396.84 1.068.84.684 0 1.056-.276 1.056-.708 0-.3-.156-.516-.684-.636l-1.068-.252c-1.068-.24-1.584-.744-1.584-1.692 0-1.164.984-1.86 2.352-1.86 1.332 0 2.232.768 2.244 1.92h-1.392c-.012-.504-.348-.828-.912-.828-.576 0-.912.264-.912.708 0 .336.264.552.768.672l1.068.252c.996.228 1.5.684 1.5 1.596 0 1.2-1.02 1.944-2.484 1.944-1.476 0-2.412-.792-2.412-1.956M229.811 238h-1.536v-8.772h3.348c1.992 0 3.156 1.008 3.156 2.736 0 1.176-.552 2.016-1.584 2.436l1.668 3.6h-1.68l-1.488-3.276h-1.884zm0-7.404v2.772h1.812c.972 0 1.548-.516 1.548-1.404 0-.876-.576-1.368-1.548-1.368zm8.517 7.56c-1.764 0-3-1.284-3-3.12 0-1.86 1.212-3.144 2.952-3.144 1.776 0 2.904 1.188 2.904 3.036v.444l-4.464.012c.108 1.044.66 1.572 1.632 1.572.804 0 1.332-.312 1.5-.876h1.356c-.252 1.296-1.332 2.076-2.88 2.076m-.036-5.064c-.864 0-1.392.468-1.536 1.356h2.976c0-.816-.564-1.356-1.44-1.356m6.021 4.908h-1.464v-4.704h-1.14v-1.224h1.14v-1.848h1.464v1.848h1.152v1.224h-1.152zm4.656.156c-1.764 0-3-1.284-3-3.12 0-1.86 1.212-3.144 2.952-3.144 1.776 0 2.904 1.188 2.904 3.036v.444l-4.464.012c.108 1.044.66 1.572 1.632 1.572.804 0 1.332-.312 1.5-.876h1.356c-.252 1.296-1.332 2.076-2.88 2.076m-.036-5.064c-.864 0-1.392.468-1.536 1.356h2.976c0-.816-.564-1.356-1.44-1.356M254.46 238h-1.464v-5.928h1.356l.12.768c.372-.6 1.092-.948 1.896-.948 1.488 0 2.256.924 2.256 2.46V238h-1.464v-3.3c0-.996-.492-1.476-1.248-1.476-.9 0-1.452.624-1.452 1.584zm7.619 0h-1.464v-4.704h-1.14v-1.224h1.14v-1.848h1.464v1.848h1.152v1.224h-1.152zm2.794-7.116a.89.89 0 0 1-.9-.888c0-.492.396-.876.9-.876.48 0 .876.384.876.876a.884.884 0 0 1-.876.888m-.732 7.116v-5.928h1.464V238zm2.628-2.976c0-1.848 1.332-3.12 3.168-3.12s3.168 1.272 3.168 3.12-1.332 3.12-3.168 3.12-3.168-1.272-3.168-3.12m1.464 0c0 1.08.696 1.812 1.704 1.812s1.704-.732 1.704-1.812-.696-1.812-1.704-1.812-1.704.732-1.704 1.812M275.73 238h-1.464v-5.928h1.356l.12.768c.372-.6 1.092-.948 1.896-.948 1.488 0 2.256.924 2.256 2.46V238h-1.464v-3.3c0-.996-.492-1.476-1.248-1.476-.9 0-1.452.624-1.452 1.584zm12.761.144c-2.556 0-4.212-1.776-4.212-4.524 0-2.724 1.716-4.536 4.284-4.536 2.076 0 3.624 1.212 3.924 3.096h-1.62c-.3-1.02-1.176-1.62-2.34-1.62-1.62 0-2.64 1.176-2.64 3.048 0 1.86 1.032 3.06 2.64 3.06 1.188 0 2.1-.624 2.388-1.596h1.596c-.336 1.848-1.944 3.072-4.02 3.072m4.833-3.12c0-1.848 1.332-3.12 3.168-3.12s3.168 1.272 3.168 3.12-1.332 3.12-3.168 3.12-3.168-1.272-3.168-3.12m1.464 0c0 1.08.696 1.812 1.704 1.812s1.704-.732 1.704-1.812-.696-1.812-1.704-1.812-1.704.732-1.704 1.812m5.576 1.176h1.392c.012.516.396.84 1.068.84.684 0 1.056-.276 1.056-.708 0-.3-.156-.516-.684-.636l-1.068-.252c-1.068-.24-1.584-.744-1.584-1.692 0-1.164.984-1.86 2.352-1.86 1.332 0 2.232.768 2.244 1.92h-1.392c-.012-.504-.348-.828-.912-.828-.576 0-.912.264-.912.708 0 .336.264.552.768.672l1.068.252c.996.228 1.5.684 1.5 1.596 0 1.2-1.02 1.944-2.484 1.944-1.476 0-2.412-.792-2.412-1.956m8.027 1.8h-1.464v-4.704h-1.14v-1.224h1.14v-1.848h1.464v1.848h1.152v1.224h-1.152z"/></svg>