<svg xmlns="http://www.w3.org/2000/svg" width="407" height="394" fill="none"><rect width="407" height="394" fill="#fff" rx="30"/><rect width="406" height="393" x=".5" y=".5" stroke="#26292F" stroke-opacity=".15" rx="29.5"/><path fill="#26292F" d="M32.544 322.544V334h-1.152v-11.456zM36.194 334h-1.105v-7.744h.96l.16 1.344c.512-.992 1.536-1.552 2.656-1.552 2.128 0 3.008 1.264 3.008 3.216V334H40.77v-4.496c0-1.808-.817-2.448-2.097-2.448-1.584 0-2.48 1.152-2.48 2.896zm7.336-3.856c0-2.432 1.488-4.096 3.744-4.096 1.792 0 3.104 1.04 3.408 2.64h-1.104c-.288-1.072-1.216-1.664-2.288-1.664-1.568 0-2.672 1.2-2.672 3.104 0 1.84 1.024 3.072 2.592 3.072 1.152 0 2.08-.64 2.384-1.632h1.12c-.368 1.584-1.744 2.624-3.504 2.624-2.192 0-3.68-1.616-3.68-4.048m12.904-3.984v.992h-.608c-1.424 0-2.336.96-2.336 2.432V334h-1.104v-7.744h1.04l.08 1.2c.304-.832 1.12-1.376 2.208-1.376.24 0 .448.016.72.08m4.42 8.032c-2.273 0-3.793-1.632-3.793-4.064 0-2.416 1.504-4.08 3.712-4.08 2.096 0 3.52 1.488 3.52 3.68v.544h-6.16c.08 1.888 1.072 2.976 2.736 2.976 1.264 0 2.08-.544 2.368-1.568h1.056c-.416 1.632-1.616 2.512-3.44 2.512m-.08-7.2c-1.457 0-2.417.96-2.609 2.48h5.024c0-1.488-.96-2.48-2.416-2.48m7.43 7.2c-1.648 0-2.624-.928-2.624-2.288 0-1.424 1.088-2.32 2.896-2.464l2.56-.208v-.256c0-1.52-.912-2-2.048-2-1.344 0-2.144.608-2.144 1.648h-1.008c0-1.568 1.28-2.576 3.184-2.576 1.792 0 3.104.896 3.104 2.944V334h-.928l-.144-1.36c-.48.976-1.536 1.552-2.848 1.552m.256-.896c1.632 0 2.576-1.136 2.576-2.816v-.416l-2.288.176c-1.456.128-2.048.768-2.048 1.632 0 .944.704 1.424 1.76 1.424m5.224-1.472h1.056c0 .896.672 1.456 1.76 1.456 1.2 0 1.903-.512 1.903-1.344 0-.64-.32-1.008-1.232-1.232l-1.328-.336c-1.344-.336-2-1.04-2-2.096 0-1.36 1.136-2.224 2.8-2.224 1.632 0 2.689.896 2.736 2.336h-1.072c-.032-.896-.656-1.424-1.695-1.424-1.088 0-1.697.464-1.697 1.296 0 .592.416 1.008 1.264 1.216l1.328.336c1.344.336 1.953.96 1.953 2.08 0 1.392-1.184 2.304-2.944 2.304-1.745 0-2.833-.928-2.833-2.368m8.137-7.696a.82.82 0 0 1-.816-.816c0-.448.368-.832.816-.832s.832.384.832.832a.833.833 0 0 1-.832.816M81.277 334v-7.744h1.104V334zm4.51 0h-1.104v-7.744h.96l.16 1.344c.512-.992 1.536-1.552 2.656-1.552 2.128 0 3.008 1.264 3.008 3.216V334h-1.104v-4.496c0-1.808-.816-2.448-2.096-2.448-1.584 0-2.48 1.152-2.48 2.896zm7.353-4.096c0-2.112 1.36-3.856 3.632-3.856 1.344 0 2.368.624 2.864 1.76l.112-1.552h.96v7.504c0 2.304-1.472 3.808-3.744 3.808-1.984 0-3.376-1.12-3.68-2.992h1.104c.24 1.248 1.2 1.984 2.592 1.984 1.584 0 2.64-1.072 2.64-2.688v-1.84c-.528 1.088-1.6 1.728-2.928 1.728-2.208 0-3.552-1.744-3.552-3.856m1.104-.016c0 1.584.976 2.88 2.608 2.88 1.68 0 2.672-1.216 2.672-2.88 0-1.648-.96-2.864-2.656-2.864-1.664 0-2.624 1.296-2.624 2.864m12.661.256c0-2.432 1.488-4.096 3.744-4.096 1.792 0 3.104 1.04 3.408 2.64h-1.104c-.288-1.072-1.216-1.664-2.288-1.664-1.568 0-2.672 1.2-2.672 3.104 0 1.84 1.024 3.072 2.592 3.072 1.152 0 2.08-.64 2.384-1.632h1.12c-.368 1.584-1.744 2.624-3.504 2.624-2.192 0-3.68-1.616-3.68-4.048m14.296-3.888h1.104V334h-.96l-.144-1.312c-.432.896-1.504 1.504-2.72 1.504-1.824 0-2.816-1.248-2.816-3.136v-4.816h1.12v4.464c0 1.84.816 2.496 2.048 2.496 1.488 0 2.368-.992 2.368-2.832zm2.592 5.568h1.056c0 .896.672 1.456 1.76 1.456 1.2 0 1.904-.512 1.904-1.344 0-.64-.32-1.008-1.232-1.232l-1.328-.336c-1.344-.336-2-1.04-2-2.096 0-1.36 1.136-2.224 2.8-2.224 1.632 0 2.688.896 2.736 2.336h-1.072c-.032-.896-.656-1.424-1.696-1.424-1.088 0-1.696.464-1.696 1.296 0 .592.416 1.008 1.264 1.216l1.328.336c1.344.336 1.952.96 1.952 2.08 0 1.392-1.184 2.304-2.944 2.304-1.744 0-2.832-.928-2.832-2.368m9.369 2.176h-1.088v-6.816h-1.552v-.928h1.552v-2.448h1.088v2.448h1.552v.928h-1.552zm2.368-3.872c0-2.368 1.664-4.08 3.936-4.08s3.936 1.712 3.936 4.08c0 2.352-1.664 4.064-3.936 4.064s-3.936-1.712-3.936-4.064m1.12-.016c0 1.824 1.152 3.088 2.816 3.088 1.648 0 2.816-1.264 2.816-3.088 0-1.792-1.168-3.072-2.816-3.072-1.664 0-2.816 1.28-2.816 3.072m9.622 3.888h-1.104v-7.744h.96l.128 1.104c.384-.816 1.248-1.312 2.336-1.312 1.216 0 2.128.64 2.496 1.648.352-1.008 1.296-1.648 2.544-1.648 1.68 0 2.784 1.088 2.784 2.88V334h-1.072v-4.848c0-1.328-.736-2.112-1.92-2.112-1.296 0-2.064.976-2.064 2.176V334h-1.088v-4.864c0-1.312-.752-2.08-1.92-2.08-1.296 0-2.08.96-2.08 2.144zm15.612.192c-2.272 0-3.792-1.632-3.792-4.064 0-2.416 1.504-4.08 3.712-4.08 2.096 0 3.52 1.488 3.52 3.68v.544h-6.16c.08 1.888 1.072 2.976 2.736 2.976 1.264 0 2.08-.544 2.368-1.568h1.056c-.416 1.632-1.616 2.512-3.44 2.512m-.08-7.2c-1.456 0-2.416.96-2.608 2.48h5.024c0-1.488-.96-2.48-2.416-2.48m9.334-.832v.992h-.608c-1.424 0-2.336.96-2.336 2.432V334h-1.104v-7.744h1.04l.08 1.2c.304-.832 1.12-1.376 2.208-1.376.24 0 .448.016.72.08m9.953 0v.992h-.608c-1.424 0-2.336.96-2.336 2.432V334h-1.104v-7.744h1.04l.08 1.2c.304-.832 1.12-1.376 2.208-1.376.24 0 .448.016.72.08m4.418 8.032c-2.272 0-3.792-1.632-3.792-4.064 0-2.416 1.504-4.08 3.712-4.08 2.096 0 3.52 1.488 3.52 3.68v.544h-6.16c.08 1.888 1.072 2.976 2.736 2.976 1.264 0 2.08-.544 2.368-1.568h1.056c-.416 1.632-1.616 2.512-3.44 2.512m-.08-7.2c-1.456 0-2.416.96-2.608 2.48h5.024c0-1.488-.96-2.48-2.416-2.48m6.983 7.008h-1.088v-6.816h-1.552v-.928h1.552v-2.448h1.088v2.448h1.552v.928h-1.552zm6.16.192c-2.272 0-3.792-1.632-3.792-4.064 0-2.416 1.504-4.08 3.712-4.08 2.096 0 3.52 1.488 3.52 3.68v.544h-6.16c.08 1.888 1.072 2.976 2.736 2.976 1.264 0 2.08-.544 2.368-1.568h1.056c-.416 1.632-1.616 2.512-3.44 2.512m-.08-7.2c-1.456 0-2.416.96-2.608 2.48h5.024c0-1.488-.96-2.48-2.416-2.48m6.389 7.008h-1.104v-7.744h.96l.16 1.344c.512-.992 1.536-1.552 2.656-1.552 2.128 0 3.008 1.264 3.008 3.216V334h-1.104v-4.496c0-1.808-.816-2.448-2.096-2.448-1.584 0-2.48 1.152-2.48 2.896zm9.656 0h-1.088v-6.816h-1.552v-.928h1.552v-2.448h1.088v2.448h1.552v.928h-1.552zm3.534-9.872a.82.82 0 0 1-.816-.816c0-.448.368-.832.816-.832s.832.384.832.832a.833.833 0 0 1-.832.816m-.544 9.872v-7.744h1.104V334zm2.862-3.872c0-2.368 1.664-4.08 3.936-4.08s3.936 1.712 3.936 4.08c0 2.352-1.664 4.064-3.936 4.064s-3.936-1.712-3.936-4.064m1.12-.016c0 1.824 1.152 3.088 2.816 3.088 1.648 0 2.816-1.264 2.816-3.088 0-1.792-1.168-3.072-2.816-3.072-1.664 0-2.816 1.28-2.816 3.072m9.622 3.888h-1.104v-7.744h.96l.16 1.344c.512-.992 1.536-1.552 2.656-1.552 2.128 0 3.008 1.264 3.008 3.216V334h-1.104v-4.496c0-1.808-.816-2.448-2.096-2.448-1.584 0-2.48 1.152-2.48 2.896zm13.278 0h-.96v-11.664h1.104v5.424c.544-1.136 1.6-1.712 2.912-1.712 2.256 0 3.568 1.76 3.568 4.096 0 2.32-1.344 4.048-3.6 4.048-1.296 0-2.368-.576-2.912-1.776zm.16-3.888c0 1.792.992 3.072 2.688 3.072 1.68 0 2.656-1.28 2.656-3.072 0-1.776-.976-3.072-2.656-3.072-1.696 0-2.688 1.296-2.688 3.072m7.19 7.264v-.912h.848c.672 0 1.344-.048 1.728-1.088l.336-.912-3.136-8.208h1.168l2.496 6.752 2.448-6.752h1.136l-3.552 9.52c-.448 1.216-1.2 1.712-2.304 1.712-.464 0-.816-.032-1.168-.112m13.312-13.248a.823.823 0 0 1-.832-.816c0-.448.368-.832.832-.832.432 0 .816.384.816.832a.83.83 0 0 1-.816.816m-2.624 13.264.208-1.008c.32.08.512.112.752.112.768 0 1.104-.448 1.104-1.392v-8.848h1.104v8.912c0 1.472-.768 2.368-2.128 2.368-.416 0-.64-.032-1.04-.144m10.911-11.136h1.104V334h-.96l-.144-1.312c-.432.896-1.504 1.504-2.72 1.504-1.824 0-2.816-1.248-2.816-3.136v-4.816h1.12v4.464c0 1.84.816 2.496 2.048 2.496 1.488 0 2.368-.992 2.368-2.832zm2.591 5.568h1.056c0 .896.672 1.456 1.76 1.456 1.2 0 1.904-.512 1.904-1.344 0-.64-.32-1.008-1.232-1.232l-1.328-.336c-1.344-.336-2-1.04-2-2.096 0-1.36 1.136-2.224 2.8-2.224 1.632 0 2.688.896 2.736 2.336h-1.072c-.032-.896-.656-1.424-1.696-1.424-1.088 0-1.696.464-1.696 1.296 0 .592.416 1.008 1.264 1.216l1.328.336c1.344.336 1.952.96 1.952 2.08 0 1.392-1.184 2.304-2.944 2.304-1.744 0-2.832-.928-2.832-2.368m9.37 2.176h-1.088v-6.816h-1.552v-.928h1.552v-2.448h1.088v2.448h1.552v.928h-1.552zm10.915.192c-2.304 0-3.776-1.44-3.776-3.696h1.152c0 1.648 1.008 2.64 2.64 2.64 1.728 0 2.848-1.152 2.848-2.848 0-1.6-1.04-2.864-2.848-2.864-1.056 0-2.016.48-2.64 1.168l-.912-.288 1.376-5.76h5.536v1.056h-4.704l-.864 3.6c.64-.512 1.472-.8 2.368-.8 2.384 0 3.856 1.712 3.856 3.856 0 2.304-1.632 3.936-4.032 3.936m11.072-9.024c0 1.648-1.168 2.832-2.8 2.832s-2.816-1.184-2.816-2.832 1.184-2.848 2.816-2.848 2.8 1.2 2.8 2.848m5.808-2.624L304.41 334h-1.152l8.688-11.456zm-6.768 2.624c0-1.136-.752-1.92-1.84-1.92-1.104 0-1.856.784-1.856 1.92 0 1.12.768 1.92 1.856 1.92 1.072 0 1.84-.8 1.84-1.92m8.352 6.208c0 1.648-1.168 2.832-2.8 2.832s-2.816-1.184-2.816-2.832 1.184-2.848 2.816-2.848 2.8 1.2 2.8 2.848m-.96 0c0-1.136-.752-1.92-1.84-1.92-1.104 0-1.856.784-1.856 1.92 0 1.12.768 1.904 1.856 1.904 1.072 0 1.84-.784 1.84-1.904m-283.13 22.768c0-2.432 1.488-4.096 3.744-4.096 1.792 0 3.104 1.04 3.408 2.64h-1.104c-.288-1.072-1.216-1.664-2.288-1.664-1.568 0-2.672 1.2-2.672 3.104 0 1.84 1.024 3.072 2.592 3.072 1.152 0 2.08-.64 2.384-1.632h1.12c-.368 1.584-1.744 2.624-3.504 2.624-2.192 0-3.68-1.616-3.68-4.048m11.08 4.048c-1.648 0-2.623-.928-2.623-2.288 0-1.424 1.088-2.32 2.896-2.464l2.56-.208v-.256c0-1.52-.913-2-2.049-2-1.343 0-2.144.608-2.144 1.648H39.32c0-1.568 1.28-2.576 3.185-2.576 1.791 0 3.103.896 3.103 2.944V358h-.927l-.145-1.36c-.48.976-1.535 1.552-2.848 1.552m.256-.896c1.633 0 2.576-1.136 2.576-2.816v-.416l-2.288.176c-1.456.128-2.047.768-2.047 1.632 0 .944.703 1.424 1.76 1.424m6.984.704h-1.104v-7.744h.96l.16 1.344c.512-.992 1.536-1.552 2.656-1.552 2.128 0 3.008 1.264 3.008 3.216V358h-1.104v-4.496c0-1.808-.816-2.448-2.096-2.448-1.584 0-2.48 1.152-2.48 2.896zm13.278 0h-.96v-11.664h1.104v5.424c.544-1.136 1.6-1.712 2.912-1.712 2.256 0 3.568 1.76 3.568 4.096 0 2.32-1.344 4.048-3.6 4.048-1.296 0-2.368-.576-2.912-1.776zm.16-3.888c0 1.792.992 3.072 2.688 3.072 1.68 0 2.656-1.28 2.656-3.072 0-1.776-.976-3.072-2.656-3.072-1.696 0-2.688 1.296-2.688 3.072m7.68.016c0-2.368 1.663-4.08 3.935-4.08s3.937 1.712 3.937 4.08c0 2.352-1.665 4.064-3.937 4.064s-3.935-1.712-3.935-4.064m1.12-.016c0 1.824 1.151 3.088 2.816 3.088 1.647 0 2.816-1.264 2.816-3.088 0-1.792-1.169-3.072-2.817-3.072-1.663 0-2.815 1.28-2.815 3.072m7.973.016c0-2.368 1.664-4.08 3.936-4.08s3.936 1.712 3.936 4.08c0 2.352-1.664 4.064-3.936 4.064s-3.936-1.712-3.936-4.064m1.12-.016c0 1.824 1.152 3.088 2.816 3.088 1.648 0 2.816-1.264 2.816-3.088 0-1.792-1.168-3.072-2.816-3.072-1.664 0-2.816 1.28-2.816 3.072m7.862 1.712h1.056c0 .896.672 1.456 1.76 1.456 1.2 0 1.904-.512 1.904-1.344 0-.64-.32-1.008-1.232-1.232l-1.328-.336c-1.344-.336-2-1.04-2-2.096 0-1.36 1.136-2.224 2.8-2.224 1.632 0 2.688.896 2.736 2.336h-1.072c-.032-.896-.656-1.424-1.696-1.424-1.088 0-1.696.464-1.696 1.296 0 .592.416 1.008 1.264 1.216l1.328.336c1.344.336 1.952.96 1.952 2.08 0 1.392-1.184 2.304-2.944 2.304-1.744 0-2.832-.928-2.832-2.368m9.37 2.176h-1.088v-6.816H94.85v-.928h1.553v-2.448h1.087v2.448h1.553v.928H97.49zm7.427 3.376v-11.12h.96l.112 1.568c.544-1.2 1.632-1.776 2.928-1.776 2.24 0 3.584 1.712 3.584 4.048s-1.296 4.096-3.584 4.096c-1.312 0-2.352-.56-2.896-1.68v4.864zm1.12-7.248c0 1.776.992 3.072 2.688 3.072 1.68 0 2.656-1.296 2.656-3.072 0-1.792-.976-3.072-2.656-3.072-1.696 0-2.688 1.28-2.688 3.072m12.271-3.968v.992h-.608c-1.424 0-2.336.96-2.336 2.432V358h-1.104v-7.744h1.04l.08 1.2c.304-.832 1.12-1.376 2.208-1.376.24 0 .448.016.72.08m.627 3.968c0-2.368 1.664-4.08 3.936-4.08s3.936 1.712 3.936 4.08c0 2.352-1.664 4.064-3.936 4.064s-3.936-1.712-3.936-4.064m1.12-.016c0 1.824 1.152 3.088 2.816 3.088 1.648 0 2.816-1.264 2.816-3.088 0-1.792-1.168-3.072-2.816-3.072-1.664 0-2.816 1.28-2.816 3.072M133.615 358v-6.816h-3.68V358h-1.104v-6.816h-1.184v-.928h1.184v-1.504c0-1.744.944-2.416 2.096-2.416.272 0 .608.016.864.064v.96h-.672c-.928 0-1.184.48-1.184 1.392v1.504h4.784V358zm.544-9.952a.74.74 0 0 1-.768-.768c0-.448.32-.784.768-.784.432 0 .768.336.768.784a.75.75 0 0 1-.768.768m4.597 9.952h-1.088v-6.816h-1.552v-.928h1.552v-2.448h1.088v2.448h1.552v.928h-1.552zm2.334-2.176h1.056c0 .896.672 1.456 1.76 1.456 1.2 0 1.904-.512 1.904-1.344 0-.64-.32-1.008-1.232-1.232l-1.328-.336c-1.344-.336-2-1.04-2-2.096 0-1.36 1.136-2.224 2.8-2.224 1.632 0 2.688.896 2.736 2.336h-1.072c-.032-.896-.656-1.424-1.696-1.424-1.088 0-1.696.464-1.696 1.296 0 .592.416 1.008 1.264 1.216l1.328.336c1.344.336 1.952.96 1.952 2.08 0 1.392-1.184 2.304-2.944 2.304-1.744 0-2.832-.928-2.832-2.368M154.081 358h-.96v-11.664h1.104v5.424c.544-1.136 1.6-1.712 2.912-1.712 2.256 0 3.568 1.76 3.568 4.096 0 2.32-1.344 4.048-3.6 4.048-1.296 0-2.368-.576-2.912-1.776zm.16-3.888c0 1.792.992 3.072 2.688 3.072 1.68 0 2.656-1.28 2.656-3.072 0-1.776-.976-3.072-2.656-3.072-1.696 0-2.688 1.296-2.688 3.072m7.19 7.264v-.912h.848c.672 0 1.344-.048 1.728-1.088l.336-.912-3.136-8.208h1.168l2.496 6.752 2.448-6.752h1.136l-3.552 9.52c-.448 1.216-1.2 1.712-2.304 1.712-.464 0-.816-.032-1.168-.112M181.303 358h-7.552v-.912l3.664-3.2c2.112-1.84 2.656-2.64 2.656-4 0-1.552-.928-2.496-2.448-2.496-1.584 0-2.624 1.152-2.672 2.928h-1.152c.064-2.4 1.584-3.984 3.84-3.984 2.16 0 3.6 1.392 3.6 3.488 0 1.664-.752 2.768-3.04 4.768l-2.672 2.336h5.776zm5.259.192c-2.304 0-3.776-1.44-3.776-3.696h1.152c0 1.648 1.008 2.64 2.64 2.64 1.728 0 2.848-1.152 2.848-2.848 0-1.6-1.04-2.864-2.848-2.864-1.056 0-2.016.48-2.64 1.168l-.912-.288 1.376-5.76h5.536v1.056h-4.704l-.864 3.6c.64-.512 1.472-.8 2.368-.8 2.384 0 3.856 1.712 3.856 3.856 0 2.304-1.632 3.936-4.032 3.936m5.712-3.904v-.992h4.64v.992zm13.073-.16L202.483 358h-1.344l3.008-4a3.1 3.1 0 0 1-1.568.384c-2.384 0-3.968-1.744-3.968-3.984 0-2.336 1.776-4.064 4.064-4.064 2.304 0 4.112 1.776 4.112 4.08 0 1.328-.352 2.256-1.44 3.712m.288-3.728c0-1.744-1.216-3.008-2.96-3.008-1.696 0-2.912 1.264-2.912 3.008 0 1.728 1.216 2.976 2.912 2.976 1.744 0 2.96-1.248 2.96-2.976m6.489 7.792c-2.304 0-3.776-1.44-3.776-3.696h1.152c0 1.648 1.008 2.64 2.64 2.64 1.728 0 2.848-1.152 2.848-2.848 0-1.6-1.04-2.864-2.848-2.864-1.056 0-2.016.48-2.64 1.168l-.912-.288 1.376-5.76h5.536v1.056h-4.704l-.864 3.6c.64-.512 1.472-.8 2.368-.8 2.384 0 3.856 1.712 3.856 3.856 0 2.304-1.632 3.936-4.032 3.936m11.073-9.024c0 1.648-1.168 2.832-2.8 2.832s-2.816-1.184-2.816-2.832 1.184-2.848 2.816-2.848 2.8 1.2 2.8 2.848m5.808-2.624L220.301 358h-1.152l8.688-11.456zm-6.768 2.624c0-1.136-.752-1.92-1.84-1.92-1.104 0-1.856.784-1.856 1.92 0 1.12.768 1.92 1.856 1.92 1.072 0 1.84-.8 1.84-1.92m8.352 6.208c0 1.648-1.168 2.832-2.8 2.832s-2.816-1.184-2.816-2.832 1.184-2.848 2.816-2.848 2.8 1.2 2.8 2.848m-.96 0c0-1.136-.752-1.92-1.84-1.92-1.104 0-1.856.784-1.856 1.92 0 1.12.768 1.904 1.856 1.904 1.072 0 1.84-.784 1.84-1.904"/><circle cx="205" cy="153" r="50" fill="#fff"/><circle cx="205" cy="153" r="49.048" stroke="#26292F" stroke-opacity=".15" stroke-width="1.905"/><path stroke="#26292F" stroke-width="30" d="M205 38a115 115 0 0 1 106.246 70.991 115 115 0 0 1 0 88.018 115 115 0 0 1-24.929 37.308A114.99 114.99 0 0 1 205 268a115 115 0 0 1-81.317-33.683A115 115 0 0 1 90 153a115 115 0 0 1 70.991-106.246A115 115 0 0 1 205 38Z" opacity=".05"/><path stroke="#FFD7F2" stroke-linecap="round" stroke-width="30" d="M205 38a115.001 115.001 0 0 1 52.209 217.466A114.999 114.999 0 0 1 111.963 85.405"/><path fill="#26292F" d="M41.145 176.42 39.249 179h-1.752l2.1-2.796c-.216.06-.444.096-.66.096-1.812 0-3.036-1.272-3.036-3.048 0-1.872 1.392-3.18 3.264-3.18 1.896 0 3.312 1.392 3.312 3.192 0 1.056-.348 1.824-1.332 3.156m-.24-3.168c0-1.068-.708-1.812-1.74-1.812-1.008 0-1.716.744-1.716 1.812 0 1.056.708 1.788 1.716 1.788 1.044 0 1.74-.732 1.74-1.788m5.463 5.892c-1.836 0-3.048-1.176-3.048-2.952h1.524c0 .996.588 1.584 1.56 1.584 1.032 0 1.692-.672 1.692-1.74 0-1.02-.612-1.716-1.668-1.716-.672 0-1.284.336-1.596.792l-1.356-.288 1.08-4.596h4.572v1.416H45.66l-.468 1.824c.42-.276.948-.432 1.548-.432 1.752 0 2.916 1.188 2.916 2.916 0 1.896-1.332 3.192-3.288 3.192m8.647-6.78c0 1.356-.96 2.304-2.292 2.304s-2.292-.948-2.292-2.304c0-1.344.96-2.304 2.292-2.304s2.292.96 2.292 2.304m4.812-2.124-6.66 8.76h-1.464l6.66-8.76zm-5.976 2.124c0-.696-.456-1.176-1.128-1.176s-1.116.48-1.116 1.176.456 1.176 1.116 1.176c.672 0 1.128-.48 1.128-1.176m7.26 4.488c0 1.344-.948 2.304-2.28 2.304-1.344 0-2.292-.96-2.292-2.304s.948-2.304 2.292-2.304c1.332 0 2.28.96 2.28 2.304m-1.164 0c0-.696-.456-1.176-1.116-1.176-.672 0-1.128.48-1.128 1.176s.456 1.176 1.128 1.176c.66 0 1.116-.48 1.116-1.176m-22.253 17.124h-1.932V197h-1.536v-8.772h3.468c1.764 0 2.904 1.152 2.904 2.868 0 1.692-1.152 2.88-2.904 2.88m-.3-4.38h-1.632v3.012h1.608c1.056 0 1.62-.564 1.62-1.524s-.576-1.488-1.596-1.488m8 1.452v1.356h-.54c-1.056 0-1.716.564-1.716 1.716V197h-1.464v-5.916h1.38l.084.864c.252-.588.816-.984 1.608-.984.204 0 .408.024.648.084m.444 2.976c0-1.848 1.332-3.12 3.168-3.12s3.168 1.272 3.168 3.12-1.332 3.12-3.168 3.12-3.168-1.272-3.168-3.12m1.464 0c0 1.08.696 1.812 1.704 1.812s1.704-.732 1.704-1.812-.696-1.812-1.704-1.812-1.704.732-1.704 1.812M57.45 197v-4.704h-2.424V197h-1.452v-4.704h-.852v-1.224h.852v-.72c0-1.608.84-2.28 2.04-2.28.228 0 .504.012.756.06v1.248h-.516c-.66 0-.828.384-.828.972v.72h3.888V197zm.732-7.14a.866.866 0 0 1-.876-.876c0-.48.384-.864.876-.864a.86.86 0 0 1 .864.864.863.863 0 0 1-.864.876M62.44 197h-1.464v-4.704h-1.14v-1.224h1.14v-1.848h1.464v1.848h1.152v1.224H62.44zM199.188 149.144c-1.836 0-3.048-1.176-3.048-2.952h1.524c0 .996.588 1.584 1.56 1.584 1.032 0 1.692-.672 1.692-1.74 0-1.02-.612-1.716-1.668-1.716-.672 0-1.284.336-1.596.792l-1.356-.288 1.08-4.596h4.572v1.416h-3.468l-.468 1.824c.42-.276.948-.432 1.548-.432 1.752 0 2.916 1.188 2.916 2.916 0 1.896-1.332 3.192-3.288 3.192m8.648-6.78c0 1.356-.96 2.304-2.292 2.304s-2.292-.948-2.292-2.304c0-1.344.96-2.304 2.292-2.304s2.292.96 2.292 2.304m4.812-2.124-6.66 8.76h-1.464l6.66-8.76zm-5.976 2.124c0-.696-.456-1.176-1.128-1.176s-1.116.48-1.116 1.176.456 1.176 1.116 1.176c.672 0 1.128-.48 1.128-1.176m7.26 4.488c0 1.344-.948 2.304-2.28 2.304-1.344 0-2.292-.96-2.292-2.304s.948-2.304 2.292-2.304c1.332 0 2.28.96 2.28 2.304m-1.164 0c0-.696-.456-1.176-1.116-1.176-.672 0-1.128.48-1.128 1.176s.456 1.176 1.128 1.176c.66 0 1.116-.48 1.116-1.176m-15.68 20.292c-2.556 0-4.212-1.776-4.212-4.524 0-2.724 1.716-4.536 4.284-4.536 2.076 0 3.624 1.212 3.924 3.096h-1.62c-.3-1.02-1.176-1.62-2.34-1.62-1.62 0-2.64 1.176-2.64 3.048 0 1.86 1.032 3.06 2.64 3.06 1.188 0 2.1-.624 2.388-1.596h1.596c-.336 1.848-1.944 3.072-4.02 3.072m6.934-.144h-1.536v-8.772h3.348c1.992 0 3.156 1.008 3.156 2.736 0 1.176-.552 2.016-1.584 2.436l1.668 3.6h-1.68l-1.488-3.276h-1.884zm0-7.404v2.772h1.812c.972 0 1.548-.516 1.548-1.404 0-.876-.576-1.368-1.548-1.368zm8.039 7.404h-1.536v-8.772h3.348c1.992 0 3.156 1.008 3.156 2.736 0 1.176-.552 2.016-1.584 2.436l1.668 3.6h-1.68l-1.488-3.276h-1.884zm0-7.404v2.772h1.812c.972 0 1.548-.516 1.548-1.404 0-.876-.576-1.368-1.548-1.368z"/></svg>