<svg width="407" height="394" viewBox="0 0 407 394" fill="none" xmlns="http://www.w3.org/2000/svg">
<rect width="407" height="394" rx="30" fill="white"/>
<rect x="0.5" y="0.5" width="406" height="393" rx="29.5" stroke="#26292F" stroke-opacity="0.15"/>
<path d="M32.544 322.544V334H31.392V322.544H32.544ZM36.1935 334H35.0895V326.256H36.0495L36.2095 327.6C36.7215 326.608 37.7455 326.048 38.8655 326.048C40.9935 326.048 41.8735 327.312 41.8735 329.264V334H40.7695V329.504C40.7695 327.696 39.9535 327.056 38.6735 327.056C37.0895 327.056 36.1935 328.208 36.1935 329.952V334ZM43.5299 330.144C43.5299 327.712 45.0179 326.048 47.2739 326.048C49.0659 326.048 50.3779 327.088 50.6819 328.688H49.5779C49.2899 327.616 48.3619 327.024 47.2899 327.024C45.7219 327.024 44.6179 328.224 44.6179 330.128C44.6179 331.968 45.6419 333.2 47.2099 333.2C48.3619 333.2 49.2899 332.56 49.5939 331.568H50.7139C50.3459 333.152 48.9699 334.192 47.2099 334.192C45.0179 334.192 43.5299 332.576 43.5299 330.144ZM56.4344 326.16V327.152H55.8264C54.4024 327.152 53.4904 328.112 53.4904 329.584V334H52.3864V326.256H53.4264L53.5064 327.456C53.8104 326.624 54.6264 326.08 55.7144 326.08C55.9544 326.08 56.1624 326.096 56.4344 326.16ZM60.8531 334.192C58.5811 334.192 57.0611 332.56 57.0611 330.128C57.0611 327.712 58.5651 326.048 60.7731 326.048C62.8691 326.048 64.2931 327.536 64.2931 329.728V330.272H58.1331C58.2131 332.16 59.2051 333.248 60.8691 333.248C62.1331 333.248 62.9491 332.704 63.2371 331.68H64.2931C63.8771 333.312 62.6771 334.192 60.8531 334.192ZM60.7731 326.992C59.3171 326.992 58.3571 327.952 58.1651 329.472H63.1891C63.1891 327.984 62.2291 326.992 60.7731 326.992ZM68.2041 334.192C66.5561 334.192 65.5801 333.264 65.5801 331.904C65.5801 330.48 66.6681 329.584 68.4761 329.44L71.0361 329.232V328.976C71.0361 327.456 70.1241 326.976 68.9881 326.976C67.6441 326.976 66.8441 327.584 66.8441 328.624H65.8361C65.8361 327.056 67.1161 326.048 69.0201 326.048C70.8121 326.048 72.1241 326.944 72.1241 328.992V334H71.1961L71.0521 332.64C70.5721 333.616 69.5161 334.192 68.2041 334.192ZM68.4601 333.296C70.0921 333.296 71.0361 332.16 71.0361 330.48V330.064L68.7481 330.24C67.2921 330.368 66.7001 331.008 66.7001 331.872C66.7001 332.816 67.4041 333.296 68.4601 333.296ZM73.6835 331.824H74.7395C74.7395 332.72 75.4115 333.28 76.4995 333.28C77.6995 333.28 78.4035 332.768 78.4035 331.936C78.4035 331.296 78.0835 330.928 77.1715 330.704L75.8435 330.368C74.4995 330.032 73.8435 329.328 73.8435 328.272C73.8435 326.912 74.9795 326.048 76.6435 326.048C78.2755 326.048 79.3315 326.944 79.3795 328.384H78.3075C78.2755 327.488 77.6515 326.96 76.6115 326.96C75.5235 326.96 74.9155 327.424 74.9155 328.256C74.9155 328.848 75.3315 329.264 76.1795 329.472L77.5075 329.808C78.8515 330.144 79.4595 330.768 79.4595 331.888C79.4595 333.28 78.2755 334.192 76.5155 334.192C74.7715 334.192 73.6835 333.264 73.6835 331.824ZM81.821 324.128C81.373 324.128 81.005 323.76 81.005 323.312C81.005 322.864 81.373 322.48 81.821 322.48C82.269 322.48 82.653 322.864 82.653 323.312C82.653 323.76 82.269 324.128 81.821 324.128ZM81.277 334V326.256H82.381V334H81.277ZM85.7873 334H84.6833V326.256H85.6432L85.8033 327.6C86.3153 326.608 87.3393 326.048 88.4593 326.048C90.5873 326.048 91.4673 327.312 91.4673 329.264V334H90.3633V329.504C90.3633 327.696 89.5473 327.056 88.2673 327.056C86.6833 327.056 85.7873 328.208 85.7873 329.952V334ZM93.1396 329.904C93.1396 327.792 94.4996 326.048 96.7716 326.048C98.1156 326.048 99.1396 326.672 99.6356 327.808L99.7476 326.256H100.708V333.76C100.708 336.064 99.2356 337.568 96.9636 337.568C94.9796 337.568 93.5876 336.448 93.2836 334.576H94.3876C94.6276 335.824 95.5876 336.56 96.9796 336.56C98.5636 336.56 99.6196 335.488 99.6196 333.872V332.032C99.0916 333.12 98.0196 333.76 96.6916 333.76C94.4836 333.76 93.1396 332.016 93.1396 329.904ZM94.2436 329.888C94.2436 331.472 95.2196 332.768 96.8516 332.768C98.5316 332.768 99.5236 331.552 99.5236 329.888C99.5236 328.24 98.5636 327.024 96.8676 327.024C95.2036 327.024 94.2436 328.32 94.2436 329.888ZM106.905 330.144C106.905 327.712 108.393 326.048 110.649 326.048C112.441 326.048 113.753 327.088 114.057 328.688H112.953C112.665 327.616 111.737 327.024 110.665 327.024C109.097 327.024 107.993 328.224 107.993 330.128C107.993 331.968 109.017 333.2 110.585 333.2C111.737 333.2 112.665 332.56 112.969 331.568H114.089C113.721 333.152 112.345 334.192 110.585 334.192C108.393 334.192 106.905 332.576 106.905 330.144ZM121.201 326.256H122.305V334H121.345L121.201 332.688C120.769 333.584 119.697 334.192 118.481 334.192C116.657 334.192 115.665 332.944 115.665 331.056V326.24H116.785V330.704C116.785 332.544 117.601 333.2 118.833 333.2C120.321 333.2 121.201 332.208 121.201 330.368V326.256ZM123.793 331.824H124.849C124.849 332.72 125.521 333.28 126.609 333.28C127.809 333.28 128.513 332.768 128.513 331.936C128.513 331.296 128.193 330.928 127.281 330.704L125.953 330.368C124.609 330.032 123.953 329.328 123.953 328.272C123.953 326.912 125.089 326.048 126.753 326.048C128.385 326.048 129.441 326.944 129.489 328.384H128.417C128.385 327.488 127.761 326.96 126.721 326.96C125.633 326.96 125.025 327.424 125.025 328.256C125.025 328.848 125.441 329.264 126.289 329.472L127.617 329.808C128.961 330.144 129.569 330.768 129.569 331.888C129.569 333.28 128.385 334.192 126.625 334.192C124.881 334.192 123.793 333.264 123.793 331.824ZM133.162 334H132.074V327.184H130.522V326.256H132.074V323.808H133.162V326.256H134.714V327.184H133.162V334ZM135.53 330.128C135.53 327.76 137.194 326.048 139.466 326.048C141.738 326.048 143.402 327.76 143.402 330.128C143.402 332.48 141.738 334.192 139.466 334.192C137.194 334.192 135.53 332.48 135.53 330.128ZM136.65 330.112C136.65 331.936 137.802 333.2 139.466 333.2C141.114 333.2 142.282 331.936 142.282 330.112C142.282 328.32 141.114 327.04 139.466 327.04C137.802 327.04 136.65 328.32 136.65 330.112ZM146.272 334H145.168V326.256H146.128L146.256 327.36C146.64 326.544 147.504 326.048 148.592 326.048C149.808 326.048 150.72 326.688 151.088 327.696C151.44 326.688 152.384 326.048 153.632 326.048C155.312 326.048 156.416 327.136 156.416 328.928V334H155.344V329.152C155.344 327.824 154.608 327.04 153.424 327.04C152.128 327.04 151.36 328.016 151.36 329.216V334H150.272V329.136C150.272 327.824 149.52 327.056 148.352 327.056C147.056 327.056 146.272 328.016 146.272 329.2V334ZM161.884 334.192C159.612 334.192 158.092 332.56 158.092 330.128C158.092 327.712 159.596 326.048 161.804 326.048C163.9 326.048 165.324 327.536 165.324 329.728V330.272H159.164C159.244 332.16 160.236 333.248 161.9 333.248C163.164 333.248 163.98 332.704 164.268 331.68H165.324C164.908 333.312 163.708 334.192 161.884 334.192ZM161.804 326.992C160.348 326.992 159.388 327.952 159.196 329.472H164.22C164.22 327.984 163.26 326.992 161.804 326.992ZM171.138 326.16V327.152H170.53C169.106 327.152 168.194 328.112 168.194 329.584V334H167.09V326.256H168.13L168.21 327.456C168.514 326.624 169.33 326.08 170.418 326.08C170.658 326.08 170.866 326.096 171.138 326.16ZM181.091 326.16V327.152H180.483C179.059 327.152 178.147 328.112 178.147 329.584V334H177.043V326.256H178.083L178.163 327.456C178.467 326.624 179.283 326.08 180.371 326.08C180.611 326.08 180.819 326.096 181.091 326.16ZM185.509 334.192C183.237 334.192 181.717 332.56 181.717 330.128C181.717 327.712 183.221 326.048 185.429 326.048C187.525 326.048 188.949 327.536 188.949 329.728V330.272H182.789C182.869 332.16 183.861 333.248 185.525 333.248C186.789 333.248 187.605 332.704 187.893 331.68H188.949C188.533 333.312 187.333 334.192 185.509 334.192ZM185.429 326.992C183.973 326.992 183.013 327.952 182.821 329.472H187.845C187.845 327.984 186.885 326.992 185.429 326.992ZM192.412 334H191.324V327.184H189.772V326.256H191.324V323.808H192.412V326.256H193.964V327.184H192.412V334ZM198.572 334.192C196.3 334.192 194.78 332.56 194.78 330.128C194.78 327.712 196.284 326.048 198.492 326.048C200.588 326.048 202.012 327.536 202.012 329.728V330.272H195.852C195.932 332.16 196.924 333.248 198.588 333.248C199.852 333.248 200.668 332.704 200.956 331.68H202.012C201.596 333.312 200.396 334.192 198.572 334.192ZM198.492 326.992C197.036 326.992 196.076 327.952 195.884 329.472H200.908C200.908 327.984 199.948 326.992 198.492 326.992ZM204.881 334H203.777V326.256H204.737L204.897 327.6C205.409 326.608 206.433 326.048 207.553 326.048C209.681 326.048 210.561 327.312 210.561 329.264V334H209.457V329.504C209.457 327.696 208.641 327.056 207.361 327.056C205.777 327.056 204.881 328.208 204.881 329.952V334ZM214.537 334H213.449V327.184H211.897V326.256H213.449V323.808H214.537V326.256H216.089V327.184H214.537V334ZM218.071 324.128C217.623 324.128 217.255 323.76 217.255 323.312C217.255 322.864 217.623 322.48 218.071 322.48C218.519 322.48 218.903 322.864 218.903 323.312C218.903 323.76 218.519 324.128 218.071 324.128ZM217.527 334V326.256H218.631V334H217.527ZM220.389 330.128C220.389 327.76 222.053 326.048 224.325 326.048C226.597 326.048 228.261 327.76 228.261 330.128C228.261 332.48 226.597 334.192 224.325 334.192C222.053 334.192 220.389 332.48 220.389 330.128ZM221.509 330.112C221.509 331.936 222.661 333.2 224.325 333.2C225.973 333.2 227.141 331.936 227.141 330.112C227.141 328.32 225.973 327.04 224.325 327.04C222.661 327.04 221.509 328.32 221.509 330.112ZM231.131 334H230.027V326.256H230.987L231.147 327.6C231.659 326.608 232.683 326.048 233.803 326.048C235.931 326.048 236.811 327.312 236.811 329.264V334H235.707V329.504C235.707 327.696 234.891 327.056 233.611 327.056C232.027 327.056 231.131 328.208 231.131 329.952V334ZM244.409 334H243.449V322.336H244.553V327.76C245.097 326.624 246.153 326.048 247.465 326.048C249.721 326.048 251.033 327.808 251.033 330.144C251.033 332.464 249.689 334.192 247.433 334.192C246.137 334.192 245.065 333.616 244.521 332.416L244.409 334ZM244.569 330.112C244.569 331.904 245.561 333.184 247.257 333.184C248.937 333.184 249.913 331.904 249.913 330.112C249.913 328.336 248.937 327.04 247.257 327.04C245.561 327.04 244.569 328.336 244.569 330.112ZM251.759 337.376V336.464H252.607C253.279 336.464 253.951 336.416 254.335 335.376L254.671 334.464L251.535 326.256H252.703L255.199 333.008L257.647 326.256H258.783L255.231 335.776C254.783 336.992 254.031 337.488 252.927 337.488C252.463 337.488 252.111 337.456 251.759 337.376ZM265.071 324.128C264.607 324.128 264.239 323.76 264.239 323.312C264.239 322.864 264.607 322.48 265.071 322.48C265.503 322.48 265.887 322.864 265.887 323.312C265.887 323.76 265.503 324.128 265.071 324.128ZM262.447 337.392L262.655 336.384C262.975 336.464 263.167 336.496 263.407 336.496C264.175 336.496 264.511 336.048 264.511 335.104V326.256H265.615V335.168C265.615 336.64 264.847 337.536 263.487 337.536C263.071 337.536 262.847 337.504 262.447 337.392ZM273.358 326.256H274.462V334H273.502L273.358 332.688C272.926 333.584 271.854 334.192 270.638 334.192C268.814 334.192 267.822 332.944 267.822 331.056V326.24H268.942V330.704C268.942 332.544 269.758 333.2 270.99 333.2C272.478 333.2 273.358 332.208 273.358 330.368V326.256ZM275.949 331.824H277.005C277.005 332.72 277.677 333.28 278.765 333.28C279.965 333.28 280.669 332.768 280.669 331.936C280.669 331.296 280.349 330.928 279.437 330.704L278.109 330.368C276.765 330.032 276.109 329.328 276.109 328.272C276.109 326.912 277.245 326.048 278.909 326.048C280.541 326.048 281.597 326.944 281.645 328.384H280.573C280.541 327.488 279.917 326.96 278.877 326.96C277.789 326.96 277.181 327.424 277.181 328.256C277.181 328.848 277.597 329.264 278.445 329.472L279.773 329.808C281.117 330.144 281.725 330.768 281.725 331.888C281.725 333.28 280.541 334.192 278.781 334.192C277.037 334.192 275.949 333.264 275.949 331.824ZM285.319 334H284.231V327.184H282.679V326.256H284.231V323.808H285.319V326.256H286.871V327.184H285.319V334ZM296.234 334.192C293.93 334.192 292.458 332.752 292.458 330.496H293.61C293.61 332.144 294.618 333.136 296.25 333.136C297.978 333.136 299.098 331.984 299.098 330.288C299.098 328.688 298.058 327.424 296.25 327.424C295.194 327.424 294.234 327.904 293.61 328.592L292.698 328.304L294.074 322.544H299.61V323.6H294.906L294.042 327.2C294.682 326.688 295.514 326.4 296.41 326.4C298.794 326.4 300.266 328.112 300.266 330.256C300.266 332.56 298.634 334.192 296.234 334.192ZM307.306 325.168C307.306 326.816 306.138 328 304.506 328C302.874 328 301.69 326.816 301.69 325.168C301.69 323.52 302.874 322.32 304.506 322.32C306.138 322.32 307.306 323.52 307.306 325.168ZM313.114 322.544L304.41 334H303.258L311.946 322.544H313.114ZM306.346 325.168C306.346 324.032 305.594 323.248 304.506 323.248C303.402 323.248 302.65 324.032 302.65 325.168C302.65 326.288 303.418 327.088 304.506 327.088C305.578 327.088 306.346 326.288 306.346 325.168ZM314.698 331.376C314.698 333.024 313.53 334.208 311.898 334.208C310.266 334.208 309.082 333.024 309.082 331.376C309.082 329.728 310.266 328.528 311.898 328.528C313.53 328.528 314.698 329.728 314.698 331.376ZM313.738 331.376C313.738 330.24 312.986 329.456 311.898 329.456C310.794 329.456 310.042 330.24 310.042 331.376C310.042 332.496 310.81 333.28 311.898 333.28C312.97 333.28 313.738 332.496 313.738 331.376ZM30.608 354.144C30.608 351.712 32.096 350.048 34.352 350.048C36.144 350.048 37.456 351.088 37.76 352.688H36.656C36.368 351.616 35.44 351.024 34.368 351.024C32.8 351.024 31.696 352.224 31.696 354.128C31.696 355.968 32.72 357.2 34.288 357.2C35.44 357.2 36.368 356.56 36.672 355.568H37.792C37.424 357.152 36.048 358.192 34.288 358.192C32.096 358.192 30.608 356.576 30.608 354.144ZM41.6885 358.192C40.0405 358.192 39.0645 357.264 39.0645 355.904C39.0645 354.48 40.1525 353.584 41.9605 353.44L44.5205 353.232V352.976C44.5205 351.456 43.6085 350.976 42.4725 350.976C41.1285 350.976 40.3285 351.584 40.3285 352.624H39.3205C39.3205 351.056 40.6005 350.048 42.5045 350.048C44.2965 350.048 45.6085 350.944 45.6085 352.992V358H44.6805L44.5365 356.64C44.0565 357.616 43.0005 358.192 41.6885 358.192ZM41.9445 357.296C43.5765 357.296 44.5205 356.16 44.5205 354.48V354.064L42.2325 354.24C40.7765 354.368 40.1845 355.008 40.1845 355.872C40.1845 356.816 40.8885 357.296 41.9445 357.296ZM48.9279 358H47.8239V350.256H48.7839L48.9439 351.6C49.4559 350.608 50.4799 350.048 51.5999 350.048C53.7279 350.048 54.6079 351.312 54.6079 353.264V358H53.5039V353.504C53.5039 351.696 52.6879 351.056 51.4079 351.056C49.8239 351.056 48.9279 352.208 48.9279 353.952V358ZM62.2057 358H61.2458V346.336H62.3498V351.76C62.8938 350.624 63.9498 350.048 65.2618 350.048C67.5178 350.048 68.8298 351.808 68.8298 354.144C68.8298 356.464 67.4858 358.192 65.2298 358.192C63.9338 358.192 62.8618 357.616 62.3178 356.416L62.2057 358ZM62.3658 354.112C62.3658 355.904 63.3578 357.184 65.0538 357.184C66.7338 357.184 67.7098 355.904 67.7098 354.112C67.7098 352.336 66.7338 351.04 65.0538 351.04C63.3578 351.04 62.3658 352.336 62.3658 354.112ZM70.0455 354.128C70.0455 351.76 71.7095 350.048 73.9815 350.048C76.2535 350.048 77.9175 351.76 77.9175 354.128C77.9175 356.48 76.2535 358.192 73.9815 358.192C71.7095 358.192 70.0455 356.48 70.0455 354.128ZM71.1655 354.112C71.1655 355.936 72.3175 357.2 73.9815 357.2C75.6295 357.2 76.7975 355.936 76.7975 354.112C76.7975 352.32 75.6295 351.04 73.9815 351.04C72.3175 351.04 71.1655 352.32 71.1655 354.112ZM79.1393 354.128C79.1393 351.76 80.8033 350.048 83.0753 350.048C85.3473 350.048 87.0113 351.76 87.0113 354.128C87.0113 356.48 85.3473 358.192 83.0753 358.192C80.8033 358.192 79.1393 356.48 79.1393 354.128ZM80.2593 354.112C80.2593 355.936 81.4113 357.2 83.0753 357.2C84.7233 357.2 85.8913 355.936 85.8913 354.112C85.8913 352.32 84.7233 351.04 83.0753 351.04C81.4113 351.04 80.2593 352.32 80.2593 354.112ZM88.121 355.824H89.177C89.177 356.72 89.849 357.28 90.937 357.28C92.137 357.28 92.841 356.768 92.841 355.936C92.841 355.296 92.521 354.928 91.609 354.704L90.281 354.368C88.937 354.032 88.281 353.328 88.281 352.272C88.281 350.912 89.417 350.048 91.081 350.048C92.713 350.048 93.769 350.944 93.817 352.384H92.745C92.713 351.488 92.089 350.96 91.049 350.96C89.961 350.96 89.353 351.424 89.353 352.256C89.353 352.848 89.769 353.264 90.617 353.472L91.945 353.808C93.289 354.144 93.897 354.768 93.897 355.888C93.897 357.28 92.713 358.192 90.953 358.192C89.209 358.192 88.121 357.264 88.121 355.824ZM97.4905 358H96.4025V351.184H94.8505V350.256H96.4025V347.808H97.4905V350.256H99.0425V351.184H97.4905V358ZM104.918 361.376V350.256H105.878L105.99 351.824C106.534 350.624 107.622 350.048 108.918 350.048C111.158 350.048 112.502 351.76 112.502 354.096C112.502 356.432 111.206 358.192 108.918 358.192C107.606 358.192 106.566 357.632 106.022 356.512V361.376H104.918ZM106.038 354.128C106.038 355.904 107.03 357.2 108.726 357.2C110.406 357.2 111.382 355.904 111.382 354.128C111.382 352.336 110.406 351.056 108.726 351.056C107.03 351.056 106.038 352.336 106.038 354.128ZM118.309 350.16V351.152H117.701C116.277 351.152 115.365 352.112 115.365 353.584V358H114.261V350.256H115.301L115.381 351.456C115.685 350.624 116.501 350.08 117.589 350.08C117.829 350.08 118.037 350.096 118.309 350.16ZM118.936 354.128C118.936 351.76 120.6 350.048 122.872 350.048C125.144 350.048 126.808 351.76 126.808 354.128C126.808 356.48 125.144 358.192 122.872 358.192C120.6 358.192 118.936 356.48 118.936 354.128ZM120.056 354.112C120.056 355.936 121.208 357.2 122.872 357.2C124.52 357.2 125.688 355.936 125.688 354.112C125.688 352.32 124.52 351.04 122.872 351.04C121.208 351.04 120.056 352.32 120.056 354.112ZM133.615 358V351.184H129.935V358H128.831V351.184H127.647V350.256H128.831V348.752C128.831 347.008 129.775 346.336 130.927 346.336C131.199 346.336 131.535 346.352 131.791 346.4V347.36H131.119C130.191 347.36 129.935 347.84 129.935 348.752V350.256H134.719V358H133.615ZM134.159 348.048C133.711 348.048 133.391 347.728 133.391 347.28C133.391 346.832 133.711 346.496 134.159 346.496C134.591 346.496 134.927 346.832 134.927 347.28C134.927 347.728 134.591 348.048 134.159 348.048ZM138.756 358H137.668V351.184H136.116V350.256H137.668V347.808H138.756V350.256H140.308V351.184H138.756V358ZM141.09 355.824H142.146C142.146 356.72 142.818 357.28 143.906 357.28C145.106 357.28 145.81 356.768 145.81 355.936C145.81 355.296 145.49 354.928 144.578 354.704L143.25 354.368C141.906 354.032 141.25 353.328 141.25 352.272C141.25 350.912 142.386 350.048 144.05 350.048C145.682 350.048 146.738 350.944 146.786 352.384H145.714C145.682 351.488 145.058 350.96 144.018 350.96C142.93 350.96 142.322 351.424 142.322 352.256C142.322 352.848 142.738 353.264 143.586 353.472L144.914 353.808C146.258 354.144 146.866 354.768 146.866 355.888C146.866 357.28 145.682 358.192 143.922 358.192C142.178 358.192 141.09 357.264 141.09 355.824ZM154.081 358H153.121V346.336H154.225V351.76C154.769 350.624 155.825 350.048 157.137 350.048C159.393 350.048 160.705 351.808 160.705 354.144C160.705 356.464 159.361 358.192 157.105 358.192C155.809 358.192 154.737 357.616 154.193 356.416L154.081 358ZM154.241 354.112C154.241 355.904 155.233 357.184 156.929 357.184C158.609 357.184 159.585 355.904 159.585 354.112C159.585 352.336 158.609 351.04 156.929 351.04C155.233 351.04 154.241 352.336 154.241 354.112ZM161.431 361.376V360.464H162.279C162.951 360.464 163.623 360.416 164.007 359.376L164.343 358.464L161.207 350.256H162.375L164.871 357.008L167.319 350.256H168.455L164.903 359.776C164.455 360.992 163.703 361.488 162.599 361.488C162.135 361.488 161.783 361.456 161.431 361.376ZM181.303 358H173.751V357.088L177.415 353.888C179.527 352.048 180.071 351.248 180.071 349.888C180.071 348.336 179.143 347.392 177.623 347.392C176.039 347.392 174.999 348.544 174.951 350.32H173.799C173.863 347.92 175.383 346.336 177.639 346.336C179.799 346.336 181.239 347.728 181.239 349.824C181.239 351.488 180.487 352.592 178.199 354.592L175.527 356.928H181.303V358ZM186.562 358.192C184.258 358.192 182.786 356.752 182.786 354.496H183.938C183.938 356.144 184.946 357.136 186.578 357.136C188.306 357.136 189.426 355.984 189.426 354.288C189.426 352.688 188.386 351.424 186.578 351.424C185.522 351.424 184.562 351.904 183.938 352.592L183.026 352.304L184.402 346.544H189.938V347.6H185.234L184.37 351.2C185.01 350.688 185.842 350.4 186.738 350.4C189.122 350.4 190.594 352.112 190.594 354.256C190.594 356.56 188.962 358.192 186.562 358.192ZM192.274 354.288V353.296H196.914V354.288H192.274ZM205.347 354.128L202.483 358H201.139L204.147 354C203.619 354.288 203.123 354.384 202.579 354.384C200.195 354.384 198.611 352.64 198.611 350.4C198.611 348.064 200.387 346.336 202.675 346.336C204.979 346.336 206.787 348.112 206.787 350.416C206.787 351.744 206.435 352.672 205.347 354.128ZM205.635 350.4C205.635 348.656 204.419 347.392 202.675 347.392C200.979 347.392 199.763 348.656 199.763 350.4C199.763 352.128 200.979 353.376 202.675 353.376C204.419 353.376 205.635 352.128 205.635 350.4ZM212.124 358.192C209.82 358.192 208.348 356.752 208.348 354.496H209.5C209.5 356.144 210.508 357.136 212.14 357.136C213.868 357.136 214.988 355.984 214.988 354.288C214.988 352.688 213.948 351.424 212.14 351.424C211.084 351.424 210.124 351.904 209.5 352.592L208.588 352.304L209.964 346.544H215.5V347.6H210.796L209.932 351.2C210.572 350.688 211.404 350.4 212.3 350.4C214.684 350.4 216.156 352.112 216.156 354.256C216.156 356.56 214.524 358.192 212.124 358.192ZM223.197 349.168C223.197 350.816 222.029 352 220.397 352C218.765 352 217.581 350.816 217.581 349.168C217.581 347.52 218.765 346.32 220.397 346.32C222.029 346.32 223.197 347.52 223.197 349.168ZM229.005 346.544L220.301 358H219.149L227.837 346.544H229.005ZM222.237 349.168C222.237 348.032 221.485 347.248 220.397 347.248C219.293 347.248 218.541 348.032 218.541 349.168C218.541 350.288 219.309 351.088 220.397 351.088C221.469 351.088 222.237 350.288 222.237 349.168ZM230.589 355.376C230.589 357.024 229.421 358.208 227.789 358.208C226.157 358.208 224.973 357.024 224.973 355.376C224.973 353.728 226.157 352.528 227.789 352.528C229.421 352.528 230.589 353.728 230.589 355.376ZM229.629 355.376C229.629 354.24 228.877 353.456 227.789 353.456C226.685 353.456 225.933 354.24 225.933 355.376C225.933 356.496 226.701 357.28 227.789 357.28C228.861 357.28 229.629 356.496 229.629 355.376Z" fill="#26292F"/>
<circle cx="205" cy="153" r="50" fill="white"/>
<circle cx="205" cy="153" r="49.0476" stroke="#26292F" stroke-opacity="0.15" stroke-width="1.90476"/>
<path opacity="0.05" d="M205 38C220.102 38 235.056 40.9746 249.009 46.7539C262.961 52.5331 275.639 61.004 286.317 71.6827C296.996 82.3615 305.467 95.039 311.246 108.991C317.025 122.944 320 137.898 320 153C320 168.102 317.025 183.056 311.246 197.009C305.467 210.961 296.996 223.639 286.317 234.317C275.639 244.996 262.961 253.467 249.009 259.246C235.056 265.025 220.102 268 205 268C189.898 268 174.944 265.025 160.991 259.246C147.039 253.467 134.361 244.996 123.683 234.317C113.004 223.639 104.533 210.961 98.7538 197.009C92.9745 183.056 90 168.102 90 153C90 137.898 92.9746 122.944 98.7539 108.991C104.533 95.0389 113.004 82.3614 123.683 71.6827C134.362 61.0039 147.039 52.5331 160.991 46.7538C174.944 40.9745 189.898 38 205 38L205 38Z" stroke="#26292F" stroke-width="30"/>
<path d="M205 38C230.831 38 255.91 46.6966 276.196 62.6886C296.481 78.6805 310.792 101.036 316.823 126.154C322.853 151.271 320.251 177.687 309.436 201.146C298.622 224.604 280.225 243.739 257.209 255.466C234.193 267.193 207.899 270.83 182.565 265.79C157.23 260.751 134.329 247.329 117.553 227.687C100.777 208.044 91.1028 183.326 90.0887 157.515C89.0745 131.704 96.7799 106.303 111.963 85.4047" stroke="#FFD7F2" stroke-width="30" stroke-linecap="round"/>
<path d="M41.1448 176.42L39.2488 179H37.4968L39.5968 176.204C39.3808 176.264 39.1528 176.3 38.9368 176.3C37.1248 176.3 35.9008 175.028 35.9008 173.252C35.9008 171.38 37.2928 170.072 39.1648 170.072C41.0608 170.072 42.4768 171.464 42.4768 173.264C42.4768 174.32 42.1288 175.088 41.1448 176.42ZM40.9048 173.252C40.9048 172.184 40.1968 171.44 39.1648 171.44C38.1568 171.44 37.4488 172.184 37.4488 173.252C37.4488 174.308 38.1568 175.04 39.1648 175.04C40.2088 175.04 40.9048 174.308 40.9048 173.252ZM46.3681 179.144C44.5321 179.144 43.3201 177.968 43.3201 176.192H44.8441C44.8441 177.188 45.4321 177.776 46.4041 177.776C47.4361 177.776 48.0961 177.104 48.0961 176.036C48.0961 175.016 47.4841 174.32 46.4281 174.32C45.7561 174.32 45.1441 174.656 44.8321 175.112L43.4761 174.824L44.5561 170.228H49.1281V171.644H45.6601L45.1921 173.468C45.6121 173.192 46.1401 173.036 46.7401 173.036C48.4921 173.036 49.6561 174.224 49.6561 175.952C49.6561 177.848 48.3241 179.144 46.3681 179.144ZM55.0154 172.364C55.0154 173.72 54.0554 174.668 52.7234 174.668C51.3914 174.668 50.4314 173.72 50.4314 172.364C50.4314 171.02 51.3914 170.06 52.7234 170.06C54.0554 170.06 55.0154 171.02 55.0154 172.364ZM59.8274 170.24L53.1674 179H51.7034L58.3634 170.24H59.8274ZM53.8514 172.364C53.8514 171.668 53.3954 171.188 52.7234 171.188C52.0514 171.188 51.6074 171.668 51.6074 172.364C51.6074 173.06 52.0634 173.54 52.7234 173.54C53.3954 173.54 53.8514 173.06 53.8514 172.364ZM61.1114 176.852C61.1114 178.196 60.1634 179.156 58.8314 179.156C57.4874 179.156 56.5394 178.196 56.5394 176.852C56.5394 175.508 57.4874 174.548 58.8314 174.548C60.1634 174.548 61.1114 175.508 61.1114 176.852ZM59.9474 176.852C59.9474 176.156 59.4914 175.676 58.8314 175.676C58.1594 175.676 57.7034 176.156 57.7034 176.852C57.7034 177.548 58.1594 178.028 58.8314 178.028C59.4914 178.028 59.9474 177.548 59.9474 176.852ZM37.6939 193.976H35.7619V197H34.2259V188.228H37.6939C39.4579 188.228 40.5979 189.38 40.5979 191.096C40.5979 192.788 39.4459 193.976 37.6939 193.976ZM37.3939 189.596H35.7619V192.608H37.3699C38.4259 192.608 38.9899 192.044 38.9899 191.084C38.9899 190.124 38.4139 189.596 37.3939 189.596ZM45.394 191.048V192.404H44.854C43.798 192.404 43.138 192.968 43.138 194.12V197H41.674V191.084H43.054L43.138 191.948C43.39 191.36 43.954 190.964 44.746 190.964C44.95 190.964 45.154 190.988 45.394 191.048ZM45.8377 194.024C45.8377 192.176 47.1697 190.904 49.0057 190.904C50.8417 190.904 52.1737 192.176 52.1737 194.024C52.1737 195.872 50.8417 197.144 49.0057 197.144C47.1697 197.144 45.8377 195.872 45.8377 194.024ZM47.3017 194.024C47.3017 195.104 47.9977 195.836 49.0057 195.836C50.0137 195.836 50.7097 195.104 50.7097 194.024C50.7097 192.944 50.0137 192.212 49.0057 192.212C47.9977 192.212 47.3017 192.944 47.3017 194.024ZM57.4507 197V192.296H55.0267V197H53.5747V192.296H52.7227V191.072H53.5747V190.352C53.5747 188.744 54.4147 188.072 55.6147 188.072C55.8427 188.072 56.1187 188.084 56.3707 188.132V189.38H55.8547C55.1947 189.38 55.0267 189.764 55.0267 190.352V191.072H58.9147V197H57.4507ZM58.1827 189.86C57.6907 189.86 57.3067 189.476 57.3067 188.984C57.3067 188.504 57.6907 188.12 58.1827 188.12C58.6627 188.12 59.0467 188.504 59.0467 188.984C59.0467 189.476 58.6627 189.86 58.1827 189.86ZM62.44 197H60.976V192.296H59.836V191.072H60.976V189.224H62.44V191.072H63.592V192.296H62.44V197Z" fill="#26292F"/>
<path d="M199.188 149.144C197.352 149.144 196.14 147.968 196.14 146.192H197.664C197.664 147.188 198.252 147.776 199.224 147.776C200.256 147.776 200.916 147.104 200.916 146.036C200.916 145.016 200.304 144.32 199.248 144.32C198.576 144.32 197.964 144.656 197.652 145.112L196.296 144.824L197.376 140.228H201.948V141.644H198.48L198.012 143.468C198.432 143.192 198.96 143.036 199.56 143.036C201.312 143.036 202.476 144.224 202.476 145.952C202.476 147.848 201.144 149.144 199.188 149.144ZM207.836 142.364C207.836 143.72 206.876 144.668 205.544 144.668C204.212 144.668 203.252 143.72 203.252 142.364C203.252 141.02 204.212 140.06 205.544 140.06C206.876 140.06 207.836 141.02 207.836 142.364ZM212.648 140.24L205.988 149H204.524L211.184 140.24H212.648ZM206.672 142.364C206.672 141.668 206.216 141.188 205.544 141.188C204.872 141.188 204.428 141.668 204.428 142.364C204.428 143.06 204.884 143.54 205.544 143.54C206.216 143.54 206.672 143.06 206.672 142.364ZM213.932 146.852C213.932 148.196 212.984 149.156 211.652 149.156C210.308 149.156 209.36 148.196 209.36 146.852C209.36 145.508 210.308 144.548 211.652 144.548C212.984 144.548 213.932 145.508 213.932 146.852ZM212.768 146.852C212.768 146.156 212.312 145.676 211.652 145.676C210.98 145.676 210.524 146.156 210.524 146.852C210.524 147.548 210.98 148.028 211.652 148.028C212.312 148.028 212.768 147.548 212.768 146.852ZM197.088 167.144C194.532 167.144 192.876 165.368 192.876 162.62C192.876 159.896 194.592 158.084 197.16 158.084C199.236 158.084 200.784 159.296 201.084 161.18H199.464C199.164 160.16 198.288 159.56 197.124 159.56C195.504 159.56 194.484 160.736 194.484 162.608C194.484 164.468 195.516 165.668 197.124 165.668C198.312 165.668 199.224 165.044 199.512 164.072H201.108C200.772 165.92 199.164 167.144 197.088 167.144ZM204.022 167H202.486V158.228H205.834C207.826 158.228 208.99 159.236 208.99 160.964C208.99 162.14 208.438 162.98 207.406 163.4L209.074 167H207.394L205.906 163.724H204.022V167ZM204.022 159.596V162.368H205.834C206.806 162.368 207.382 161.852 207.382 160.964C207.382 160.088 206.806 159.596 205.834 159.596H204.022ZM212.061 167H210.525V158.228H213.873C215.865 158.228 217.029 159.236 217.029 160.964C217.029 162.14 216.477 162.98 215.445 163.4L217.113 167H215.433L213.945 163.724H212.061V167ZM212.061 159.596V162.368H213.873C214.845 162.368 215.421 161.852 215.421 160.964C215.421 160.088 214.845 159.596 213.873 159.596H212.061Z" fill="#26292F"/>
</svg>
