<svg width="407" height="394" viewBox="0 0 407 394" fill="none" xmlns="http://www.w3.org/2000/svg">
<rect width="407" height="394" rx="30" fill="white"/>
<rect x="0.5" y="0.5" width="406" height="393" rx="29.5" stroke="#26292F" stroke-opacity="0.15"/>
<path d="M32.544 334H31.392V322.544H35.664C37.984 322.544 39.392 323.824 39.392 325.856C39.392 327.504 38.528 328.656 37.056 329.056L39.504 334H38.224L35.888 329.248H32.544V334ZM32.544 323.584V328.208H35.696C37.28 328.208 38.208 327.344 38.208 325.888C38.208 324.4 37.232 323.584 35.664 323.584H32.544ZM44.0719 334.192C41.7999 334.192 40.2799 332.56 40.2799 330.128C40.2799 327.712 41.7839 326.048 43.9919 326.048C46.0879 326.048 47.5119 327.536 47.5119 329.728V330.272H41.3519C41.4319 332.16 42.4239 333.248 44.0879 333.248C45.3519 333.248 46.1679 332.704 46.4559 331.68H47.5119C47.0959 333.312 45.8959 334.192 44.0719 334.192ZM43.9919 326.992C42.5359 326.992 41.5759 327.952 41.3839 329.472H46.4079C46.4079 327.984 45.4479 326.992 43.9919 326.992ZM49.277 337.376V326.256H50.237L50.349 327.824C50.893 326.624 51.981 326.048 53.277 326.048C55.517 326.048 56.861 327.76 56.861 330.096C56.861 332.432 55.565 334.192 53.277 334.192C51.965 334.192 50.925 333.632 50.381 332.512V337.376H49.277ZM50.397 330.128C50.397 331.904 51.389 333.2 53.085 333.2C54.765 333.2 55.741 331.904 55.741 330.128C55.741 328.336 54.765 327.056 53.085 327.056C51.389 327.056 50.397 328.336 50.397 330.128ZM61.8688 334.192C59.5968 334.192 58.0768 332.56 58.0768 330.128C58.0768 327.712 59.5807 326.048 61.7888 326.048C63.8848 326.048 65.3088 327.536 65.3088 329.728V330.272H59.1488C59.2288 332.16 60.2208 333.248 61.8848 333.248C63.1488 333.248 63.9648 332.704 64.2528 331.68H65.3088C64.8928 333.312 63.6928 334.192 61.8688 334.192ZM61.7888 326.992C60.3328 326.992 59.3728 327.952 59.1808 329.472H64.2048C64.2048 327.984 63.2448 326.992 61.7888 326.992ZM69.2198 334.192C67.5718 334.192 66.5958 333.264 66.5958 331.904C66.5958 330.48 67.6838 329.584 69.4918 329.44L72.0518 329.232V328.976C72.0518 327.456 71.1398 326.976 70.0038 326.976C68.6598 326.976 67.8598 327.584 67.8598 328.624H66.8518C66.8518 327.056 68.1318 326.048 70.0358 326.048C71.8278 326.048 73.1398 326.944 73.1398 328.992V334H72.2118L72.0678 332.64C71.5878 333.616 70.5318 334.192 69.2198 334.192ZM69.4758 333.296C71.1078 333.296 72.0518 332.16 72.0518 330.48V330.064L69.7638 330.24C68.3078 330.368 67.7158 331.008 67.7158 331.872C67.7158 332.816 68.4198 333.296 69.4758 333.296ZM76.9905 334H75.9025V327.184H74.3505V326.256H75.9025V323.808H76.9905V326.256H78.5425V327.184H76.9905V334ZM83.8736 330.144C83.8736 327.712 85.3616 326.048 87.6176 326.048C89.4096 326.048 90.7216 327.088 91.0256 328.688H89.9216C89.6336 327.616 88.7056 327.024 87.6336 327.024C86.0656 327.024 84.9616 328.224 84.9616 330.128C84.9616 331.968 85.9856 333.2 87.5536 333.2C88.7056 333.2 89.6336 332.56 89.9376 331.568H91.0576C90.6896 333.152 89.3136 334.192 87.5536 334.192C85.3616 334.192 83.8736 332.576 83.8736 330.144ZM98.1701 326.256H99.2741V334H98.3141L98.1701 332.688C97.7381 333.584 96.6661 334.192 95.4501 334.192C93.6261 334.192 92.6341 332.944 92.6341 331.056V326.24H93.7541V330.704C93.7541 332.544 94.5701 333.2 95.8021 333.2C97.2901 333.2 98.1701 332.208 98.1701 330.368V326.256ZM100.762 331.824H101.818C101.818 332.72 102.49 333.28 103.578 333.28C104.778 333.28 105.482 332.768 105.482 331.936C105.482 331.296 105.162 330.928 104.25 330.704L102.922 330.368C101.578 330.032 100.922 329.328 100.922 328.272C100.922 326.912 102.058 326.048 103.722 326.048C105.354 326.048 106.41 326.944 106.458 328.384H105.386C105.354 327.488 104.73 326.96 103.69 326.96C102.602 326.96 101.994 327.424 101.994 328.256C101.994 328.848 102.41 329.264 103.258 329.472L104.586 329.808C105.93 330.144 106.538 330.768 106.538 331.888C106.538 333.28 105.354 334.192 103.594 334.192C101.85 334.192 100.762 333.264 100.762 331.824ZM110.131 334H109.043V327.184H107.491V326.256H109.043V323.808H110.131V326.256H111.683V327.184H110.131V334ZM112.499 330.128C112.499 327.76 114.163 326.048 116.435 326.048C118.707 326.048 120.371 327.76 120.371 330.128C120.371 332.48 118.707 334.192 116.435 334.192C114.163 334.192 112.499 332.48 112.499 330.128ZM113.619 330.112C113.619 331.936 114.771 333.2 116.435 333.2C118.083 333.2 119.251 331.936 119.251 330.112C119.251 328.32 118.083 327.04 116.435 327.04C114.771 327.04 113.619 328.32 113.619 330.112ZM123.24 334H122.136V326.256H123.096L123.224 327.36C123.608 326.544 124.472 326.048 125.56 326.048C126.776 326.048 127.688 326.688 128.056 327.696C128.408 326.688 129.352 326.048 130.6 326.048C132.28 326.048 133.384 327.136 133.384 328.928V334H132.312V329.152C132.312 327.824 131.576 327.04 130.392 327.04C129.096 327.04 128.328 328.016 128.328 329.216V334H127.24V329.136C127.24 327.824 126.488 327.056 125.32 327.056C124.024 327.056 123.24 328.016 123.24 329.2V334ZM138.853 334.192C136.581 334.192 135.061 332.56 135.061 330.128C135.061 327.712 136.565 326.048 138.773 326.048C140.869 326.048 142.293 327.536 142.293 329.728V330.272H136.133C136.213 332.16 137.205 333.248 138.869 333.248C140.133 333.248 140.949 332.704 141.237 331.68H142.293C141.877 333.312 140.677 334.192 138.853 334.192ZM138.773 326.992C137.317 326.992 136.357 327.952 136.165 329.472H141.189C141.189 327.984 140.229 326.992 138.773 326.992ZM148.106 326.16V327.152H147.498C146.074 327.152 145.162 328.112 145.162 329.584V334H144.058V326.256H145.098L145.178 327.456C145.482 326.624 146.298 326.08 147.386 326.08C147.626 326.08 147.834 326.096 148.106 326.16ZM148.918 331.824H149.974C149.974 332.72 150.646 333.28 151.734 333.28C152.934 333.28 153.638 332.768 153.638 331.936C153.638 331.296 153.318 330.928 152.406 330.704L151.078 330.368C149.734 330.032 149.078 329.328 149.078 328.272C149.078 326.912 150.214 326.048 151.878 326.048C153.51 326.048 154.566 326.944 154.614 328.384H153.542C153.51 327.488 152.886 326.96 151.846 326.96C150.758 326.96 150.15 327.424 150.15 328.256C150.15 328.848 150.566 329.264 151.414 329.472L152.742 329.808C154.086 330.144 154.694 330.768 154.694 331.888C154.694 333.28 153.51 334.192 151.75 334.192C150.006 334.192 148.918 333.264 148.918 331.824ZM160.293 331.824H161.349C161.349 332.72 162.021 333.28 163.109 333.28C164.309 333.28 165.013 332.768 165.013 331.936C165.013 331.296 164.693 330.928 163.781 330.704L162.453 330.368C161.109 330.032 160.453 329.328 160.453 328.272C160.453 326.912 161.589 326.048 163.253 326.048C164.885 326.048 165.941 326.944 165.989 328.384H164.917C164.885 327.488 164.261 326.96 163.221 326.96C162.133 326.96 161.525 327.424 161.525 328.256C161.525 328.848 161.941 329.264 162.789 329.472L164.117 329.808C165.461 330.144 166.069 330.768 166.069 331.888C166.069 333.28 164.885 334.192 163.125 334.192C161.381 334.192 160.293 333.264 160.293 331.824ZM167.886 337.376V326.256H168.846L168.958 327.824C169.502 326.624 170.59 326.048 171.886 326.048C174.126 326.048 175.47 327.76 175.47 330.096C175.47 332.432 174.174 334.192 171.886 334.192C170.574 334.192 169.534 333.632 168.99 332.512V337.376H167.886ZM169.006 330.128C169.006 331.904 169.998 333.2 171.694 333.2C173.374 333.2 174.35 331.904 174.35 330.128C174.35 328.336 173.374 327.056 171.694 327.056C169.998 327.056 169.006 328.336 169.006 330.128ZM180.478 334.192C178.206 334.192 176.686 332.56 176.686 330.128C176.686 327.712 178.19 326.048 180.398 326.048C182.494 326.048 183.918 327.536 183.918 329.728V330.272H177.758C177.838 332.16 178.83 333.248 180.494 333.248C181.758 333.248 182.574 332.704 182.862 331.68H183.918C183.502 333.312 182.302 334.192 180.478 334.192ZM180.398 326.992C178.942 326.992 177.982 327.952 177.79 329.472H182.814C182.814 327.984 181.854 326.992 180.398 326.992ZM186.787 334H185.683V326.256H186.643L186.803 327.6C187.315 326.608 188.339 326.048 189.459 326.048C191.587 326.048 192.467 327.312 192.467 329.264V334H191.363V329.504C191.363 327.696 190.547 327.056 189.267 327.056C187.683 327.056 186.787 328.208 186.787 329.952V334ZM197.708 334.192C195.452 334.192 194.124 332.464 194.124 330.144C194.124 327.808 195.452 326.048 197.756 326.048C199.036 326.048 200.06 326.608 200.604 327.728V322.336H201.708V334H200.748L200.636 332.416C200.092 333.616 199.004 334.192 197.708 334.192ZM197.9 333.184C199.596 333.184 200.588 331.904 200.588 330.112C200.588 328.336 199.596 327.04 197.9 327.04C196.22 327.04 195.244 328.336 195.244 330.112C195.244 331.904 196.22 333.184 197.9 333.184ZM209.473 326.4L212.337 322.544H213.681L210.673 326.528C211.217 326.256 211.713 326.144 212.241 326.144C214.625 326.144 216.209 327.888 216.209 330.128C216.209 332.48 214.433 334.192 212.145 334.192C209.841 334.192 208.033 332.416 208.033 330.128C208.033 328.8 208.401 327.872 209.473 326.4ZM209.201 330.144C209.201 331.888 210.401 333.152 212.145 333.152C213.841 333.152 215.057 331.888 215.057 330.144C215.057 328.4 213.841 327.152 212.145 327.152C210.401 327.152 209.201 328.4 209.201 330.144ZM216.16 322.544H223.952V323.6L219.44 334H218.256L222.784 323.6H216.16V322.544ZM230.462 325.168C230.462 326.816 229.294 328 227.662 328C226.03 328 224.846 326.816 224.846 325.168C224.846 323.52 226.03 322.32 227.662 322.32C229.294 322.32 230.462 323.52 230.462 325.168ZM236.27 322.544L227.566 334H226.414L235.102 322.544H236.27ZM229.502 325.168C229.502 324.032 228.75 323.248 227.662 323.248C226.558 323.248 225.806 324.032 225.806 325.168C225.806 326.288 226.574 327.088 227.662 327.088C228.734 327.088 229.502 326.288 229.502 325.168ZM237.854 331.376C237.854 333.024 236.686 334.208 235.054 334.208C233.422 334.208 232.238 333.024 232.238 331.376C232.238 329.728 233.422 328.528 235.054 328.528C236.686 328.528 237.854 329.728 237.854 331.376ZM236.894 331.376C236.894 330.24 236.142 329.456 235.054 329.456C233.95 329.456 233.198 330.24 233.198 331.376C233.198 332.496 233.966 333.28 235.054 333.28C236.126 333.28 236.894 332.496 236.894 331.376ZM245.319 334H244.215V326.256H245.174L245.303 327.36C245.687 326.544 246.551 326.048 247.639 326.048C248.855 326.048 249.767 326.688 250.135 327.696C250.487 326.688 251.431 326.048 252.679 326.048C254.359 326.048 255.463 327.136 255.463 328.928V334H254.391V329.152C254.391 327.824 253.655 327.04 252.47 327.04C251.175 327.04 250.407 328.016 250.407 329.216V334H249.319V329.136C249.319 327.824 248.567 327.056 247.399 327.056C246.103 327.056 245.319 328.016 245.319 329.2V334ZM257.139 330.128C257.139 327.76 258.803 326.048 261.075 326.048C263.347 326.048 265.011 327.76 265.011 330.128C265.011 332.48 263.347 334.192 261.075 334.192C258.803 334.192 257.139 332.48 257.139 330.128ZM258.259 330.112C258.259 331.936 259.411 333.2 261.075 333.2C262.723 333.2 263.891 331.936 263.891 330.112C263.891 328.32 262.723 327.04 261.075 327.04C259.411 327.04 258.259 328.32 258.259 330.112ZM270.825 326.16V327.152H270.217C268.793 327.152 267.881 328.112 267.881 329.584V334H266.777V326.256H267.817L267.897 327.456C268.201 326.624 269.017 326.08 270.105 326.08C270.345 326.08 270.553 326.096 270.825 326.16ZM275.244 334.192C272.972 334.192 271.452 332.56 271.452 330.128C271.452 327.712 272.956 326.048 275.164 326.048C277.26 326.048 278.684 327.536 278.684 329.728V330.272H272.524C272.604 332.16 273.596 333.248 275.26 333.248C276.524 333.248 277.34 332.704 277.628 331.68H278.684C278.268 333.312 277.068 334.192 275.244 334.192ZM275.164 326.992C273.708 326.992 272.748 327.952 272.556 329.472H277.58C277.58 327.984 276.62 326.992 275.164 326.992ZM32.928 358H31.84V351.184H30.288V350.256H31.84V347.808H32.928V350.256H34.48V351.184H32.928V358ZM37.0216 357.984H35.9176V346.336H37.0216V351.6C37.5176 350.672 38.4616 350.048 39.7576 350.048C41.7896 350.048 42.7016 351.312 42.7016 353.264V358H41.5976V353.504C41.5976 351.696 40.7496 351.056 39.5496 351.056C37.8856 351.056 37.0216 352.288 37.0216 353.776V357.984ZM47.126 358.192C45.478 358.192 44.502 357.264 44.502 355.904C44.502 354.48 45.59 353.584 47.398 353.44L49.958 353.232V352.976C49.958 351.456 49.046 350.976 47.91 350.976C46.566 350.976 45.766 351.584 45.766 352.624H44.758C44.758 351.056 46.038 350.048 47.942 350.048C49.734 350.048 51.046 350.944 51.046 352.992V358H50.118L49.974 356.64C49.494 357.616 48.438 358.192 47.126 358.192ZM47.382 357.296C49.014 357.296 49.958 356.16 49.958 354.48V354.064L47.67 354.24C46.214 354.368 45.622 355.008 45.622 355.872C45.622 356.816 46.326 357.296 47.382 357.296ZM54.3654 358H53.2614V350.256H54.2214L54.3814 351.6C54.8934 350.608 55.9174 350.048 57.0374 350.048C59.1654 350.048 60.0454 351.312 60.0454 353.264V358H58.9414V353.504C58.9414 351.696 58.1254 351.056 56.8454 351.056C55.2614 351.056 54.3654 352.208 54.3654 353.952V358ZM67.7873 358H66.6833V350.256H67.6432L67.8033 351.6C68.3153 350.608 69.3393 350.048 70.4593 350.048C72.5873 350.048 73.4673 351.312 73.4673 353.264V358H72.3633V353.504C72.3633 351.696 71.5473 351.056 70.2673 351.056C68.6833 351.056 67.7873 352.208 67.7873 353.952V358ZM78.9156 358.192C76.6436 358.192 75.1236 356.56 75.1236 354.128C75.1236 351.712 76.6276 350.048 78.8356 350.048C80.9316 350.048 82.3556 351.536 82.3556 353.728V354.272H76.1956C76.2756 356.16 77.2676 357.248 78.9316 357.248C80.1956 357.248 81.0116 356.704 81.2996 355.68H82.3556C81.9396 357.312 80.7396 358.192 78.9156 358.192ZM78.8356 350.992C77.3796 350.992 76.4196 351.952 76.2276 353.472H81.2516C81.2516 351.984 80.2916 350.992 78.8356 350.992ZM85.5496 358L82.9896 350.256H84.1256L85.6456 354.928C85.8216 355.44 85.9656 355.968 86.1256 356.592C86.2536 355.968 86.5096 355.184 86.5896 354.928L88.1256 350.256H89.2616L90.7816 354.928C90.9256 355.344 91.1176 356.016 91.2616 356.592C91.4216 355.952 91.4536 355.76 91.7256 354.928L93.2616 350.256H94.4136L91.7896 358H90.7176L89.1176 353.136C88.9256 352.56 88.7976 352.08 88.7016 351.616C88.5896 352.032 88.4616 352.496 88.2536 353.136L86.6536 358H85.5496ZM99.6861 354.144C99.6861 351.712 101.174 350.048 103.43 350.048C105.222 350.048 106.534 351.088 106.838 352.688H105.734C105.446 351.616 104.518 351.024 103.446 351.024C101.878 351.024 100.774 352.224 100.774 354.128C100.774 355.968 101.798 357.2 103.366 357.2C104.518 357.2 105.446 356.56 105.75 355.568H106.87C106.502 357.152 105.126 358.192 103.366 358.192C101.174 358.192 99.6861 356.576 99.6861 354.144ZM113.983 350.256H115.087V358H114.127L113.983 356.688C113.551 357.584 112.479 358.192 111.263 358.192C109.439 358.192 108.447 356.944 108.447 355.056V350.24H109.567V354.704C109.567 356.544 110.383 357.2 111.615 357.2C113.103 357.2 113.983 356.208 113.983 354.368V350.256ZM116.574 355.824H117.63C117.63 356.72 118.302 357.28 119.39 357.28C120.59 357.28 121.294 356.768 121.294 355.936C121.294 355.296 120.974 354.928 120.062 354.704L118.734 354.368C117.39 354.032 116.734 353.328 116.734 352.272C116.734 350.912 117.87 350.048 119.534 350.048C121.166 350.048 122.222 350.944 122.27 352.384H121.198C121.166 351.488 120.542 350.96 119.502 350.96C118.414 350.96 117.806 351.424 117.806 352.256C117.806 352.848 118.222 353.264 119.07 353.472L120.398 353.808C121.742 354.144 122.35 354.768 122.35 355.888C122.35 357.28 121.166 358.192 119.406 358.192C117.662 358.192 116.574 357.264 116.574 355.824ZM125.944 358H124.856V351.184H123.304V350.256H124.856V347.808H125.944V350.256H127.496V351.184H125.944V358ZM128.311 354.128C128.311 351.76 129.975 350.048 132.247 350.048C134.519 350.048 136.183 351.76 136.183 354.128C136.183 356.48 134.519 358.192 132.247 358.192C129.975 358.192 128.311 356.48 128.311 354.128ZM129.431 354.112C129.431 355.936 130.583 357.2 132.247 357.2C133.895 357.2 135.063 355.936 135.063 354.112C135.063 352.32 133.895 351.04 132.247 351.04C130.583 351.04 129.431 352.32 129.431 354.112ZM139.053 358H137.949V350.256H138.909L139.037 351.36C139.421 350.544 140.285 350.048 141.373 350.048C142.589 350.048 143.501 350.688 143.869 351.696C144.221 350.688 145.165 350.048 146.413 350.048C148.093 350.048 149.197 351.136 149.197 352.928V358H148.125V353.152C148.125 351.824 147.389 351.04 146.205 351.04C144.909 351.04 144.141 352.016 144.141 353.216V358H143.053V353.136C143.053 351.824 142.301 351.056 141.133 351.056C139.837 351.056 139.053 352.016 139.053 353.2V358ZM154.666 358.192C152.394 358.192 150.874 356.56 150.874 354.128C150.874 351.712 152.378 350.048 154.586 350.048C156.682 350.048 158.106 351.536 158.106 353.728V354.272H151.946C152.026 356.16 153.018 357.248 154.682 357.248C155.946 357.248 156.762 356.704 157.05 355.68H158.106C157.69 357.312 156.49 358.192 154.666 358.192ZM154.586 350.992C153.13 350.992 152.17 351.952 151.978 353.472H157.002C157.002 351.984 156.042 350.992 154.586 350.992ZM163.919 350.16V351.152H163.311C161.887 351.152 160.975 352.112 160.975 353.584V358H159.871V350.256H160.911L160.991 351.456C161.295 350.624 162.111 350.08 163.199 350.08C163.439 350.08 163.647 350.096 163.919 350.16ZM164.73 355.824H165.786C165.786 356.72 166.458 357.28 167.546 357.28C168.746 357.28 169.45 356.768 169.45 355.936C169.45 355.296 169.13 354.928 168.218 354.704L166.89 354.368C165.546 354.032 164.89 353.328 164.89 352.272C164.89 350.912 166.026 350.048 167.69 350.048C169.322 350.048 170.378 350.944 170.426 352.384H169.354C169.322 351.488 168.698 350.96 167.658 350.96C166.57 350.96 165.962 351.424 165.962 352.256C165.962 352.848 166.378 353.264 167.226 353.472L168.554 353.808C169.898 354.144 170.506 354.768 170.506 355.888C170.506 357.28 169.322 358.192 167.562 358.192C165.818 358.192 164.73 357.264 164.73 355.824Z" fill="#26292F"/>
<line x1="30.5" y1="30" x2="30.5" y2="286" stroke="#26292F" stroke-opacity="0.15"/>
<line x1="377" y1="286.5" x2="30" y2="286.5" stroke="#26292F" stroke-opacity="0.15"/>
<path d="M253 82C261.284 82 268 88.7157 268 97L268 118C268 126.284 261.284 133 253 133L30 133L30 82L253 82Z" fill="#FFD7F2"/>
<mask id="mask0_30557_1193" style="mask-type:alpha" maskUnits="userSpaceOnUse" x="30" y="82" width="238" height="51">
<path d="M253 82C261.284 82 268 88.7157 268 97L268 118C268 126.284 261.284 133 253 133L30 133L30 82L253 82Z" fill="#FFD7F2"/>
</mask>
<g mask="url(#mask0_30557_1193)">
<line x1="237.951" y1="136.587" x2="227.066" y2="78.5997" stroke="#26292F" stroke-opacity="0.15"/>
<line x1="241.394" y1="135.08" x2="230.508" y2="77.0924" stroke="#26292F" stroke-opacity="0.15"/>
<line x1="257.394" y1="134.08" x2="246.508" y2="76.0924" stroke="#26292F" stroke-opacity="0.15"/>
<line x1="269.394" y1="135.08" x2="258.508" y2="77.0924" stroke="#26292F" stroke-opacity="0.15"/>
<line x1="273.394" y1="134.08" x2="262.508" y2="76.0924" stroke="#26292F" stroke-opacity="0.15"/>
<line x1="265.394" y1="134.08" x2="254.508" y2="76.0924" stroke="#26292F" stroke-opacity="0.15"/>
<line x1="261.394" y1="135.08" x2="250.508" y2="77.0924" stroke="#26292F" stroke-opacity="0.15"/>
<line x1="253.394" y1="134.08" x2="242.508" y2="76.0924" stroke="#26292F" stroke-opacity="0.15"/>
<line x1="249.394" y1="135.08" x2="238.508" y2="77.0924" stroke="#26292F" stroke-opacity="0.15"/>
<line x1="245.394" y1="135.08" x2="234.508" y2="77.0924" stroke="#26292F" stroke-opacity="0.15"/>
<line x1="233.951" y1="136.587" x2="223.066" y2="78.5997" stroke="#26292F" stroke-opacity="0.15"/>
<line x1="229.951" y1="136.586" x2="219.066" y2="78.5993" stroke="#26292F" stroke-opacity="0.15"/>
<line x1="225.951" y1="136.586" x2="215.066" y2="78.5993" stroke="#26292F" stroke-opacity="0.15"/>
<line x1="221.951" y1="136.586" x2="211.066" y2="78.5993" stroke="#26292F" stroke-opacity="0.15"/>
<line x1="217.951" y1="136.586" x2="207.066" y2="78.5993" stroke="#26292F" stroke-opacity="0.15"/>
<line x1="213.951" y1="136.586" x2="203.066" y2="78.5993" stroke="#26292F" stroke-opacity="0.15"/>
<line x1="209.951" y1="136.586" x2="199.066" y2="78.5993" stroke="#26292F" stroke-opacity="0.15"/>
<line x1="205.951" y1="136.586" x2="195.066" y2="78.5993" stroke="#26292F" stroke-opacity="0.15"/>
<line x1="201.951" y1="136.586" x2="191.066" y2="78.5993" stroke="#26292F" stroke-opacity="0.15"/>
<line x1="197.951" y1="136.586" x2="187.066" y2="78.5993" stroke="#26292F" stroke-opacity="0.15"/>
<line x1="193.951" y1="136.586" x2="183.066" y2="78.5993" stroke="#26292F" stroke-opacity="0.15"/>
<line x1="189.951" y1="136.586" x2="179.066" y2="78.5993" stroke="#26292F" stroke-opacity="0.15"/>
<line x1="185.951" y1="136.586" x2="175.066" y2="78.5993" stroke="#26292F" stroke-opacity="0.15"/>
<line x1="181.951" y1="136.586" x2="171.066" y2="78.5993" stroke="#26292F" stroke-opacity="0.15"/>
<line x1="177.951" y1="136.586" x2="167.066" y2="78.5993" stroke="#26292F" stroke-opacity="0.15"/>
<line x1="173.951" y1="136.586" x2="163.066" y2="78.5993" stroke="#26292F" stroke-opacity="0.15"/>
<line x1="169.951" y1="136.586" x2="159.066" y2="78.5993" stroke="#26292F" stroke-opacity="0.15"/>
<line x1="165.951" y1="136.586" x2="155.066" y2="78.5993" stroke="#26292F" stroke-opacity="0.15"/>
<line x1="161.951" y1="136.586" x2="151.066" y2="78.5993" stroke="#26292F" stroke-opacity="0.15"/>
<line x1="157.951" y1="136.586" x2="147.066" y2="78.5993" stroke="#26292F" stroke-opacity="0.15"/>
<line x1="153.951" y1="136.586" x2="143.066" y2="78.5993" stroke="#26292F" stroke-opacity="0.15"/>
<line x1="149.951" y1="136.586" x2="139.066" y2="78.5993" stroke="#26292F" stroke-opacity="0.15"/>
<line x1="145.951" y1="136.586" x2="135.066" y2="78.5993" stroke="#26292F" stroke-opacity="0.15"/>
<line x1="141.951" y1="136.586" x2="131.066" y2="78.5993" stroke="#26292F" stroke-opacity="0.15"/>
<line x1="137.951" y1="136.586" x2="127.066" y2="78.5993" stroke="#26292F" stroke-opacity="0.15"/>
<line x1="133.951" y1="136.586" x2="123.066" y2="78.5993" stroke="#26292F" stroke-opacity="0.15"/>
<line x1="129.951" y1="136.586" x2="119.066" y2="78.5993" stroke="#26292F" stroke-opacity="0.15"/>
<line x1="125.951" y1="136.586" x2="115.066" y2="78.5993" stroke="#26292F" stroke-opacity="0.15"/>
<line x1="121.951" y1="136.586" x2="111.066" y2="78.5993" stroke="#26292F" stroke-opacity="0.15"/>
<line x1="117.951" y1="136.586" x2="107.066" y2="78.5993" stroke="#26292F" stroke-opacity="0.15"/>
<line x1="113.951" y1="136.586" x2="103.066" y2="78.5993" stroke="#26292F" stroke-opacity="0.15"/>
<line x1="109.951" y1="136.586" x2="99.0661" y2="78.5993" stroke="#26292F" stroke-opacity="0.15"/>
<line x1="105.951" y1="136.586" x2="95.0661" y2="78.5993" stroke="#26292F" stroke-opacity="0.15"/>
<line x1="101.951" y1="136.586" x2="91.0661" y2="78.5993" stroke="#26292F" stroke-opacity="0.15"/>
<line x1="97.9515" y1="136.586" x2="87.0661" y2="78.5993" stroke="#26292F" stroke-opacity="0.15"/>
<line x1="93.9515" y1="136.586" x2="83.0661" y2="78.5993" stroke="#26292F" stroke-opacity="0.15"/>
<line x1="89.9515" y1="136.586" x2="79.0661" y2="78.5993" stroke="#26292F" stroke-opacity="0.15"/>
<line x1="85.9515" y1="136.586" x2="75.0661" y2="78.5993" stroke="#26292F" stroke-opacity="0.15"/>
<line x1="81.9515" y1="136.586" x2="71.0661" y2="78.5993" stroke="#26292F" stroke-opacity="0.15"/>
<line x1="77.9515" y1="136.586" x2="67.0661" y2="78.5993" stroke="#26292F" stroke-opacity="0.15"/>
<line x1="73.9515" y1="136.586" x2="63.0661" y2="78.5993" stroke="#26292F" stroke-opacity="0.15"/>
<line x1="69.9515" y1="136.586" x2="59.0661" y2="78.5993" stroke="#26292F" stroke-opacity="0.15"/>
<line x1="65.9515" y1="136.586" x2="55.0661" y2="78.5993" stroke="#26292F" stroke-opacity="0.15"/>
<line x1="61.9515" y1="136.586" x2="51.0661" y2="78.5993" stroke="#26292F" stroke-opacity="0.15"/>
<line x1="57.9515" y1="136.586" x2="47.0661" y2="78.5993" stroke="#26292F" stroke-opacity="0.15"/>
<line x1="53.9515" y1="136.586" x2="43.0661" y2="78.5993" stroke="#26292F" stroke-opacity="0.15"/>
<line x1="49.9515" y1="136.586" x2="39.0661" y2="78.5993" stroke="#26292F" stroke-opacity="0.15"/>
<line x1="45.9515" y1="136.586" x2="35.0661" y2="78.5993" stroke="#26292F" stroke-opacity="0.15"/>
<line x1="41.9515" y1="136.586" x2="31.0661" y2="78.5993" stroke="#26292F" stroke-opacity="0.15"/>
<line x1="37.9515" y1="136.586" x2="27.0661" y2="78.5993" stroke="#26292F" stroke-opacity="0.15"/>
<line x1="33.9515" y1="136.586" x2="23.0661" y2="78.5993" stroke="#26292F" stroke-opacity="0.15"/>
</g>
<path d="M101 183C109.284 183 116 189.716 116 198L116 219C116 227.284 109.284 234 101 234L30 234L30 183L101 183Z" fill="#D7FFE9"/>
<mask id="mask1_30557_1193" style="mask-type:alpha" maskUnits="userSpaceOnUse" x="30" y="183" width="86" height="51">
<path d="M101 183C109.284 183 116 189.716 116 198L116 219C116 227.284 109.284 234 101 234L30 234L30 183L101 183Z" fill="#FFD7F2"/>
</mask>
<g mask="url(#mask1_30557_1193)">
<line x1="126.951" y1="237.586" x2="116.066" y2="179.599" stroke="#26292F" stroke-opacity="0.15"/>
<line x1="122.951" y1="237.586" x2="112.066" y2="179.599" stroke="#26292F" stroke-opacity="0.15"/>
<line x1="118.951" y1="237.587" x2="108.066" y2="179.6" stroke="#26292F" stroke-opacity="0.15"/>
<line x1="114.951" y1="237.586" x2="104.066" y2="179.599" stroke="#26292F" stroke-opacity="0.15"/>
<line x1="110.951" y1="237.586" x2="100.066" y2="179.599" stroke="#26292F" stroke-opacity="0.15"/>
<line x1="106.951" y1="237.586" x2="96.0661" y2="179.599" stroke="#26292F" stroke-opacity="0.15"/>
<line x1="102.951" y1="237.586" x2="92.0661" y2="179.599" stroke="#26292F" stroke-opacity="0.15"/>
<line x1="98.9515" y1="237.586" x2="88.0661" y2="179.599" stroke="#26292F" stroke-opacity="0.15"/>
<line x1="94.9515" y1="237.586" x2="84.0661" y2="179.599" stroke="#26292F" stroke-opacity="0.15"/>
<line x1="90.9515" y1="237.586" x2="80.0661" y2="179.599" stroke="#26292F" stroke-opacity="0.15"/>
<line x1="86.9515" y1="237.586" x2="76.0661" y2="179.599" stroke="#26292F" stroke-opacity="0.15"/>
<line x1="82.9515" y1="237.586" x2="72.0661" y2="179.599" stroke="#26292F" stroke-opacity="0.15"/>
<line x1="78.9515" y1="237.586" x2="68.0661" y2="179.599" stroke="#26292F" stroke-opacity="0.15"/>
<line x1="74.9515" y1="237.586" x2="64.0661" y2="179.599" stroke="#26292F" stroke-opacity="0.15"/>
<line x1="70.9515" y1="237.586" x2="60.0661" y2="179.599" stroke="#26292F" stroke-opacity="0.15"/>
<line x1="66.9515" y1="237.586" x2="56.0661" y2="179.599" stroke="#26292F" stroke-opacity="0.15"/>
<line x1="62.9515" y1="237.586" x2="52.0661" y2="179.599" stroke="#26292F" stroke-opacity="0.15"/>
<line x1="58.9515" y1="237.586" x2="48.0661" y2="179.599" stroke="#26292F" stroke-opacity="0.15"/>
<line x1="54.9515" y1="237.586" x2="44.0661" y2="179.599" stroke="#26292F" stroke-opacity="0.15"/>
<line x1="50.9515" y1="237.586" x2="40.0661" y2="179.599" stroke="#26292F" stroke-opacity="0.15"/>
<line x1="46.9515" y1="237.586" x2="36.0661" y2="179.599" stroke="#26292F" stroke-opacity="0.15"/>
<line x1="42.9515" y1="237.586" x2="32.0661" y2="179.599" stroke="#26292F" stroke-opacity="0.15"/>
<line x1="38.9515" y1="237.586" x2="28.0661" y2="179.599" stroke="#26292F" stroke-opacity="0.15"/>
<line x1="34.9515" y1="237.586" x2="24.0661" y2="179.599" stroke="#26292F" stroke-opacity="0.15"/>
<line x1="30.9515" y1="237.586" x2="20.0661" y2="179.599" stroke="#26292F" stroke-opacity="0.15"/>
</g>
<path d="M282.574 101H281.038V92.228H284.386C286.378 92.228 287.542 93.236 287.542 94.964C287.542 96.14 286.99 96.98 285.958 97.4L287.626 101H285.946L284.458 97.724H282.574V101ZM282.574 93.596V96.368H284.386C285.358 96.368 285.934 95.852 285.934 94.964C285.934 94.088 285.358 93.596 284.386 93.596H282.574ZM291.092 101.156C289.328 101.156 288.092 99.872 288.092 98.036C288.092 96.176 289.304 94.892 291.044 94.892C292.82 94.892 293.948 96.08 293.948 97.928V98.372L289.484 98.384C289.592 99.428 290.144 99.956 291.116 99.956C291.92 99.956 292.448 99.644 292.616 99.08H293.972C293.72 100.376 292.64 101.156 291.092 101.156ZM291.056 96.092C290.192 96.092 289.664 96.56 289.52 97.448H292.496C292.496 96.632 291.932 96.092 291.056 96.092ZM295.119 103.748V95.072H296.475L296.571 95.972C296.931 95.288 297.711 94.892 298.611 94.892C300.279 94.892 301.383 96.104 301.383 97.964C301.383 99.812 300.375 101.156 298.611 101.156C297.723 101.156 296.955 100.808 296.583 100.208V103.748H295.119ZM296.595 98.036C296.595 99.104 297.255 99.836 298.263 99.836C299.295 99.836 299.907 99.092 299.907 98.036C299.907 96.98 299.295 96.224 298.263 96.224C297.255 96.224 296.595 96.968 296.595 98.036ZM305.201 101.156C303.437 101.156 302.201 99.872 302.201 98.036C302.201 96.176 303.413 94.892 305.153 94.892C306.929 94.892 308.057 96.08 308.057 97.928V98.372L303.593 98.384C303.701 99.428 304.253 99.956 305.225 99.956C306.029 99.956 306.557 99.644 306.725 99.08H308.081C307.829 100.376 306.749 101.156 305.201 101.156ZM305.165 96.092C304.301 96.092 303.773 96.56 303.629 97.448H306.605C306.605 96.632 306.041 96.092 305.165 96.092ZM310.934 101.156C309.674 101.156 308.906 100.424 308.906 99.308C308.906 98.216 309.698 97.532 311.102 97.424L312.878 97.292V97.16C312.878 96.356 312.398 96.032 311.654 96.032C310.79 96.032 310.31 96.392 310.31 97.016H309.062C309.062 95.732 310.118 94.892 311.726 94.892C313.322 94.892 314.306 95.756 314.306 97.4V101H313.022L312.914 100.124C312.662 100.736 311.858 101.156 310.934 101.156ZM311.414 100.052C312.314 100.052 312.89 99.512 312.89 98.6V98.288L311.654 98.384C310.742 98.468 310.394 98.768 310.394 99.248C310.394 99.788 310.754 100.052 311.414 100.052ZM317.678 101H316.214V96.296H315.074V95.072H316.214V93.224H317.678V95.072H318.83V96.296H317.678V101ZM326.899 101.144C324.343 101.144 322.687 99.368 322.687 96.62C322.687 93.896 324.403 92.084 326.971 92.084C329.047 92.084 330.595 93.296 330.895 95.18H329.275C328.975 94.16 328.099 93.56 326.935 93.56C325.315 93.56 324.295 94.736 324.295 96.608C324.295 98.468 325.327 99.668 326.935 99.668C328.123 99.668 329.035 99.044 329.323 98.072H330.919C330.583 99.92 328.975 101.144 326.899 101.144ZM336.1 95.072H337.564V101H336.208L336.1 100.208C335.74 100.772 334.972 101.156 334.18 101.156C332.812 101.156 332.008 100.232 332.008 98.78V95.072H333.472V98.264C333.472 99.392 333.916 99.848 334.732 99.848C335.656 99.848 336.1 99.308 336.1 98.18V95.072ZM338.503 99.2H339.895C339.907 99.716 340.291 100.04 340.963 100.04C341.647 100.04 342.019 99.764 342.019 99.332C342.019 99.032 341.863 98.816 341.335 98.696L340.267 98.444C339.199 98.204 338.683 97.7 338.683 96.752C338.683 95.588 339.667 94.892 341.035 94.892C342.367 94.892 343.267 95.66 343.279 96.812H341.887C341.875 96.308 341.539 95.984 340.975 95.984C340.399 95.984 340.063 96.248 340.063 96.692C340.063 97.028 340.327 97.244 340.831 97.364L341.899 97.616C342.895 97.844 343.399 98.3 343.399 99.212C343.399 100.412 342.379 101.156 340.915 101.156C339.439 101.156 338.503 100.364 338.503 99.2ZM346.53 101H345.066V96.296H343.926V95.072H345.066V93.224H346.53V95.072H347.682V96.296H346.53V101ZM348.185 98.024C348.185 96.176 349.517 94.904 351.353 94.904C353.189 94.904 354.521 96.176 354.521 98.024C354.521 99.872 353.189 101.144 351.353 101.144C349.517 101.144 348.185 99.872 348.185 98.024ZM349.649 98.024C349.649 99.104 350.345 99.836 351.353 99.836C352.361 99.836 353.057 99.104 353.057 98.024C353.057 96.944 352.361 96.212 351.353 96.212C350.345 96.212 349.649 96.944 349.649 98.024ZM357.146 101H355.682V95.072H357.026L357.146 95.768C357.446 95.276 358.046 94.892 358.898 94.892C359.798 94.892 360.422 95.336 360.734 96.02C361.034 95.336 361.73 94.892 362.63 94.892C364.07 94.892 364.862 95.756 364.862 97.124V101H363.41V97.508C363.41 96.656 362.954 96.212 362.258 96.212C361.55 96.212 361.01 96.668 361.01 97.64V101H359.546V97.496C359.546 96.668 359.102 96.224 358.406 96.224C357.71 96.224 357.146 96.68 357.146 97.64V101ZM368.951 101.156C367.187 101.156 365.951 99.872 365.951 98.036C365.951 96.176 367.163 94.892 368.903 94.892C370.679 94.892 371.807 96.08 371.807 97.928V98.372L367.343 98.384C367.451 99.428 368.003 99.956 368.975 99.956C369.779 99.956 370.307 99.644 370.475 99.08H371.831C371.579 100.376 370.499 101.156 368.951 101.156ZM368.915 96.092C368.051 96.092 367.523 96.56 367.379 97.448H370.355C370.355 96.632 369.791 96.092 368.915 96.092ZM376.699 95.048V96.404H376.159C375.103 96.404 374.443 96.968 374.443 98.12V101H372.979V95.084H374.359L374.443 95.948C374.695 95.36 375.259 94.964 376.051 94.964C376.255 94.964 376.459 94.988 376.699 95.048ZM307.266 119H305.73V110.228H309.078C311.07 110.228 312.234 111.236 312.234 112.964C312.234 114.14 311.682 114.98 310.65 115.4L312.318 119H310.638L309.15 115.724H307.266V119ZM307.266 111.596V114.368H309.078C310.05 114.368 310.626 113.852 310.626 112.964C310.626 112.088 310.05 111.596 309.078 111.596H307.266ZM315.783 119.156C314.019 119.156 312.783 117.872 312.783 116.036C312.783 114.176 313.995 112.892 315.735 112.892C317.511 112.892 318.639 114.08 318.639 115.928V116.372L314.175 116.384C314.283 117.428 314.835 117.956 315.807 117.956C316.611 117.956 317.139 117.644 317.307 117.08H318.663C318.411 118.376 317.331 119.156 315.783 119.156ZM315.747 114.092C314.883 114.092 314.355 114.56 314.211 115.448H317.187C317.187 114.632 316.623 114.092 315.747 114.092ZM321.233 119L318.881 113.072H320.441L321.473 115.796C321.725 116.504 321.929 117.116 322.001 117.44C322.085 117.068 322.301 116.444 322.553 115.796L323.633 113.072H325.145L322.673 119H321.233ZM328.346 119.156C326.582 119.156 325.346 117.872 325.346 116.036C325.346 114.176 326.558 112.892 328.298 112.892C330.074 112.892 331.202 114.08 331.202 115.928V116.372L326.738 116.384C326.846 117.428 327.398 117.956 328.37 117.956C329.174 117.956 329.702 117.644 329.87 117.08H331.226C330.974 118.376 329.894 119.156 328.346 119.156ZM328.31 114.092C327.446 114.092 326.918 114.56 326.774 115.448H329.75C329.75 114.632 329.186 114.092 328.31 114.092ZM333.837 119H332.373V113.072H333.729L333.849 113.84C334.221 113.24 334.941 112.892 335.745 112.892C337.233 112.892 338.001 113.816 338.001 115.352V119H336.537V115.7C336.537 114.704 336.045 114.224 335.289 114.224C334.389 114.224 333.837 114.848 333.837 115.808V119ZM343.46 113.072H344.924V119H343.568L343.46 118.208C343.1 118.772 342.332 119.156 341.54 119.156C340.172 119.156 339.368 118.232 339.368 116.78V113.072H340.832V116.264C340.832 117.392 341.276 117.848 342.092 117.848C343.016 117.848 343.46 117.308 343.46 116.18V113.072ZM348.971 119.156C347.207 119.156 345.971 117.872 345.971 116.036C345.971 114.176 347.183 112.892 348.923 112.892C350.699 112.892 351.827 114.08 351.827 115.928V116.372L347.363 116.384C347.471 117.428 348.023 117.956 348.995 117.956C349.799 117.956 350.327 117.644 350.495 117.08H351.851C351.599 118.376 350.519 119.156 348.971 119.156ZM348.935 114.092C348.071 114.092 347.543 114.56 347.399 115.448H350.375C350.375 114.632 349.811 114.092 348.935 114.092Z" fill="#26292F"/>
<path d="M130.97 204H129.458V195.228H130.982L135.098 201.444V195.228H136.61V204H135.098L130.97 197.784V204ZM140.988 204.156C139.224 204.156 137.988 202.872 137.988 201.036C137.988 199.176 139.2 197.892 140.94 197.892C142.716 197.892 143.844 199.08 143.844 200.928V201.372L139.38 201.384C139.488 202.428 140.04 202.956 141.012 202.956C141.816 202.956 142.344 202.644 142.512 202.08H143.868C143.616 203.376 142.536 204.156 140.988 204.156ZM140.952 199.092C140.088 199.092 139.56 199.56 139.416 200.448H142.392C142.392 199.632 141.828 199.092 140.952 199.092ZM146.066 204L144.146 198.072H145.67L146.45 200.616C146.582 201.084 146.702 201.6 146.81 202.152C146.918 201.576 147.026 201.204 147.218 200.616L148.034 198.072H149.522L150.314 200.616C150.386 200.856 150.626 201.744 150.698 202.14C150.794 201.696 150.986 200.988 151.094 200.616L151.886 198.072H153.434L151.382 204H150.014L149.198 201.432C148.958 200.652 148.826 200.088 148.778 199.788C148.718 200.064 148.61 200.484 148.31 201.456L147.494 204H146.066ZM161.479 204.144C158.923 204.144 157.267 202.368 157.267 199.62C157.267 196.896 158.983 195.084 161.551 195.084C163.627 195.084 165.175 196.296 165.475 198.18H163.855C163.555 197.16 162.679 196.56 161.515 196.56C159.895 196.56 158.875 197.736 158.875 199.608C158.875 201.468 159.907 202.668 161.515 202.668C162.703 202.668 163.615 202.044 163.903 201.072H165.499C165.163 202.92 163.555 204.144 161.479 204.144ZM170.68 198.072H172.144V204H170.788L170.68 203.208C170.32 203.772 169.552 204.156 168.76 204.156C167.392 204.156 166.588 203.232 166.588 201.78V198.072H168.052V201.264C168.052 202.392 168.496 202.848 169.312 202.848C170.236 202.848 170.68 202.308 170.68 201.18V198.072ZM173.083 202.2H174.475C174.487 202.716 174.871 203.04 175.543 203.04C176.227 203.04 176.599 202.764 176.599 202.332C176.599 202.032 176.443 201.816 175.915 201.696L174.847 201.444C173.779 201.204 173.263 200.7 173.263 199.752C173.263 198.588 174.247 197.892 175.615 197.892C176.947 197.892 177.847 198.66 177.859 199.812H176.467C176.455 199.308 176.119 198.984 175.555 198.984C174.979 198.984 174.643 199.248 174.643 199.692C174.643 200.028 174.907 200.244 175.411 200.364L176.479 200.616C177.475 200.844 177.979 201.3 177.979 202.212C177.979 203.412 176.959 204.156 175.495 204.156C174.019 204.156 173.083 203.364 173.083 202.2ZM181.11 204H179.646V199.296H178.506V198.072H179.646V196.224H181.11V198.072H182.262V199.296H181.11V204ZM182.765 201.024C182.765 199.176 184.097 197.904 185.933 197.904C187.769 197.904 189.101 199.176 189.101 201.024C189.101 202.872 187.769 204.144 185.933 204.144C184.097 204.144 182.765 202.872 182.765 201.024ZM184.229 201.024C184.229 202.104 184.925 202.836 185.933 202.836C186.941 202.836 187.637 202.104 187.637 201.024C187.637 199.944 186.941 199.212 185.933 199.212C184.925 199.212 184.229 199.944 184.229 201.024ZM191.726 204H190.262V198.072H191.606L191.726 198.768C192.026 198.276 192.626 197.892 193.478 197.892C194.378 197.892 195.002 198.336 195.314 199.02C195.614 198.336 196.31 197.892 197.21 197.892C198.65 197.892 199.442 198.756 199.442 200.124V204H197.99V200.508C197.99 199.656 197.534 199.212 196.838 199.212C196.13 199.212 195.59 199.668 195.59 200.64V204H194.126V200.496C194.126 199.668 193.682 199.224 192.986 199.224C192.29 199.224 191.726 199.68 191.726 200.64V204ZM203.531 204.156C201.767 204.156 200.531 202.872 200.531 201.036C200.531 199.176 201.743 197.892 203.483 197.892C205.259 197.892 206.387 199.08 206.387 200.928V201.372L201.923 201.384C202.031 202.428 202.583 202.956 203.555 202.956C204.359 202.956 204.887 202.644 205.055 202.08H206.411C206.159 203.376 205.079 204.156 203.531 204.156ZM203.495 199.092C202.631 199.092 202.103 199.56 201.959 200.448H204.935C204.935 199.632 204.371 199.092 203.495 199.092ZM211.279 198.048V199.404H210.739C209.683 199.404 209.023 199.968 209.023 201.12V204H207.559V198.084H208.939L209.023 198.948C209.275 198.36 209.839 197.964 210.631 197.964C210.835 197.964 211.039 197.988 211.279 198.048ZM148.766 222H147.23V213.228H150.578C152.57 213.228 153.734 214.236 153.734 215.964C153.734 217.14 153.182 217.98 152.15 218.4L153.818 222H152.138L150.65 218.724H148.766V222ZM148.766 214.596V217.368H150.578C151.55 217.368 152.126 216.852 152.126 215.964C152.126 215.088 151.55 214.596 150.578 214.596H148.766ZM157.283 222.156C155.519 222.156 154.283 220.872 154.283 219.036C154.283 217.176 155.495 215.892 157.235 215.892C159.011 215.892 160.139 217.08 160.139 218.928V219.372L155.675 219.384C155.783 220.428 156.335 220.956 157.307 220.956C158.111 220.956 158.639 220.644 158.807 220.08H160.163C159.911 221.376 158.831 222.156 157.283 222.156ZM157.247 217.092C156.383 217.092 155.855 217.56 155.711 218.448H158.687C158.687 217.632 158.123 217.092 157.247 217.092ZM162.733 222L160.381 216.072H161.941L162.973 218.796C163.225 219.504 163.429 220.116 163.501 220.44C163.585 220.068 163.801 219.444 164.053 218.796L165.133 216.072H166.645L164.173 222H162.733ZM169.846 222.156C168.082 222.156 166.846 220.872 166.846 219.036C166.846 217.176 168.058 215.892 169.798 215.892C171.574 215.892 172.702 217.08 172.702 218.928V219.372L168.238 219.384C168.346 220.428 168.898 220.956 169.87 220.956C170.674 220.956 171.202 220.644 171.37 220.08H172.726C172.474 221.376 171.394 222.156 169.846 222.156ZM169.81 217.092C168.946 217.092 168.418 217.56 168.274 218.448H171.25C171.25 217.632 170.686 217.092 169.81 217.092ZM175.337 222H173.873V216.072H175.229L175.349 216.84C175.721 216.24 176.441 215.892 177.245 215.892C178.733 215.892 179.501 216.816 179.501 218.352V222H178.037V218.7C178.037 217.704 177.545 217.224 176.789 217.224C175.889 217.224 175.337 217.848 175.337 218.808V222ZM184.96 216.072H186.424V222H185.068L184.96 221.208C184.6 221.772 183.832 222.156 183.04 222.156C181.672 222.156 180.868 221.232 180.868 219.78V216.072H182.332V219.264C182.332 220.392 182.776 220.848 183.592 220.848C184.516 220.848 184.96 220.308 184.96 219.18V216.072ZM190.471 222.156C188.707 222.156 187.471 220.872 187.471 219.036C187.471 217.176 188.683 215.892 190.423 215.892C192.199 215.892 193.327 217.08 193.327 218.928V219.372L188.863 219.384C188.971 220.428 189.523 220.956 190.495 220.956C191.299 220.956 191.827 220.644 191.995 220.08H193.351C193.099 221.376 192.019 222.156 190.471 222.156ZM190.435 217.092C189.571 217.092 189.043 217.56 188.899 218.448H191.875C191.875 217.632 191.311 217.092 190.435 217.092Z" fill="#26292F"/>
</svg>
