<svg xmlns="http://www.w3.org/2000/svg" width="407" height="394" fill="none"><rect width="407" height="394" fill="#fff" rx="30"/><rect width="406" height="393" x=".5" y=".5" stroke="#26292F" stroke-opacity=".15" rx="29.5"/><path fill="#26292F" d="M32.544 334h-1.152v-11.456h4.272c2.32 0 3.728 1.28 3.728 3.312 0 1.648-.864 2.8-2.336 3.2L39.504 334h-1.28l-2.336-4.752h-3.344zm0-10.416v4.624h3.152c1.584 0 2.512-.864 2.512-2.32 0-1.488-.976-2.304-2.544-2.304zm11.528 10.608c-2.272 0-3.792-1.632-3.792-4.064 0-2.416 1.504-4.08 3.712-4.08 2.096 0 3.52 1.488 3.52 3.68v.544h-6.16c.08 1.888 1.072 2.976 2.736 2.976 1.264 0 2.08-.544 2.368-1.568h1.056c-.416 1.632-1.616 2.512-3.44 2.512m-.08-7.2c-1.456 0-2.416.96-2.608 2.48h5.024c0-1.488-.96-2.48-2.416-2.48m5.285 10.384v-11.12h.96l.112 1.568c.544-1.2 1.632-1.776 2.928-1.776 2.24 0 3.584 1.712 3.584 4.048s-1.296 4.096-3.584 4.096c-1.312 0-2.352-.56-2.896-1.68v4.864zm1.12-7.248c0 1.776.992 3.072 2.688 3.072 1.68 0 2.656-1.296 2.656-3.072 0-1.792-.976-3.072-2.656-3.072-1.696 0-2.688 1.28-2.688 3.072m11.472 4.064c-2.272 0-3.792-1.632-3.792-4.064 0-2.416 1.504-4.08 3.712-4.08 2.096 0 3.52 1.488 3.52 3.68v.544h-6.16c.08 1.888 1.072 2.976 2.736 2.976 1.264 0 2.08-.544 2.368-1.568h1.056c-.416 1.632-1.616 2.512-3.44 2.512m-.08-7.2c-1.456 0-2.416.96-2.608 2.48h5.024c0-1.488-.96-2.48-2.416-2.48m7.43 7.2c-1.647 0-2.623-.928-2.623-2.288 0-1.424 1.088-2.32 2.896-2.464l2.56-.208v-.256c0-1.52-.912-2-2.048-2-1.344 0-2.144.608-2.144 1.648h-1.008c0-1.568 1.28-2.576 3.184-2.576 1.792 0 3.104.896 3.104 2.944V334h-.928l-.144-1.36c-.48.976-1.536 1.552-2.848 1.552m.257-.896c1.632 0 2.576-1.136 2.576-2.816v-.416l-2.288.176c-1.456.128-2.048.768-2.048 1.632 0 .944.704 1.424 1.76 1.424m7.514.704h-1.087v-6.816H74.35v-.928h1.553v-2.448h1.087v2.448h1.553v.928H76.99zm6.884-3.856c0-2.432 1.488-4.096 3.744-4.096 1.792 0 3.104 1.04 3.408 2.64h-1.104c-.288-1.072-1.216-1.664-2.288-1.664-1.568 0-2.672 1.2-2.672 3.104 0 1.84 1.024 3.072 2.592 3.072 1.152 0 2.08-.64 2.384-1.632h1.12c-.368 1.584-1.744 2.624-3.504 2.624-2.192 0-3.68-1.616-3.68-4.048m14.296-3.888h1.104V334h-.96l-.144-1.312c-.432.896-1.504 1.504-2.72 1.504-1.824 0-2.816-1.248-2.816-3.136v-4.816h1.12v4.464c0 1.84.816 2.496 2.048 2.496 1.488 0 2.368-.992 2.368-2.832zm2.592 5.568h1.056c0 .896.672 1.456 1.76 1.456 1.2 0 1.904-.512 1.904-1.344 0-.64-.32-1.008-1.232-1.232l-1.328-.336c-1.344-.336-2-1.04-2-2.096 0-1.36 1.136-2.224 2.8-2.224 1.632 0 2.688.896 2.736 2.336h-1.072c-.032-.896-.656-1.424-1.696-1.424-1.088 0-1.696.464-1.696 1.296 0 .592.416 1.008 1.264 1.216l1.328.336c1.344.336 1.952.96 1.952 2.08 0 1.392-1.184 2.304-2.944 2.304-1.744 0-2.832-.928-2.832-2.368m9.369 2.176h-1.088v-6.816h-1.552v-.928h1.552v-2.448h1.088v2.448h1.552v.928h-1.552zm2.368-3.872c0-2.368 1.664-4.08 3.936-4.08s3.936 1.712 3.936 4.08c0 2.352-1.664 4.064-3.936 4.064s-3.936-1.712-3.936-4.064m1.12-.016c0 1.824 1.152 3.088 2.816 3.088 1.648 0 2.816-1.264 2.816-3.088 0-1.792-1.168-3.072-2.816-3.072-1.664 0-2.816 1.28-2.816 3.072M123.24 334h-1.104v-7.744h.96l.128 1.104c.384-.816 1.248-1.312 2.336-1.312 1.216 0 2.128.64 2.496 1.648.352-1.008 1.296-1.648 2.544-1.648 1.68 0 2.784 1.088 2.784 2.88V334h-1.072v-4.848c0-1.328-.736-2.112-1.92-2.112-1.296 0-2.064.976-2.064 2.176V334h-1.088v-4.864c0-1.312-.752-2.08-1.92-2.08-1.296 0-2.08.96-2.08 2.144zm15.613.192c-2.272 0-3.792-1.632-3.792-4.064 0-2.416 1.504-4.08 3.712-4.08 2.096 0 3.52 1.488 3.52 3.68v.544h-6.16c.08 1.888 1.072 2.976 2.736 2.976 1.264 0 2.08-.544 2.368-1.568h1.056c-.416 1.632-1.616 2.512-3.44 2.512m-.08-7.2c-1.456 0-2.416.96-2.608 2.48h5.024c0-1.488-.96-2.48-2.416-2.48m9.333-.832v.992h-.608c-1.424 0-2.336.96-2.336 2.432V334h-1.104v-7.744h1.04l.08 1.2c.304-.832 1.12-1.376 2.208-1.376.24 0 .448.016.72.08m.812 5.664h1.056c0 .896.672 1.456 1.76 1.456 1.2 0 1.904-.512 1.904-1.344 0-.64-.32-1.008-1.232-1.232l-1.328-.336c-1.344-.336-2-1.04-2-2.096 0-1.36 1.136-2.224 2.8-2.224 1.632 0 2.688.896 2.736 2.336h-1.072c-.032-.896-.656-1.424-1.696-1.424-1.088 0-1.696.464-1.696 1.296 0 .592.416 1.008 1.264 1.216l1.328.336c1.344.336 1.952.96 1.952 2.08 0 1.392-1.184 2.304-2.944 2.304-1.744 0-2.832-.928-2.832-2.368m11.375 0h1.056c0 .896.672 1.456 1.76 1.456 1.2 0 1.904-.512 1.904-1.344 0-.64-.32-1.008-1.232-1.232l-1.328-.336c-1.344-.336-2-1.04-2-2.096 0-1.36 1.136-2.224 2.8-2.224 1.632 0 2.688.896 2.736 2.336h-1.072c-.032-.896-.656-1.424-1.696-1.424-1.088 0-1.696.464-1.696 1.296 0 .592.416 1.008 1.264 1.216l1.328.336c1.344.336 1.952.96 1.952 2.08 0 1.392-1.184 2.304-2.944 2.304-1.744 0-2.832-.928-2.832-2.368m7.593 5.552v-11.12h.96l.112 1.568c.544-1.2 1.632-1.776 2.928-1.776 2.24 0 3.584 1.712 3.584 4.048s-1.296 4.096-3.584 4.096c-1.312 0-2.352-.56-2.896-1.68v4.864zm1.12-7.248c0 1.776.992 3.072 2.688 3.072 1.68 0 2.656-1.296 2.656-3.072 0-1.792-.976-3.072-2.656-3.072-1.696 0-2.688 1.28-2.688 3.072m11.472 4.064c-2.272 0-3.792-1.632-3.792-4.064 0-2.416 1.504-4.08 3.712-4.08 2.096 0 3.52 1.488 3.52 3.68v.544h-6.16c.08 1.888 1.072 2.976 2.736 2.976 1.264 0 2.08-.544 2.368-1.568h1.056c-.416 1.632-1.616 2.512-3.44 2.512m-.08-7.2c-1.456 0-2.416.96-2.608 2.48h5.024c0-1.488-.96-2.48-2.416-2.48m6.389 7.008h-1.104v-7.744h.96l.16 1.344c.512-.992 1.536-1.552 2.656-1.552 2.128 0 3.008 1.264 3.008 3.216V334h-1.104v-4.496c0-1.808-.816-2.448-2.096-2.448-1.584 0-2.48 1.152-2.48 2.896zm10.921.192c-2.256 0-3.584-1.728-3.584-4.048 0-2.336 1.328-4.096 3.632-4.096 1.28 0 2.304.56 2.848 1.68v-5.392h1.104V334h-.96l-.112-1.584c-.544 1.2-1.632 1.776-2.928 1.776m.192-1.008c1.696 0 2.688-1.28 2.688-3.072 0-1.776-.992-3.072-2.688-3.072-1.68 0-2.656 1.296-2.656 3.072 0 1.792.976 3.072 2.656 3.072m11.573-6.784 2.864-3.856h1.344l-3.008 3.984a3.4 3.4 0 0 1 1.568-.384c2.384 0 3.968 1.744 3.968 3.984 0 2.352-1.776 4.064-4.064 4.064-2.304 0-4.112-1.776-4.112-4.064 0-1.328.368-2.256 1.44-3.728m-.272 3.744c0 1.744 1.2 3.008 2.944 3.008 1.696 0 2.912-1.264 2.912-3.008s-1.216-2.992-2.912-2.992c-1.744 0-2.944 1.248-2.944 2.992m6.959-7.6h7.792v1.056L219.44 334h-1.184l4.528-10.4h-6.624zm14.302 2.624c0 1.648-1.168 2.832-2.8 2.832s-2.816-1.184-2.816-2.832 1.184-2.848 2.816-2.848 2.8 1.2 2.8 2.848m5.808-2.624L227.566 334h-1.152l8.688-11.456zm-6.768 2.624c0-1.136-.752-1.92-1.84-1.92-1.104 0-1.856.784-1.856 1.92 0 1.12.768 1.92 1.856 1.92 1.072 0 1.84-.8 1.84-1.92m8.352 6.208c0 1.648-1.168 2.832-2.8 2.832s-2.816-1.184-2.816-2.832 1.184-2.848 2.816-2.848 2.8 1.2 2.8 2.848m-.96 0c0-1.136-.752-1.92-1.84-1.92-1.104 0-1.856.784-1.856 1.92 0 1.12.768 1.904 1.856 1.904 1.072 0 1.84-.784 1.84-1.904m8.425 2.624h-1.104v-7.744h.959l.129 1.104c.384-.816 1.248-1.312 2.336-1.312 1.216 0 2.128.64 2.496 1.648.352-1.008 1.296-1.648 2.544-1.648 1.68 0 2.784 1.088 2.784 2.88V334h-1.072v-4.848c0-1.328-.736-2.112-1.921-2.112-1.295 0-2.063.976-2.063 2.176V334h-1.088v-4.864c0-1.312-.752-2.08-1.92-2.08-1.296 0-2.08.96-2.08 2.144zm11.82-3.872c0-2.368 1.664-4.08 3.936-4.08s3.936 1.712 3.936 4.08c0 2.352-1.664 4.064-3.936 4.064s-3.936-1.712-3.936-4.064m1.12-.016c0 1.824 1.152 3.088 2.816 3.088 1.648 0 2.816-1.264 2.816-3.088 0-1.792-1.168-3.072-2.816-3.072-1.664 0-2.816 1.28-2.816 3.072m12.566-3.952v.992h-.608c-1.424 0-2.336.96-2.336 2.432V334h-1.104v-7.744h1.04l.08 1.2c.304-.832 1.12-1.376 2.208-1.376.24 0 .448.016.72.08m4.419 8.032c-2.272 0-3.792-1.632-3.792-4.064 0-2.416 1.504-4.08 3.712-4.08 2.096 0 3.52 1.488 3.52 3.68v.544h-6.16c.08 1.888 1.072 2.976 2.736 2.976 1.264 0 2.08-.544 2.368-1.568h1.056c-.416 1.632-1.616 2.512-3.44 2.512m-.08-7.2c-1.456 0-2.416.96-2.608 2.48h5.024c0-1.488-.96-2.48-2.416-2.48M32.928 358H31.84v-6.816h-1.552v-.928h1.552v-2.448h1.088v2.448h1.552v.928h-1.552zm4.094-.016h-1.104v-11.648h1.104v5.264c.496-.928 1.44-1.552 2.736-1.552 2.032 0 2.944 1.264 2.944 3.216V358h-1.104v-4.496c0-1.808-.848-2.448-2.048-2.448-1.664 0-2.528 1.232-2.528 2.72zm10.104.208c-1.648 0-2.624-.928-2.624-2.288 0-1.424 1.088-2.32 2.896-2.464l2.56-.208v-.256c0-1.52-.912-2-2.048-2-1.344 0-2.144.608-2.144 1.648h-1.008c0-1.568 1.28-2.576 3.184-2.576 1.792 0 3.104.896 3.104 2.944V358h-.928l-.144-1.36c-.48.976-1.536 1.552-2.848 1.552m.256-.896c1.632 0 2.576-1.136 2.576-2.816v-.416l-2.288.176c-1.456.128-2.048.768-2.048 1.632 0 .944.704 1.424 1.76 1.424m6.983.704h-1.104v-7.744h.96l.16 1.344c.512-.992 1.536-1.552 2.656-1.552 2.128 0 3.008 1.264 3.008 3.216V358h-1.104v-4.496c0-1.808-.816-2.448-2.096-2.448-1.584 0-2.48 1.152-2.48 2.896zm13.422 0h-1.104v-7.744h.96l.16 1.344c.512-.992 1.536-1.552 2.656-1.552 2.128 0 3.008 1.264 3.008 3.216V358h-1.104v-4.496c0-1.808-.816-2.448-2.096-2.448-1.584 0-2.48 1.152-2.48 2.896zm11.129.192c-2.272 0-3.792-1.632-3.792-4.064 0-2.416 1.504-4.08 3.712-4.08 2.096 0 3.52 1.488 3.52 3.68v.544h-6.16c.08 1.888 1.072 2.976 2.736 2.976 1.264 0 2.08-.544 2.368-1.568h1.056c-.416 1.632-1.616 2.512-3.44 2.512m-.08-7.2c-1.456 0-2.416.96-2.608 2.48h5.024c0-1.488-.96-2.48-2.416-2.48M85.55 358l-2.56-7.744h1.136l1.52 4.672c.176.512.32 1.04.48 1.664.128-.624.384-1.408.464-1.664l1.536-4.672h1.136l1.52 4.672c.144.416.336 1.088.48 1.664.16-.64.192-.832.464-1.664l1.536-4.672h1.152L91.79 358h-1.072l-1.6-4.864a13 13 0 0 1-.416-1.52c-.112.416-.24.88-.448 1.52l-1.6 4.864zm14.136-3.856c0-2.432 1.488-4.096 3.744-4.096 1.792 0 3.104 1.04 3.408 2.64h-1.104c-.288-1.072-1.216-1.664-2.288-1.664-1.568 0-2.672 1.2-2.672 3.104 0 1.84 1.024 3.072 2.592 3.072 1.152 0 2.08-.64 2.384-1.632h1.12c-.368 1.584-1.744 2.624-3.504 2.624-2.192 0-3.68-1.616-3.68-4.048m14.297-3.888h1.104V358h-.96l-.144-1.312c-.432.896-1.504 1.504-2.72 1.504-1.824 0-2.816-1.248-2.816-3.136v-4.816h1.12v4.464c0 1.84.816 2.496 2.048 2.496 1.488 0 2.368-.992 2.368-2.832zm2.591 5.568h1.056c0 .896.672 1.456 1.76 1.456 1.2 0 1.904-.512 1.904-1.344 0-.64-.32-1.008-1.232-1.232l-1.328-.336c-1.344-.336-2-1.04-2-2.096 0-1.36 1.136-2.224 2.8-2.224 1.632 0 2.688.896 2.736 2.336h-1.072c-.032-.896-.656-1.424-1.696-1.424-1.088 0-1.696.464-1.696 1.296 0 .592.416 1.008 1.264 1.216l1.328.336c1.344.336 1.952.96 1.952 2.08 0 1.392-1.184 2.304-2.944 2.304-1.744 0-2.832-.928-2.832-2.368m9.37 2.176h-1.088v-6.816h-1.552v-.928h1.552v-2.448h1.088v2.448h1.552v.928h-1.552zm2.367-3.872c0-2.368 1.664-4.08 3.936-4.08s3.936 1.712 3.936 4.08c0 2.352-1.664 4.064-3.936 4.064s-3.936-1.712-3.936-4.064m1.12-.016c0 1.824 1.152 3.088 2.816 3.088 1.648 0 2.816-1.264 2.816-3.088 0-1.792-1.168-3.072-2.816-3.072-1.664 0-2.816 1.28-2.816 3.072m9.622 3.888h-1.104v-7.744h.96l.128 1.104c.384-.816 1.248-1.312 2.336-1.312 1.216 0 2.128.64 2.496 1.648.352-1.008 1.296-1.648 2.544-1.648 1.68 0 2.784 1.088 2.784 2.88V358h-1.072v-4.848c0-1.328-.736-2.112-1.92-2.112-1.296 0-2.064.976-2.064 2.176V358h-1.088v-4.864c0-1.312-.752-2.08-1.92-2.08-1.296 0-2.08.96-2.08 2.144zm15.613.192c-2.272 0-3.792-1.632-3.792-4.064 0-2.416 1.504-4.08 3.712-4.08 2.096 0 3.52 1.488 3.52 3.68v.544h-6.16c.08 1.888 1.072 2.976 2.736 2.976 1.264 0 2.08-.544 2.368-1.568h1.056c-.416 1.632-1.616 2.512-3.44 2.512m-.08-7.2c-1.456 0-2.416.96-2.608 2.48h5.024c0-1.488-.96-2.48-2.416-2.48m9.333-.832v.992h-.608c-1.424 0-2.336.96-2.336 2.432V358h-1.104v-7.744h1.04l.08 1.2c.304-.832 1.12-1.376 2.208-1.376.24 0 .448.016.72.08m.811 5.664h1.056c0 .896.672 1.456 1.76 1.456 1.2 0 1.904-.512 1.904-1.344 0-.64-.32-1.008-1.232-1.232l-1.328-.336c-1.344-.336-2-1.04-2-2.096 0-1.36 1.136-2.224 2.8-2.224 1.632 0 2.688.896 2.736 2.336h-1.072c-.032-.896-.656-1.424-1.696-1.424-1.088 0-1.696.464-1.696 1.296 0 .592.416 1.008 1.264 1.216l1.328.336c1.344.336 1.952.96 1.952 2.08 0 1.392-1.184 2.304-2.944 2.304-1.744 0-2.832-.928-2.832-2.368"/><path stroke="#26292F" stroke-opacity=".15" d="M30.5 30v256M377 286.5H30"/><path fill="#FFD7F2" d="M253 82c8.284 0 15 6.716 15 15v21c0 8.284-6.716 15-15 15H30V82z"/><mask id="a" width="238" height="51" x="30" y="82" maskUnits="userSpaceOnUse" style="mask-type:alpha"><path fill="#FFD7F2" d="M253 82c8.284 0 15 6.716 15 15v21c0 8.284-6.716 15-15 15H30V82z"/></mask><g stroke="#26292F" stroke-opacity=".15" mask="url(#a)"><path d="M237.951 136.587 227.066 78.6M241.394 135.08l-10.886-57.988M257.394 134.08l-10.886-57.988M269.394 135.08l-10.886-57.988M273.394 134.08l-10.886-57.988M265.394 134.08l-10.886-57.988M261.394 135.08l-10.886-57.988M253.394 134.08l-10.886-57.988M249.394 135.08l-10.886-57.988M245.394 135.08l-10.886-57.988M233.951 136.587 223.066 78.6M229.951 136.586l-10.885-57.987M225.951 136.586l-10.885-57.987M221.951 136.586l-10.885-57.987M217.951 136.586l-10.885-57.987M213.951 136.586l-10.885-57.987M209.951 136.586l-10.885-57.987M205.951 136.586l-10.885-57.987M201.951 136.586l-10.885-57.987M197.951 136.586l-10.885-57.987M193.951 136.586l-10.885-57.987M189.951 136.586l-10.885-57.987M185.951 136.586l-10.885-57.987M181.951 136.586l-10.885-57.987M177.951 136.586l-10.885-57.987M173.951 136.586l-10.885-57.987M169.951 136.586l-10.885-57.987M165.951 136.586l-10.885-57.987M161.951 136.586l-10.885-57.987M157.951 136.586l-10.885-57.987M153.951 136.586l-10.885-57.987M149.951 136.586l-10.885-57.987M145.951 136.586l-10.885-57.987M141.951 136.586l-10.885-57.987M137.951 136.586l-10.885-57.987M133.951 136.586l-10.885-57.987M129.951 136.586l-10.885-57.987M125.951 136.586l-10.885-57.987M121.951 136.586l-10.885-57.987M117.951 136.586l-10.885-57.987M113.951 136.586l-10.885-57.987M109.951 136.586 99.066 78.599M105.951 136.586 95.066 78.599M101.951 136.586 91.066 78.599M97.951 136.586 87.066 78.599M93.951 136.586 83.066 78.599M89.951 136.586 79.066 78.599M85.951 136.586 75.066 78.599M81.951 136.586 71.066 78.599M77.951 136.586 67.066 78.599M73.951 136.586 63.066 78.599M69.951 136.586 59.066 78.599M65.951 136.586 55.066 78.599M61.952 136.586 51.066 78.599M57.952 136.586 47.066 78.599M53.952 136.586 43.066 78.599M49.952 136.586 39.066 78.599M45.952 136.586 35.066 78.599M41.952 136.586 31.066 78.599M37.952 136.586 27.066 78.599M33.952 136.586 23.066 78.599"/></g><path fill="#D7FFE9" d="M101 183c8.284 0 15 6.716 15 15v21c0 8.284-6.716 15-15 15H30v-51z"/><mask id="b" width="86" height="51" x="30" y="183" maskUnits="userSpaceOnUse" style="mask-type:alpha"><path fill="#FFD7F2" d="M101 183c8.284 0 15 6.716 15 15v21c0 8.284-6.716 15-15 15H30v-51z"/></mask><g stroke="#26292F" stroke-opacity=".15" mask="url(#b)"><path d="m126.951 237.586-10.885-57.987M122.951 237.586l-10.885-57.987M118.951 237.587 108.066 179.6M114.951 237.586l-10.885-57.987M110.951 237.586l-10.885-57.987M106.951 237.586l-10.885-57.987M102.951 237.586l-10.885-57.987M98.951 237.586l-10.885-57.987M94.951 237.586l-10.885-57.987M90.951 237.586l-10.885-57.987M86.951 237.586l-10.885-57.987M82.951 237.586l-10.885-57.987M78.951 237.586l-10.885-57.987M74.951 237.586l-10.885-57.987M70.951 237.586l-10.885-57.987M66.951 237.586l-10.885-57.987M62.952 237.586l-10.886-57.987M58.952 237.586l-10.886-57.987M54.952 237.586l-10.886-57.987M50.952 237.586l-10.886-57.987M46.952 237.586l-10.886-57.987M42.952 237.586l-10.886-57.987M38.952 237.586l-10.886-57.987M34.952 237.586l-10.886-57.987M30.951 237.586l-10.885-57.987"/></g><path fill="#26292F" d="M282.574 101h-1.536v-8.772h3.348c1.992 0 3.156 1.008 3.156 2.736 0 1.176-.552 2.016-1.584 2.436l1.668 3.6h-1.68l-1.488-3.276h-1.884zm0-7.404v2.772h1.812c.972 0 1.548-.516 1.548-1.404 0-.876-.576-1.368-1.548-1.368zm8.518 7.56c-1.764 0-3-1.284-3-3.12 0-1.86 1.212-3.144 2.952-3.144 1.776 0 2.904 1.188 2.904 3.036v.444l-4.464.012c.108 1.044.66 1.572 1.632 1.572.804 0 1.332-.312 1.5-.876h1.356c-.252 1.296-1.332 2.076-2.88 2.076m-.036-5.064c-.864 0-1.392.468-1.536 1.356h2.976c0-.816-.564-1.356-1.44-1.356m4.063 7.656v-8.676h1.356l.096.9c.36-.684 1.14-1.08 2.04-1.08 1.668 0 2.772 1.212 2.772 3.072 0 1.848-1.008 3.192-2.772 3.192-.888 0-1.656-.348-2.028-.948v3.54zm1.476-5.712c0 1.068.66 1.8 1.668 1.8 1.032 0 1.644-.744 1.644-1.8s-.612-1.812-1.644-1.812c-1.008 0-1.668.744-1.668 1.812m8.606 3.12c-1.764 0-3-1.284-3-3.12 0-1.86 1.212-3.144 2.952-3.144 1.776 0 2.904 1.188 2.904 3.036v.444l-4.464.012c.108 1.044.66 1.572 1.632 1.572.804 0 1.332-.312 1.5-.876h1.356c-.252 1.296-1.332 2.076-2.88 2.076m-.036-5.064c-.864 0-1.392.468-1.536 1.356h2.976c0-.816-.564-1.356-1.44-1.356m5.769 5.064c-1.26 0-2.028-.732-2.028-1.848 0-1.092.792-1.776 2.196-1.884l1.776-.132v-.132c0-.804-.48-1.128-1.224-1.128-.864 0-1.344.36-1.344.984h-1.248c0-1.284 1.056-2.124 2.664-2.124 1.596 0 2.58.864 2.58 2.508v3.6h-1.284l-.108-.876c-.252.612-1.056 1.032-1.98 1.032m.48-1.104c.9 0 1.476-.54 1.476-1.452v-.312l-1.236.096c-.912.084-1.26.384-1.26.864 0 .54.36.804 1.02.804m6.264.948h-1.464v-4.704h-1.14v-1.224h1.14v-1.848h1.464v1.848h1.152v1.224h-1.152zm9.221.144c-2.556 0-4.212-1.776-4.212-4.524 0-2.724 1.716-4.536 4.284-4.536 2.076 0 3.624 1.212 3.924 3.096h-1.62c-.3-1.02-1.176-1.62-2.34-1.62-1.62 0-2.64 1.176-2.64 3.048 0 1.86 1.032 3.06 2.64 3.06 1.188 0 2.1-.624 2.388-1.596h1.596c-.336 1.848-1.944 3.072-4.02 3.072m9.201-6.072h1.464V101h-1.356l-.108-.792c-.36.564-1.128.948-1.92.948-1.368 0-2.172-.924-2.172-2.376v-3.708h1.464v3.192c0 1.128.444 1.584 1.26 1.584.924 0 1.368-.54 1.368-1.668zm2.403 4.128h1.392c.012.516.396.84 1.068.84.684 0 1.056-.276 1.056-.708 0-.3-.156-.516-.684-.636l-1.068-.252c-1.068-.24-1.584-.744-1.584-1.692 0-1.164.984-1.86 2.352-1.86 1.332 0 2.232.768 2.244 1.92h-1.392c-.012-.504-.348-.828-.912-.828-.576 0-.912.264-.912.708 0 .336.264.552.768.672l1.068.252c.996.228 1.5.684 1.5 1.596 0 1.2-1.02 1.944-2.484 1.944-1.476 0-2.412-.792-2.412-1.956m8.027 1.8h-1.464v-4.704h-1.14v-1.224h1.14v-1.848h1.464v1.848h1.152v1.224h-1.152zm1.655-2.976c0-1.848 1.332-3.12 3.168-3.12s3.168 1.272 3.168 3.12-1.332 3.12-3.168 3.12-3.168-1.272-3.168-3.12m1.464 0c0 1.08.696 1.812 1.704 1.812s1.704-.732 1.704-1.812-.696-1.812-1.704-1.812-1.704.732-1.704 1.812m7.497 2.976h-1.464v-5.928h1.344l.12.696c.3-.492.9-.876 1.752-.876.9 0 1.524.444 1.836 1.128.3-.684.996-1.128 1.896-1.128 1.44 0 2.232.864 2.232 2.232V101h-1.452v-3.492c0-.852-.456-1.296-1.152-1.296-.708 0-1.248.456-1.248 1.428V101h-1.464v-3.504c0-.828-.444-1.272-1.14-1.272s-1.26.456-1.26 1.416zm11.805.156c-1.764 0-3-1.284-3-3.12 0-1.86 1.212-3.144 2.952-3.144 1.776 0 2.904 1.188 2.904 3.036v.444l-4.464.012c.108 1.044.66 1.572 1.632 1.572.804 0 1.332-.312 1.5-.876h1.356c-.252 1.296-1.332 2.076-2.88 2.076m-.036-5.064c-.864 0-1.392.468-1.536 1.356h2.976c0-.816-.564-1.356-1.44-1.356m7.784-1.044v1.356h-.54c-1.056 0-1.716.564-1.716 1.716V101h-1.464v-5.916h1.38l.084.864c.252-.588.816-.984 1.608-.984.204 0 .408.024.648.084M307.266 119h-1.536v-8.772h3.348c1.992 0 3.156 1.008 3.156 2.736 0 1.176-.552 2.016-1.584 2.436l1.668 3.6h-1.68l-1.488-3.276h-1.884zm0-7.404v2.772h1.812c.972 0 1.548-.516 1.548-1.404 0-.876-.576-1.368-1.548-1.368zm8.517 7.56c-1.764 0-3-1.284-3-3.12 0-1.86 1.212-3.144 2.952-3.144 1.776 0 2.904 1.188 2.904 3.036v.444l-4.464.012c.108 1.044.66 1.572 1.632 1.572.804 0 1.332-.312 1.5-.876h1.356c-.252 1.296-1.332 2.076-2.88 2.076m-.036-5.064c-.864 0-1.392.468-1.536 1.356h2.976c0-.816-.564-1.356-1.44-1.356m5.486 4.908-2.352-5.928h1.56l1.032 2.724c.252.708.456 1.32.528 1.644.084-.372.3-.996.552-1.644l1.08-2.724h1.512L322.673 119zm7.113.156c-1.764 0-3-1.284-3-3.12 0-1.86 1.212-3.144 2.952-3.144 1.776 0 2.904 1.188 2.904 3.036v.444l-4.464.012c.108 1.044.66 1.572 1.632 1.572.804 0 1.332-.312 1.5-.876h1.356c-.252 1.296-1.332 2.076-2.88 2.076m-.036-5.064c-.864 0-1.392.468-1.536 1.356h2.976c0-.816-.564-1.356-1.44-1.356m5.527 4.908h-1.464v-5.928h1.356l.12.768c.372-.6 1.092-.948 1.896-.948 1.488 0 2.256.924 2.256 2.46V119h-1.464v-3.3c0-.996-.492-1.476-1.248-1.476-.9 0-1.452.624-1.452 1.584zm9.623-5.928h1.464V119h-1.356l-.108-.792c-.36.564-1.128.948-1.92.948-1.368 0-2.172-.924-2.172-2.376v-3.708h1.464v3.192c0 1.128.444 1.584 1.26 1.584.924 0 1.368-.54 1.368-1.668zm5.511 6.084c-1.764 0-3-1.284-3-3.12 0-1.86 1.212-3.144 2.952-3.144 1.776 0 2.904 1.188 2.904 3.036v.444l-4.464.012c.108 1.044.66 1.572 1.632 1.572.804 0 1.332-.312 1.5-.876h1.356c-.252 1.296-1.332 2.076-2.88 2.076m-.036-5.064c-.864 0-1.392.468-1.536 1.356h2.976c0-.816-.564-1.356-1.44-1.356M130.97 204h-1.512v-8.772h1.524l4.116 6.216v-6.216h1.512V204h-1.512l-4.128-6.216zm10.018.156c-1.764 0-3-1.284-3-3.12 0-1.86 1.212-3.144 2.952-3.144 1.776 0 2.904 1.188 2.904 3.036v.444l-4.464.012c.108 1.044.66 1.572 1.632 1.572.804 0 1.332-.312 1.5-.876h1.356c-.252 1.296-1.332 2.076-2.88 2.076m-.036-5.064c-.864 0-1.392.468-1.536 1.356h2.976c0-.816-.564-1.356-1.44-1.356m5.114 4.908-1.92-5.928h1.524l.78 2.544c.132.468.252.984.36 1.536.108-.576.216-.948.408-1.536l.816-2.544h1.488l.792 2.544c.072.24.312 1.128.384 1.524.096-.444.288-1.152.396-1.524l.792-2.544h1.548L151.382 204h-1.368l-.816-2.568c-.24-.78-.372-1.344-.42-1.644-.06.276-.168.696-.468 1.668l-.816 2.544zm15.413.144c-2.556 0-4.212-1.776-4.212-4.524 0-2.724 1.716-4.536 4.284-4.536 2.076 0 3.624 1.212 3.924 3.096h-1.62c-.3-1.02-1.176-1.62-2.34-1.62-1.62 0-2.64 1.176-2.64 3.048 0 1.86 1.032 3.06 2.64 3.06 1.188 0 2.1-.624 2.388-1.596h1.596c-.336 1.848-1.944 3.072-4.02 3.072m9.201-6.072h1.464V204h-1.356l-.108-.792c-.36.564-1.128.948-1.92.948-1.368 0-2.172-.924-2.172-2.376v-3.708h1.464v3.192c0 1.128.444 1.584 1.26 1.584.924 0 1.368-.54 1.368-1.668zm2.403 4.128h1.392c.012.516.396.84 1.068.84.684 0 1.056-.276 1.056-.708 0-.3-.156-.516-.684-.636l-1.068-.252c-1.068-.24-1.584-.744-1.584-1.692 0-1.164.984-1.86 2.352-1.86 1.332 0 2.232.768 2.244 1.92h-1.392c-.012-.504-.348-.828-.912-.828-.576 0-.912.264-.912.708 0 .336.264.552.768.672l1.068.252c.996.228 1.5.684 1.5 1.596 0 1.2-1.02 1.944-2.484 1.944-1.476 0-2.412-.792-2.412-1.956m8.027 1.8h-1.464v-4.704h-1.14v-1.224h1.14v-1.848h1.464v1.848h1.152v1.224h-1.152zm1.655-2.976c0-1.848 1.332-3.12 3.168-3.12s3.168 1.272 3.168 3.12-1.332 3.12-3.168 3.12-3.168-1.272-3.168-3.12m1.464 0c0 1.08.696 1.812 1.704 1.812s1.704-.732 1.704-1.812-.696-1.812-1.704-1.812-1.704.732-1.704 1.812m7.497 2.976h-1.464v-5.928h1.344l.12.696c.3-.492.9-.876 1.752-.876.9 0 1.524.444 1.836 1.128.3-.684.996-1.128 1.896-1.128 1.44 0 2.232.864 2.232 2.232V204h-1.452v-3.492c0-.852-.456-1.296-1.152-1.296-.708 0-1.248.456-1.248 1.428V204h-1.464v-3.504c0-.828-.444-1.272-1.14-1.272s-1.26.456-1.26 1.416zm11.805.156c-1.764 0-3-1.284-3-3.12 0-1.86 1.212-3.144 2.952-3.144 1.776 0 2.904 1.188 2.904 3.036v.444l-4.464.012c.108 1.044.66 1.572 1.632 1.572.804 0 1.332-.312 1.5-.876h1.356c-.252 1.296-1.332 2.076-2.88 2.076m-.036-5.064c-.864 0-1.392.468-1.536 1.356h2.976c0-.816-.564-1.356-1.44-1.356m7.784-1.044v1.356h-.54c-1.056 0-1.716.564-1.716 1.716V204h-1.464v-5.916h1.38l.084.864c.252-.588.816-.984 1.608-.984.204 0 .408.024.648.084M148.766 222h-1.536v-8.772h3.348c1.992 0 3.156 1.008 3.156 2.736 0 1.176-.552 2.016-1.584 2.436l1.668 3.6h-1.68l-1.488-3.276h-1.884zm0-7.404v2.772h1.812c.972 0 1.548-.516 1.548-1.404 0-.876-.576-1.368-1.548-1.368zm8.517 7.56c-1.764 0-3-1.284-3-3.12 0-1.86 1.212-3.144 2.952-3.144 1.776 0 2.904 1.188 2.904 3.036v.444l-4.464.012c.108 1.044.66 1.572 1.632 1.572.804 0 1.332-.312 1.5-.876h1.356c-.252 1.296-1.332 2.076-2.88 2.076m-.036-5.064c-.864 0-1.392.468-1.536 1.356h2.976c0-.816-.564-1.356-1.44-1.356m5.486 4.908-2.352-5.928h1.56l1.032 2.724c.252.708.456 1.32.528 1.644.084-.372.3-.996.552-1.644l1.08-2.724h1.512L164.173 222zm7.113.156c-1.764 0-3-1.284-3-3.12 0-1.86 1.212-3.144 2.952-3.144 1.776 0 2.904 1.188 2.904 3.036v.444l-4.464.012c.108 1.044.66 1.572 1.632 1.572.804 0 1.332-.312 1.5-.876h1.356c-.252 1.296-1.332 2.076-2.88 2.076m-.036-5.064c-.864 0-1.392.468-1.536 1.356h2.976c0-.816-.564-1.356-1.44-1.356m5.527 4.908h-1.464v-5.928h1.356l.12.768c.372-.6 1.092-.948 1.896-.948 1.488 0 2.256.924 2.256 2.46V222h-1.464v-3.3c0-.996-.492-1.476-1.248-1.476-.9 0-1.452.624-1.452 1.584zm9.623-5.928h1.464V222h-1.356l-.108-.792c-.36.564-1.128.948-1.92.948-1.368 0-2.172-.924-2.172-2.376v-3.708h1.464v3.192c0 1.128.444 1.584 1.26 1.584.924 0 1.368-.54 1.368-1.668zm5.511 6.084c-1.764 0-3-1.284-3-3.12 0-1.86 1.212-3.144 2.952-3.144 1.776 0 2.904 1.188 2.904 3.036v.444l-4.464.012c.108 1.044.66 1.572 1.632 1.572.804 0 1.332-.312 1.5-.876h1.356c-.252 1.296-1.332 2.076-2.88 2.076m-.036-5.064c-.864 0-1.392.468-1.536 1.356h2.976c0-.816-.564-1.356-1.44-1.356"/></svg>