<svg width="20" height="20" viewBox="0 0 20 20" fill="none" xmlns="http://www.w3.org/2000/svg">
<g clip-path="url(#clip0_30551_439)">
<path d="M10 0.0996094C15.4681 0.0996096 19.9004 4.53193 19.9004 10C19.9004 15.4681 15.4681 19.9004 10 19.9004C4.53193 19.9004 0.0996096 15.4681 0.0996094 10C0.0996094 4.53193 4.53193 0.0996094 10 0.0996094Z" fill="#26292F" stroke="#26292F" stroke-width="0.198338"/>
<path d="M11.302 19.9162V12.1905H13.4813L13.7702 9.47137H11.302L11.3056 8.11034C11.3056 7.40114 11.3731 7.02131 12.3923 7.02131H13.7549V4.30176H11.5751C8.95673 4.30176 8.03528 5.62074 8.03528 7.8392V9.47158H6.40308V12.1909H8.03528V19.8067C8.67114 19.9333 9.32852 20.0001 10.0016 20.0001C10.4364 20.0002 10.8708 19.9721 11.302 19.9162V19.9162Z" fill="#FBFBF7"/>
</g>
<defs>
<clipPath id="clip0_30551_439">
<rect width="20" height="20" fill="white"/>
</clipPath>
</defs>
</svg>
