<svg width="20" height="20" viewBox="0 0 20 20" fill="none" xmlns="http://www.w3.org/2000/svg">
<g clip-path="url(#clip0_30551_242)">
<mask id="path-1-inside-1_30551_242" fill="white">
<path d="M11.028 0C12.153 0.00299993 12.7239 0.00899978 13.2169 0.0229994L13.4109 0.0299992C13.6349 0.0379991 13.8559 0.0479988 14.1229 0.0599985C15.1868 0.109997 15.9128 0.277993 16.5497 0.524987C17.2097 0.778981 17.7657 1.12297 18.3216 1.67796C18.8303 2.17768 19.2238 2.7824 19.4746 3.44992C19.7216 4.0869 19.8896 4.81288 19.9396 5.87786C19.9516 6.14385 19.9616 6.36485 19.9696 6.58984L19.9756 6.78384C19.9906 7.27582 19.9966 7.84681 19.9986 8.97178L19.9996 9.71777V11.0277C20.002 11.7571 19.9943 12.4865 19.9766 13.2157L19.9706 13.4097C19.9626 13.6347 19.9526 13.8557 19.9406 14.1217C19.8906 15.1866 19.7206 15.9116 19.4746 16.5496C19.2238 17.2171 18.8303 17.8218 18.3216 18.3216C17.8219 18.8302 17.2172 19.2237 16.5497 19.4745C15.9128 19.7215 15.1868 19.8895 14.1229 19.9395L13.4109 19.9695L13.2169 19.9755C12.7239 19.9895 12.153 19.9965 11.028 19.9985L10.282 19.9995H8.97312C8.24341 20.0021 7.51371 19.9944 6.78423 19.9765L6.59024 19.9705C6.35286 19.9615 6.11553 19.9512 5.87827 19.9395C4.81433 19.8895 4.08836 19.7215 3.45039 19.4745C2.78326 19.2236 2.1789 18.8301 1.67948 18.3216C1.17045 17.8219 0.776638 17.2172 0.525542 16.5496C0.278555 15.9126 0.110563 15.1866 0.0605657 14.1217L0.0305672 13.4097L0.0255676 13.2157C0.00713458 12.4865 -0.00119923 11.7571 0.000568768 11.0277V8.97178C-0.00219899 8.2424 0.00513476 7.51302 0.0225677 6.78384L0.0295674 6.58984C0.0375669 6.36485 0.0475664 6.14385 0.0595658 5.87786C0.109563 4.81288 0.277555 4.0879 0.524542 3.44992C0.776224 2.78213 1.17073 2.17738 1.68048 1.67796C2.17961 1.16952 2.78362 0.776055 3.45039 0.524987C4.08836 0.277993 4.81333 0.109997 5.87827 0.0599985C6.14426 0.0479988 6.36625 0.0379991 6.59024 0.0299992L6.78423 0.0239993C7.51338 0.00623256 8.24275 -0.00143466 8.97212 0.000999903L11.028 0ZM10.0001 4.99988C8.67405 4.99988 7.40234 5.52665 6.46471 6.46431C5.52707 7.40197 5.00032 8.67371 5.00032 9.99976C5.00032 11.3258 5.52707 12.5975 6.46471 13.5352C7.40234 14.4729 8.67405 14.9996 10.0001 14.9996C11.3261 14.9996 12.5978 14.4729 13.5354 13.5352C14.4731 12.5975 14.9998 11.3258 14.9998 9.99976C14.9998 8.67371 14.4731 7.40197 13.5354 6.46431C12.5978 5.52665 11.3261 4.99988 10.0001 4.99988ZM10.0001 6.99983C10.394 6.99976 10.7841 7.0773 11.1481 7.228C11.5121 7.3787 11.8428 7.59961 12.1214 7.87814C12.4 8.15666 12.6211 8.48733 12.7719 8.85127C12.9227 9.21522 13.0003 9.6053 13.0004 9.99926C13.0005 10.3932 12.923 10.7833 12.7723 11.1473C12.6216 11.5113 12.4006 11.8421 12.1221 12.1207C11.8436 12.3993 11.513 12.6203 11.149 12.7711C10.7851 12.922 10.395 12.9996 10.0011 12.9997C9.20546 12.9997 8.44243 12.6836 7.87985 12.121C7.31727 11.5584 7.00122 10.7954 7.00122 9.99976C7.00122 9.20413 7.31727 8.44108 7.87985 7.87849C8.44243 7.31589 9.20546 6.99983 10.0011 6.99983M15.2508 3.49992C14.9193 3.49992 14.6014 3.63161 14.367 3.86602C14.1326 4.10044 14.0009 4.41837 14.0009 4.74989C14.0009 5.0814 14.1326 5.39933 14.367 5.63375C14.6014 5.86816 14.9193 5.99985 15.2508 5.99985C15.5823 5.99985 15.9002 5.86816 16.1346 5.63375C16.369 5.39933 16.5007 5.0814 16.5007 4.74989C16.5007 4.41837 16.369 4.10044 16.1346 3.86602C15.9002 3.63161 15.5823 3.49992 15.2508 3.49992Z"/>
</mask>
<path d="M11.028 0C12.153 0.00299993 12.7239 0.00899978 13.2169 0.0229994L13.4109 0.0299992C13.6349 0.0379991 13.8559 0.0479988 14.1229 0.0599985C15.1868 0.109997 15.9128 0.277993 16.5497 0.524987C17.2097 0.778981 17.7657 1.12297 18.3216 1.67796C18.8303 2.17768 19.2238 2.7824 19.4746 3.44992C19.7216 4.0869 19.8896 4.81288 19.9396 5.87786C19.9516 6.14385 19.9616 6.36485 19.9696 6.58984L19.9756 6.78384C19.9906 7.27582 19.9966 7.84681 19.9986 8.97178L19.9996 9.71777V11.0277C20.002 11.7571 19.9943 12.4865 19.9766 13.2157L19.9706 13.4097C19.9626 13.6347 19.9526 13.8557 19.9406 14.1217C19.8906 15.1866 19.7206 15.9116 19.4746 16.5496C19.2238 17.2171 18.8303 17.8218 18.3216 18.3216C17.8219 18.8302 17.2172 19.2237 16.5497 19.4745C15.9128 19.7215 15.1868 19.8895 14.1229 19.9395L13.4109 19.9695L13.2169 19.9755C12.7239 19.9895 12.153 19.9965 11.028 19.9985L10.282 19.9995H8.97312C8.24341 20.0021 7.51371 19.9944 6.78423 19.9765L6.59024 19.9705C6.35286 19.9615 6.11553 19.9512 5.87827 19.9395C4.81433 19.8895 4.08836 19.7215 3.45039 19.4745C2.78326 19.2236 2.1789 18.8301 1.67948 18.3216C1.17045 17.8219 0.776638 17.2172 0.525542 16.5496C0.278555 15.9126 0.110563 15.1866 0.0605657 14.1217L0.0305672 13.4097L0.0255676 13.2157C0.00713458 12.4865 -0.00119923 11.7571 0.000568768 11.0277V8.97178C-0.00219899 8.2424 0.00513476 7.51302 0.0225677 6.78384L0.0295674 6.58984C0.0375669 6.36485 0.0475664 6.14385 0.0595658 5.87786C0.109563 4.81288 0.277555 4.0879 0.524542 3.44992C0.776224 2.78213 1.17073 2.17738 1.68048 1.67796C2.17961 1.16952 2.78362 0.776055 3.45039 0.524987C4.08836 0.277993 4.81333 0.109997 5.87827 0.0599985C6.14426 0.0479988 6.36625 0.0379991 6.59024 0.0299992L6.78423 0.0239993C7.51338 0.00623256 8.24275 -0.00143466 8.97212 0.000999903L11.028 0ZM10.0001 4.99988C8.67405 4.99988 7.40234 5.52665 6.46471 6.46431C5.52707 7.40197 5.00032 8.67371 5.00032 9.99976C5.00032 11.3258 5.52707 12.5975 6.46471 13.5352C7.40234 14.4729 8.67405 14.9996 10.0001 14.9996C11.3261 14.9996 12.5978 14.4729 13.5354 13.5352C14.4731 12.5975 14.9998 11.3258 14.9998 9.99976C14.9998 8.67371 14.4731 7.40197 13.5354 6.46431C12.5978 5.52665 11.3261 4.99988 10.0001 4.99988ZM10.0001 6.99983C10.394 6.99976 10.7841 7.0773 11.1481 7.228C11.5121 7.3787 11.8428 7.59961 12.1214 7.87814C12.4 8.15666 12.6211 8.48733 12.7719 8.85127C12.9227 9.21522 13.0003 9.6053 13.0004 9.99926C13.0005 10.3932 12.923 10.7833 12.7723 11.1473C12.6216 11.5113 12.4006 11.8421 12.1221 12.1207C11.8436 12.3993 11.513 12.6203 11.149 12.7711C10.7851 12.922 10.395 12.9996 10.0011 12.9997C9.20546 12.9997 8.44243 12.6836 7.87985 12.121C7.31727 11.5584 7.00122 10.7954 7.00122 9.99976C7.00122 9.20413 7.31727 8.44108 7.87985 7.87849C8.44243 7.31589 9.20546 6.99983 10.0011 6.99983M15.2508 3.49992C14.9193 3.49992 14.6014 3.63161 14.367 3.86602C14.1326 4.10044 14.0009 4.41837 14.0009 4.74989C14.0009 5.0814 14.1326 5.39933 14.367 5.63375C14.6014 5.86816 14.9193 5.99985 15.2508 5.99985C15.5823 5.99985 15.9002 5.86816 16.1346 5.63375C16.369 5.39933 16.5007 5.0814 16.5007 4.74989C16.5007 4.41837 16.369 4.10044 16.1346 3.86602C15.9002 3.63161 15.5823 3.49992 15.2508 3.49992Z" fill="#26292F"/>
<path d="M11.028 0L11.0307 -1L11.0275 -1L11.028 0ZM13.2169 0.0229994L13.253 -0.97638L13.2453 -0.976598L13.2169 0.0229994ZM13.4109 0.0299992L13.3748 1.02935L13.3752 1.02936L13.4109 0.0299992ZM14.1229 0.0599985L14.1698 -0.938901L14.1678 -0.938993L14.1229 0.0599985ZM16.5497 0.524987L16.1882 1.45735L16.1906 1.45826L16.5497 0.524987ZM18.3216 1.67796L17.6151 2.38572L17.6208 2.39131L18.3216 1.67796ZM19.4746 3.44992L18.5384 3.80166L18.5422 3.81144L19.4746 3.44992ZM19.9396 5.87786L20.9385 5.83279L20.9385 5.83096L19.9396 5.87786ZM19.9696 6.58984L20.9691 6.55893L20.9689 6.55431L19.9696 6.58984ZM19.9756 6.78384L20.9751 6.75336L20.9751 6.75292L19.9756 6.78384ZM19.9986 8.97178L20.9986 8.97044L20.9986 8.97001L19.9986 8.97178ZM19.9996 9.71777L20.9996 9.71777L20.9996 9.71643L19.9996 9.71777ZM19.9996 11.0277L18.9996 11.0277L18.9996 11.0311L19.9996 11.0277ZM19.9766 13.2157L20.9761 13.2466L20.9763 13.24L19.9766 13.2157ZM19.9706 13.4097L20.9699 13.4452L20.9701 13.4406L19.9706 13.4097ZM19.9406 14.1217L20.9395 14.1686L20.9395 14.1667L19.9406 14.1217ZM19.4746 16.5496L18.5415 16.1898L18.5385 16.1979L19.4746 16.5496ZM18.3216 18.3216L17.6208 17.6082L17.6145 17.6144L17.6083 17.6208L18.3216 18.3216ZM16.5497 19.4745L16.198 18.5384L16.1882 18.5422L16.5497 19.4745ZM14.1229 19.9395L14.165 20.9386L14.1698 20.9384L14.1229 19.9395ZM13.4109 19.9695L13.4418 20.9691L13.453 20.9686L13.4109 19.9695ZM13.2169 19.9755L13.2453 20.9751L13.2478 20.975L13.2169 19.9755ZM11.028 19.9985L11.0294 20.9985L11.0298 20.9985L11.028 19.9985ZM10.282 19.9995L10.282 20.9995L10.2834 20.9995L10.282 19.9995ZM8.97312 19.9995L8.97312 18.9995L8.96959 18.9995L8.97312 19.9995ZM6.78423 19.9765L6.75332 20.9761L6.75969 20.9762L6.78423 19.9765ZM6.59024 19.9705L6.55239 20.9698L6.55933 20.97L6.59024 19.9705ZM5.87827 19.9395L5.92742 18.9407L5.92521 18.9406L5.87827 19.9395ZM3.45039 19.4745L3.81145 18.5419L3.80246 18.5386L3.45039 19.4745ZM1.67948 18.3216L2.39297 17.6209L2.38653 17.6143L2.37997 17.6079L1.67948 18.3216ZM0.525542 16.5496L1.46158 16.1975L1.45791 16.1881L0.525542 16.5496ZM0.0605657 14.1217L-0.938559 14.1638L-0.938334 14.1686L0.0605657 14.1217ZM0.0305672 13.4097L-0.969101 13.4354L-0.96889 13.4436L-0.968546 13.4518L0.0305672 13.4097ZM0.0255676 13.2157L-0.974113 13.241L-0.9741 13.2414L0.0255676 13.2157ZM0.000568768 11.0277L1.00057 11.0302V11.0277H0.000568768ZM0.000568768 8.97178L1.00058 8.97178L1.00056 8.96799L0.000568768 8.97178ZM0.0225677 6.78384L-0.976856 6.74778L-0.977147 6.75994L0.0225677 6.78384ZM0.0295674 6.58984L1.02892 6.6259L1.02894 6.62537L0.0295674 6.58984ZM0.0595658 5.87786L-0.939336 5.83096L-0.939418 5.83279L0.0595658 5.87786ZM0.524542 3.44992L1.45713 3.81096L1.46029 3.80259L0.524542 3.44992ZM1.68048 1.67796L2.38032 2.39226L2.38727 2.38545L2.39409 2.3785L1.68048 1.67796ZM3.45039 0.524987L3.80279 1.46088L3.81144 1.45754L3.45039 0.524987ZM5.87827 0.0599985L5.8332 -0.938987L5.83137 -0.938901L5.87827 0.0599985ZM6.59024 0.0299992L6.55932 -0.969534L6.55454 -0.969364L6.59024 0.0299992ZM6.78423 0.0239993L6.75987 -0.975725L6.75331 -0.975523L6.78423 0.0239993ZM8.97212 0.000999903L8.96878 1.001L8.9726 1.001L8.97212 0.000999903ZM10.0001 4.99988L10.0001 3.99988L10.0001 4.99988ZM5.00032 9.99976H4.00032H5.00032ZM10.0001 14.9996V13.9996V14.9996ZM14.9998 9.99976L13.9998 9.99976L14.9998 9.99976ZM10.0011 12.9997L10.0011 13.9997L10.0012 13.9997L10.0011 12.9997ZM11.028 0L11.0253 0.999996C12.1497 1.00299 12.7095 1.00899 13.1885 1.0226L13.2169 0.0229994L13.2453 -0.976598C12.7384 -0.990994 12.1562 -0.996995 11.0307 -0.999996L11.028 0ZM13.2169 0.0229994L13.1808 1.02235L13.3748 1.02935L13.4109 0.0299992L13.447 -0.96935L13.253 -0.97635L13.2169 0.0229994ZM13.4109 0.0299992L13.3752 1.02936C13.5937 1.03716 13.8097 1.04693 14.078 1.05899L14.1229 0.0599985L14.1678 -0.938993C13.902 -0.950937 13.6761 -0.961167 13.4466 -0.969364L13.4109 0.0299992ZM14.1229 0.0599985L14.0759 1.0589C15.0464 1.1045 15.6644 1.25423 16.1882 1.45735L16.5497 0.524987L16.9113 -0.407371C16.1611 -0.698243 15.3272 -0.88451 14.1698 -0.938899L14.1229 0.0599985ZM16.5497 0.524987L16.1906 1.45826C16.726 1.66434 17.1622 1.93355 17.6152 2.38569L18.3216 1.67796L19.0281 0.970226C18.3691 0.312393 17.6934 -0.106377 16.9089 -0.408282L16.5497 0.524987ZM18.3216 1.67796L17.6208 2.39131C18.0257 2.78905 18.3389 3.27035 18.5385 3.80164L19.4746 3.44992L20.4107 3.09819C20.1087 2.29446 19.6349 1.56631 19.0224 0.964606L18.3216 1.67796ZM19.4746 3.44992L18.5422 3.81144C18.7453 4.33521 18.895 4.95316 18.9407 5.92475L19.9396 5.87786L20.9385 5.83096C20.8841 4.67261 20.6978 3.83859 20.407 3.0884L19.4746 3.44992ZM19.9396 5.87786L18.9406 5.92292C18.9526 6.19001 18.9624 6.40604 18.9702 6.62537L19.9696 6.58984L20.9689 6.55431C20.9607 6.32366 20.9505 6.09769 20.9385 5.83279L19.9396 5.87786ZM19.9696 6.58984L18.97 6.62076L18.976 6.81475L19.9756 6.78384L20.9751 6.75292L20.9691 6.55893L19.9696 6.58984ZM19.9756 6.78384L18.976 6.81431C18.9905 7.29071 18.9966 7.8492 18.9986 8.97356L19.9986 8.97178L20.9986 8.97001C20.9966 7.84442 20.9906 7.26094 20.9751 6.75336L19.9756 6.78384ZM19.9986 8.97178L18.9986 8.97312L18.9996 9.7191L19.9996 9.71777L20.9996 9.71643L20.9986 8.97044L19.9986 8.97178ZM19.9996 9.71777H18.9996V11.0277H19.9996H20.9996V9.71777H19.9996ZM19.9996 11.0277L18.9996 11.0311C19.002 11.7512 18.9944 12.4714 18.9769 13.1913L19.9766 13.2157L20.9763 13.24C20.9943 12.5016 21.002 11.763 20.9996 11.0244L19.9996 11.0277ZM19.9766 13.2157L18.977 13.1848L18.971 13.3788L19.9706 13.4097L20.9701 13.4406L20.9761 13.2466L19.9766 13.2157ZM19.9706 13.4097L18.9712 13.3741C18.9634 13.5935 18.9536 13.8095 18.9416 14.0766L19.9406 14.1217L20.9395 14.1667C20.9515 13.9018 20.9617 13.6759 20.9699 13.4452L19.9706 13.4097ZM19.9406 14.1217L18.9417 14.0748C18.8961 15.0443 18.745 15.6623 18.5415 16.1898L19.4746 16.5496L20.4076 16.9094C20.6962 16.161 20.885 15.329 20.9395 14.1686L19.9406 14.1217ZM19.4746 16.5496L18.5385 16.1979C18.3389 16.7292 18.0257 17.2105 17.6208 17.6082L18.3216 18.3216L19.0224 19.0349C19.6349 18.4332 20.1087 17.7051 20.4107 16.9013L19.4746 16.5496ZM18.3216 18.3216L17.6083 17.6208C17.2106 18.0256 16.7293 18.3388 16.198 18.5384L16.5497 19.4745L16.9015 20.4106C17.7052 20.1086 18.4333 19.6348 19.035 19.0223L18.3216 18.3216ZM16.5497 19.4745L16.1882 18.5422C15.6644 18.7453 15.0464 18.895 14.0759 18.9406L14.1229 19.9395L14.1698 20.9384C15.3272 20.884 16.1611 20.6978 16.9113 20.4069L16.5497 19.4745ZM14.1229 19.9395L14.0808 18.9404L13.3688 18.9704L13.4109 19.9695L13.453 20.9686L14.165 20.9386L14.1229 19.9395ZM13.4109 19.9695L13.38 18.97L13.186 18.976L13.2169 19.9755L13.2478 20.975L13.4418 20.969L13.4109 19.9695ZM13.2169 19.9755L13.1885 18.9759C12.7091 18.9895 12.1488 18.9965 11.0262 18.9985L11.028 19.9985L11.0298 20.9985C12.1571 20.9965 12.7387 20.9895 13.2453 20.9751L13.2169 19.9755ZM11.028 19.9985L11.0267 18.9985L10.2807 18.9995L10.282 19.9995L10.2834 20.9995L11.0294 20.9985L11.028 19.9985ZM10.282 19.9995V18.9995H8.97312V19.9995V20.9995H10.282V19.9995ZM8.97312 19.9995L8.96959 18.9995C8.24924 19.0021 7.5289 18.9945 6.80877 18.9768L6.78423 19.9765L6.75969 20.9762C7.49853 20.9943 8.23758 21.0021 8.97664 20.9995L8.97312 19.9995ZM6.78423 19.9765L6.81513 18.977L6.62114 18.971L6.59024 19.9705L6.55933 20.97L6.75332 20.976L6.78423 19.9765ZM6.59024 19.9705L6.62808 18.9712C6.39447 18.9624 6.16092 18.9522 5.92742 18.9407L5.87827 19.9395L5.82912 20.9383C6.07015 20.9502 6.31124 20.9607 6.55239 20.9698L6.59024 19.9705ZM5.87827 19.9395L5.92521 18.9406C4.9548 18.895 4.33663 18.7453 3.81144 18.542L3.45039 19.4745L3.08935 20.4071C3.84009 20.6977 4.67385 20.884 5.83133 20.9384L5.87827 19.9395ZM3.45039 19.4745L3.80246 18.5386C3.27148 18.3388 2.79047 18.0257 2.39297 17.6209L1.67948 18.3216L0.965993 19.0222C1.56734 19.6346 2.29504 20.1084 3.09833 20.4105L3.45039 19.4745ZM1.67948 18.3216L2.37997 17.6079C1.97482 17.2102 1.66138 16.7289 1.46153 16.1976L0.525542 16.5496L-0.410443 16.9016C-0.108103 17.7055 0.366086 18.4336 0.979003 19.0352L1.67948 18.3216ZM0.525542 16.5496L1.45791 16.1881C1.25482 15.6643 1.10508 15.0464 1.05947 14.0748L0.0605657 14.1217L-0.938334 14.1686C-0.883953 15.3269 -0.697707 16.1609 -0.406822 16.9111L0.525542 16.5496ZM0.0605657 14.1217L1.05968 14.0796L1.02968 13.3676L0.0305672 13.4097L-0.968546 13.4518L-0.938548 14.1638L0.0605657 14.1217ZM0.0305672 13.4097L1.03024 13.3839L1.02524 13.1899L0.0255676 13.2157L-0.9741 13.2414L-0.969101 13.4354L0.0305672 13.4097ZM0.0255676 13.2157L1.02525 13.1904C1.00705 12.4705 0.99882 11.7503 1.00057 11.0302L0.000568768 11.0277L-0.999428 11.0253C-1.00122 11.7639 -0.992779 12.5026 -0.974113 13.241L0.0255676 13.2157ZM0.000568768 11.0277H1.00057V8.97178H0.000568768H-0.999431V11.0277H0.000568768ZM0.000568768 8.97178L1.00056 8.96799C0.997829 8.24784 1.00507 7.52769 1.02228 6.80774L0.0225677 6.78384L-0.977147 6.75994C-0.9948 7.49834 -1.00223 8.23696 -0.999424 8.97558L0.000568768 8.97178ZM0.0225677 6.78384L1.02192 6.81989L1.02892 6.6259L0.0295674 6.58984L-0.969782 6.55378L-0.976782 6.74778L0.0225677 6.78384ZM0.0295674 6.58984L1.02894 6.62537C1.03673 6.40604 1.0465 6.19001 1.05855 5.92292L0.0595658 5.87786L-0.939418 5.83279C-0.951368 6.09769 -0.9616 6.32366 -0.969801 6.55431L0.0295674 6.58984ZM0.0595658 5.87786L1.05847 5.92475C1.10407 4.95344 1.25373 4.33624 1.4571 3.81094L0.524542 3.44992L-0.408013 3.08889C-0.698625 3.83956 -0.884939 4.67232 -0.939334 5.83096L0.0595658 5.87786ZM0.524542 3.44992L1.46029 3.80259C1.66061 3.27109 1.9746 2.78976 2.38032 2.39226L1.68048 1.67796L0.98065 0.963654C0.366864 1.56501 -0.108158 2.29317 -0.411204 3.09724L0.524542 3.44992ZM1.68048 1.67796L2.39409 2.3785C2.79136 1.97383 3.27209 1.66067 3.80278 1.46084L3.45039 0.524987L3.09801 -0.410868C2.29514 -0.108559 1.56787 0.365211 0.966874 0.977417L1.68048 1.67796ZM3.45039 0.524987L3.81144 1.45754C4.33672 1.25417 4.95389 1.1045 5.92517 1.0589L5.87827 0.0599985L5.83137 -0.938901C4.67276 -0.884505 3.84001 -0.698184 3.08935 -0.407562L3.45039 0.524987ZM5.87827 0.0599985L5.92334 1.05898C6.19024 1.04694 6.40745 1.03717 6.62593 1.02936L6.59024 0.0299992L6.55454 -0.969364C6.32504 -0.961167 6.09828 -0.950944 5.8332 -0.938985L5.87827 0.0599985ZM6.59024 0.0299992L6.62115 1.02952L6.81514 1.02352L6.78423 0.0239993L6.75331 -0.975523L6.55932 -0.969523L6.59024 0.0299992ZM6.78423 0.0239993L6.80859 1.0237C7.52851 1.00616 8.24864 0.998591 8.96878 1.00099L8.97212 0.000999903L8.97545 -0.998995C8.23685 -1.00146 7.49825 -0.993696 6.75987 -0.975704L6.78423 0.0239993ZM8.97212 0.000999903L8.9726 1.001L11.0285 1L11.028 0L11.0275 -1L8.97163 -0.999L8.97212 0.000999903ZM10.0001 4.99988L10.0001 3.99988C8.40882 3.99988 6.88276 4.63201 5.75759 5.75721L6.46471 6.46431L7.17183 7.17141C7.92193 6.42129 8.93927 5.99988 10.0001 5.99988L10.0001 4.99988ZM6.46471 6.46431L5.75759 5.75721C4.63242 6.88241 4.00032 8.4085 4.00032 9.99976H5.00032H6.00032C6.00032 8.93892 6.42172 7.92153 7.17183 7.17141L6.46471 6.46431ZM5.00032 9.99976H4.00032C4.00032 11.591 4.63242 13.1171 5.75759 14.2423L6.46471 13.5352L7.17183 12.8281C6.42172 12.078 6.00032 11.0606 6.00032 9.99976H5.00032ZM6.46471 13.5352L5.75759 14.2423C6.88276 15.3675 8.40882 15.9996 10.0001 15.9996V14.9996V13.9996C8.93927 13.9996 7.92193 13.5782 7.17183 12.8281L6.46471 13.5352ZM10.0001 14.9996L10.0001 15.9996C11.5913 15.9996 13.1174 15.3675 14.2425 14.2423L13.5354 13.5352L12.8283 12.8281C12.0782 13.5782 11.0609 13.9996 10.0001 13.9996L10.0001 14.9996ZM13.5354 13.5352L14.2425 14.2423C15.3677 13.1171 15.9998 11.591 15.9998 9.99976L14.9998 9.99976L13.9998 9.99976C13.9998 11.0606 13.5784 12.078 12.8283 12.8281L13.5354 13.5352ZM14.9998 9.99976L15.9998 9.99976C15.9998 8.4085 15.3677 6.88241 14.2425 5.75721L13.5354 6.46431L12.8283 7.17141C13.5784 7.92153 13.9998 8.93892 13.9998 9.99976L14.9998 9.99976ZM13.5354 6.46431L14.2425 5.75721C13.1174 4.63201 11.5913 3.99988 10.0001 3.99988V4.99988V5.99988C11.0609 5.99988 12.0782 6.42129 12.8283 7.17141L13.5354 6.46431ZM10.0001 6.99983L10.0002 7.99983C10.2629 7.99979 10.5229 8.05147 10.7656 8.15194L11.1481 7.228L11.5306 6.30406C11.0453 6.10312 10.5252 5.99974 9.9999 5.99983L10.0001 6.99983ZM11.1481 7.228L10.7656 8.15194C11.0082 8.2524 11.2287 8.39967 11.4144 8.58535L12.1214 7.87814L12.8284 7.17092C12.4569 6.79955 12.016 6.50499 11.5306 6.30406L11.1481 7.228ZM12.1214 7.87814L11.4144 8.58535C11.6002 8.77103 11.7475 8.99147 11.8481 9.2341L12.7719 8.85127L13.6957 8.46845C13.4946 7.98319 13.1999 7.54229 12.8284 7.17092L12.1214 7.87814ZM12.7719 8.85127L11.8481 9.2341C11.9486 9.47673 12.0004 9.73679 12.0004 9.99942L13.0004 9.99926L14.0004 9.99909C14.0003 9.47382 13.8968 8.9537 13.6957 8.46845L12.7719 8.85127ZM13.0004 9.99926L12.0004 9.99942C12.0005 10.2621 11.9488 10.5221 11.8483 10.7648L12.7723 11.1473L13.6962 11.5298C13.8971 11.0445 14.0005 10.5244 14.0004 9.99909L13.0004 9.99926ZM12.7723 11.1473L11.8483 10.7648C11.7478 11.0075 11.6006 11.228 11.4149 11.4137L12.1221 12.1207L12.8294 12.8277C13.2007 12.4562 13.4953 12.0152 13.6962 11.5298L12.7723 11.1473ZM12.1221 12.1207L11.4149 11.4137C11.2292 11.5994 11.0088 11.7468 10.7662 11.8473L11.149 12.7711L11.5319 13.695C12.0171 13.4939 12.458 13.1991 12.8294 12.8277L12.1221 12.1207ZM11.149 12.7711L10.7662 11.8473C10.5236 11.9479 10.2635 11.9996 10.0009 11.9997L10.0011 12.9997L10.0012 13.9997C10.5265 13.9996 11.0466 13.896 11.5319 13.695L11.149 12.7711ZM10.0011 12.9997L10.0011 11.9997C9.47068 11.9997 8.96201 11.789 8.58697 11.4139L7.87985 12.121L7.17274 12.8281C7.92285 13.5783 8.94023 13.9997 10.0011 13.9997L10.0011 12.9997ZM7.87985 12.121L8.58697 11.4139C8.21192 11.0389 8.00122 10.5302 8.00122 9.99976H7.00122H6.00122C6.00122 11.0606 6.42262 12.078 7.17274 12.8281L7.87985 12.121ZM7.00122 9.99976H8.00122C8.00122 9.46934 8.21192 8.96064 8.58697 8.58559L7.87985 7.87849L7.17274 7.17139C6.42262 7.92153 6.00122 8.93892 6.00122 9.99976H7.00122ZM7.87985 7.87849L8.58697 8.58559C8.96201 8.21053 9.47068 7.99983 10.0011 7.99983L10.0011 6.99983L10.0011 5.99983C8.94023 5.99983 7.92285 6.42126 7.17274 7.17139L7.87985 7.87849ZM15.2508 3.49992V2.49992C14.6541 2.49992 14.0818 2.73697 13.6598 3.15893L14.367 3.86602L15.0741 4.57312C15.121 4.52624 15.1845 4.49992 15.2508 4.49992V3.49992ZM14.367 3.86602L13.6598 3.15893C13.2379 3.58088 13.0009 4.15316 13.0009 4.74989H14.0009H15.0009C15.0009 4.68358 15.0272 4.62 15.0741 4.57312L14.367 3.86602ZM14.0009 4.74989H13.0009C13.0009 5.34661 13.2379 5.91889 13.6598 6.34084L14.367 5.63375L15.0741 4.92665C15.0272 4.87977 15.0009 4.81619 15.0009 4.74989H14.0009ZM14.367 5.63375L13.6598 6.34084C14.0818 6.7628 14.6541 6.99985 15.2508 6.99985V5.99985V4.99985C15.1845 4.99985 15.121 4.97353 15.0741 4.92665L14.367 5.63375ZM15.2508 5.99985V6.99985C15.8475 6.99985 16.4198 6.7628 16.8418 6.34084L16.1346 5.63375L15.4275 4.92665C15.3806 4.97352 15.3171 4.99985 15.2508 4.99985V5.99985ZM16.1346 5.63375L16.8418 6.34084C17.2637 5.91889 17.5007 5.3466 17.5007 4.74989H16.5007H15.5007C15.5007 4.81619 15.4744 4.87977 15.4275 4.92665L16.1346 5.63375ZM16.5007 4.74989H17.5007C17.5007 4.15317 17.2637 3.58088 16.8418 3.15893L16.1346 3.86602L15.4275 4.57312C15.4744 4.62 15.5007 4.68358 15.5007 4.74989H16.5007ZM16.1346 3.86602L16.8418 3.15893C16.4198 2.73697 15.8475 2.49992 15.2508 2.49992V3.49992V4.49992C15.3171 4.49992 15.3806 4.52625 15.4275 4.57312L16.1346 3.86602Z" fill="#26292F" mask="url(#path-1-inside-1_30551_242)"/>
</g>
<defs>
<clipPath id="clip0_30551_242">
<rect width="20" height="20" fill="white"/>
</clipPath>
</defs>
</svg>
