<svg width="20" height="20" viewBox="0 0 20 20" fill="none" xmlns="http://www.w3.org/2000/svg">
<g clip-path="url(#clip0_30551_588)">
<path d="M0.666992 -1.5H19.333C19.9076 -1.5 20.4589 -1.27156 20.8652 -0.865234C21.2716 -0.458906 21.5 0.0923559 21.5 0.666992V19.333C21.5 19.9076 21.2716 20.4589 20.8652 20.8652C20.4589 21.2716 19.9076 21.5 19.333 21.5H0.666992C0.0923559 21.5 -0.458906 21.2716 -0.865234 20.8652C-1.27156 20.4589 -1.5 19.9076 -1.5 19.333V0.666992C-1.5 0.0923563 -1.27156 -0.458906 -0.865234 -0.865234C-0.458906 -1.27156 0.0923563 -1.5 0.666992 -1.5ZM0.833008 19.167H5.52637V7.00684H0.833008V19.167ZM14.3203 6.75293C13.4433 6.75293 12.4838 7.10769 11.7266 7.70312V7.00684H7.00684V19.167H11.7266V12.0938C11.7266 11.3385 12.3342 10.7266 13.0801 10.7266C13.4424 10.7266 13.7896 10.8708 14.0459 11.127C14.3022 11.3833 14.4463 11.7313 14.4463 12.0938V19.167H19.167V11.5996C19.1669 10.3143 18.6559 9.08169 17.7471 8.17285C16.8382 7.26402 15.6056 6.75301 14.3203 6.75293ZM3.17285 0.419922C2.4428 0.42005 1.7428 0.710326 1.22656 1.22656C0.710326 1.7428 0.42005 2.4428 0.419922 3.17285C0.419922 4.69269 1.6608 5.91283 3.17285 5.91309C3.89954 5.91309 4.5965 5.6242 5.11035 5.11035C5.6242 4.5965 5.91309 3.89954 5.91309 3.17285C5.91283 1.6608 4.69269 0.419922 3.17285 0.419922Z" fill="black" stroke="#26292F"/>
</g>
<defs>
<clipPath id="clip0_30551_588">
<rect width="20" height="20" fill="white"/>
</clipPath>
</defs>
</svg>
