<svg width="20" height="20" viewBox="0 0 20 20" fill="none" xmlns="http://www.w3.org/2000/svg">
<g clip-path="url(#clip0_30551_442)">
<path d="M10 0.5C11.2476 0.5 12.4831 0.745237 13.6357 1.22266C14.7883 1.70008 15.8356 2.40008 16.7178 3.28223C17.5999 4.16437 18.2999 5.21168 18.7773 6.36426C19.2548 7.51685 19.5 8.75244 19.5 10C19.5 12.5196 18.4994 14.9362 16.7178 16.7178C14.9362 18.4994 12.5196 19.5 10 19.5C9.25038 19.5 8.53207 19.4034 7.82031 19.2324C8.20244 18.556 8.62538 17.7023 8.81348 16.999L8.8125 16.998L9.24316 15.4775C9.37624 15.5742 9.51755 15.6625 9.66504 15.7383C10.1307 15.9777 10.6886 16.1298 11.2598 16.1299C14.6762 16.1299 16.9404 13.0459 16.9404 9.42969C16.9403 5.84224 14.0035 3.17984 10.3203 3.17969C8.0447 3.17969 6.27025 3.93877 5.06445 5.1582C3.86255 6.37377 3.25977 8.01229 3.25977 9.70996C3.25977 10.5215 3.46293 11.419 3.84082 12.1953C4.21206 12.9578 4.78075 13.6576 5.55469 14.0059C5.69576 14.0902 5.92848 14.1835 6.18359 14.0723C6.44923 13.9565 6.52957 13.7175 6.55078 13.5479L6.82617 12.5127L5.95312 16.2666L5.95117 16.2734L5.9502 16.2812C5.81335 16.9581 5.82023 17.8204 5.86719 18.5459C2.68667 17.0036 0.5 13.7471 0.5 10C0.5 7.48044 1.50063 5.06382 3.28223 3.28223C4.16437 2.40008 5.21168 1.70008 6.36426 1.22266C7.51685 0.745237 8.75244 0.5 10 0.5ZM10.0303 5.95996C11.1531 5.96002 12.0711 6.33116 12.7051 6.94043C13.3373 7.54814 13.7197 8.42411 13.7197 9.5C13.7197 10.7588 13.3956 11.798 12.8984 12.5078C12.4041 13.2134 11.7539 13.5801 11.0596 13.5801C10.3892 13.5798 9.91962 13.0219 10.0293 12.3408C10.1688 11.7785 10.3715 11.2163 10.5557 10.6367C10.7325 10.0803 10.9004 9.48762 10.9004 8.96973C10.9003 8.49023 10.7821 8.00751 10.4824 7.63379C10.1699 7.2441 9.70441 7.03027 9.13965 7.03027C7.77765 7.03051 6.7998 8.40401 6.7998 9.94043C6.79985 10.4524 6.88032 10.8727 6.96289 11.1689C6.99841 11.2963 7.03507 11.4015 7.06543 11.4814L6.84082 12.4492C6.85554 12.3751 6.88103 12.2415 6.8584 12.1016C6.83374 11.9495 6.76112 11.8242 6.65918 11.7285C6.29462 11.2606 6.0498 10.5216 6.0498 9.76953C6.05004 7.81535 7.50668 5.95996 10.0303 5.95996Z" fill="#26292F" stroke="#26292F"/>
</g>
<defs>
<clipPath id="clip0_30551_442">
<rect width="20" height="20" fill="white"/>
</clipPath>
</defs>
</svg>
