<svg width="0" height="0" class="hidden">
  <symbol fill="none" xmlns="http://www.w3.org/2000/svg" viewBox="0 0 24 24" id="arrow-left">
    <path d="M15.0001 19.9201L8.48009 13.4001C7.71009 12.6301 7.71009 11.3701 8.48009 10.6001L15.0001 4.08008" stroke="#26292F" stroke-width="1.5" stroke-miterlimit="10" stroke-linecap="round" stroke-linejoin="round"></path>
  </symbol>
  <symbol fill="none" xmlns="http://www.w3.org/2000/svg" viewBox="0 0 24 24" id="arrow-right">
    <path d="M8.90991 19.9201L15.4299 13.4001C16.1999 12.6301 16.1999 11.3701 15.4299 10.6001L8.90991 4.08008" stroke="#26292F" stroke-width="1.5" stroke-miterlimit="10" stroke-linecap="round" stroke-linejoin="round"></path>
  </symbol>
  <symbol fill="none" xmlns="http://www.w3.org/2000/svg" viewBox="0 0 20 20" id="call">
    <path d="M18.3084 15.275C18.3084 15.575 18.2417 15.8834 18.1001 16.1834C17.9584 16.4834 17.7751 16.7667 17.5334 17.0334C17.1251 17.4834 16.6751 17.8084 16.1667 18.0167C15.6667 18.225 15.1251 18.3334 14.5417 18.3334C13.6917 18.3334 12.7834 18.1334 11.8251 17.725C10.8667 17.3167 9.90842 16.7667 8.95842 16.075C8.00008 15.375 7.09175 14.6 6.22508 13.7417C5.36675 12.875 4.59175 11.9667 3.90008 11.0167C3.21675 10.0667 2.66675 9.11669 2.26675 8.17502C1.86675 7.22502 1.66675 6.31669 1.66675 5.45002C1.66675 4.88335 1.76675 4.34169 1.96675 3.84169C2.16675 3.33335 2.48341 2.86669 2.92508 2.45002C3.45841 1.92502 4.04175 1.66669 4.65841 1.66669C4.89175 1.66669 5.12508 1.71669 5.33341 1.81669C5.55008 1.91669 5.74175 2.06669 5.89175 2.28335L7.82508 5.00835C7.97508 5.21669 8.08341 5.40835 8.15841 5.59169C8.23341 5.76669 8.27508 5.94169 8.27508 6.10002C8.27508 6.30002 8.21675 6.50002 8.10008 6.69169C7.99175 6.88335 7.83341 7.08335 7.63341 7.28335L7.00008 7.94169C6.90841 8.03335 6.86675 8.14169 6.86675 8.27502C6.86675 8.34169 6.87508 8.40002 6.89175 8.46669C6.91675 8.53335 6.94175 8.58335 6.95842 8.63335C7.10842 8.90835 7.36675 9.26669 7.73341 9.70002C8.10841 10.1334 8.50841 10.575 8.94175 11.0167C9.39175 11.4584 9.82508 11.8667 10.2667 12.2417C10.7001 12.6084 11.0584 12.8584 11.3417 13.0084C11.3834 13.025 11.4334 13.05 11.4917 13.075C11.5584 13.1 11.6251 13.1084 11.7001 13.1084C11.8417 13.1084 11.9501 13.0584 12.0417 12.9667L12.6751 12.3417C12.8834 12.1334 13.0834 11.975 13.2751 11.875C13.4667 11.7584 13.6584 11.7 13.8667 11.7C14.0251 11.7 14.1917 11.7334 14.3751 11.8084C14.5584 11.8834 14.7501 11.9917 14.9584 12.1334L17.7167 14.0917C17.9334 14.2417 18.0834 14.4167 18.1751 14.625C18.2584 14.8334 18.3084 15.0417 18.3084 15.275Z" stroke="#26292F" stroke-width="1.5" stroke-miterlimit="10"></path>
    <path d="M15.4167 7.49998C15.4167 6.99998 15.025 6.23331 14.4417 5.60831C13.9083 5.03331 13.2 4.58331 12.5 4.58331" stroke="#26292F" stroke-width="1.5" stroke-linecap="round" stroke-linejoin="round"></path>
    <path d="M18.3333 7.50002C18.3333 4.27502 15.725 1.66669 12.5 1.66669" stroke="#26292F" stroke-width="1.5" stroke-linecap="round" stroke-linejoin="round"></path>
  </symbol>
  <symbol fill="none" xmlns="http://www.w3.org/2000/svg" viewBox="0 0 24 24" id="cup">
    <path d="M12.1499 16.5V18.6" stroke="#26292F" stroke-width="1.125" stroke-linecap="round" stroke-linejoin="round"></path>
    <path d="M7.15015 22H17.1501V21C17.1501 19.9 16.2501 19 15.1501 19H9.15015C8.05015 19 7.15015 19.9 7.15015 21V22V22Z" stroke="#26292F" stroke-width="1.125" stroke-miterlimit="10"></path>
    <path d="M6.1499 22H18.1499" stroke="#26292F" stroke-width="1.125" stroke-linecap="round" stroke-linejoin="round"></path>
    <path d="M12 16C8.13 16 5 12.87 5 9V6C5 3.79 6.79 2 9 2H15C17.21 2 19 3.79 19 6V9C19 12.87 15.87 16 12 16Z" stroke="#26292F" stroke-width="1.125" stroke-linecap="round" stroke-linejoin="round"></path>
    <path d="M5.47004 11.6496C4.72004 11.4096 4.06004 10.9696 3.54004 10.4496C2.64004 9.44961 2.04004 8.24961 2.04004 6.84961C2.04004 5.44961 3.14004 4.34961 4.54004 4.34961H5.19004C4.99004 4.80961 4.89004 5.31961 4.89004 5.84961V8.84961C4.89004 9.84961 5.10004 10.7896 5.47004 11.6496Z" stroke="#26292F" stroke-width="1.125" stroke-linecap="round" stroke-linejoin="round"></path>
    <path d="M18.53 11.6496C19.28 11.4096 19.94 10.9696 20.46 10.4496C21.36 9.44961 21.96 8.24961 21.96 6.84961C21.96 5.44961 20.86 4.34961 19.46 4.34961H18.81C19.01 4.80961 19.11 5.31961 19.11 5.84961V8.84961C19.11 9.84961 18.9 10.7896 18.53 11.6496Z" stroke="#26292F" stroke-width="1.125" stroke-linecap="round" stroke-linejoin="round"></path>
  </symbol>
  <symbol fill="none" xmlns="http://www.w3.org/2000/svg" viewBox="0 0 25 24" id="chart">
    <path d="M2.5 22H22.5" stroke="#26292F" stroke-width="1.125" stroke-miterlimit="10" stroke-linecap="round" stroke-linejoin="round"></path>
    <path d="M10.25 4V22H14.75V4C14.75 2.9 14.3 2 12.95 2H12.05C10.7 2 10.25 2.9 10.25 4Z" stroke="#26292F" stroke-width="1.125" stroke-linecap="round" stroke-linejoin="round"></path>
    <path d="M3.5 10V22H7.5V10C7.5 8.9 7.1 8 5.9 8H5.1C3.9 8 3.5 8.9 3.5 10Z" stroke="#26292F" stroke-width="1.125" stroke-linecap="round" stroke-linejoin="round"></path>
    <path d="M17.5 15V22H21.5V15C21.5 13.9 21.1 13 19.9 13H19.1C17.9 13 17.5 13.9 17.5 15Z" stroke="#26292F" stroke-width="1.125" stroke-linecap="round" stroke-linejoin="round"></path>
  </symbol>
  <symbol fill="none" xmlns="http://www.w3.org/2000/svg" viewBox="0 0 24 24" id="customers">
    <path d="M9.16006 10.87C9.06006 10.86 8.94006 10.86 8.83006 10.87C6.45006 10.79 4.56006 8.84 4.56006 6.44C4.56006 3.99 6.54006 2 9.00006 2C11.4501 2 13.4401 3.99 13.4401 6.44C13.4301 8.84 11.5401 10.79 9.16006 10.87Z" stroke="#26292F" stroke-width="1.125" stroke-linecap="round" stroke-linejoin="round"></path>
    <path d="M16.41 4C18.35 4 19.91 5.57 19.91 7.5C19.91 9.39 18.41 10.93 16.54 11C16.46 10.99 16.37 10.99 16.28 11" stroke="#26292F" stroke-width="1.125" stroke-linecap="round" stroke-linejoin="round"></path>
    <path d="M4.15997 14.56C1.73997 16.18 1.73997 18.82 4.15997 20.43C6.90997 22.27 11.42 22.27 14.17 20.43C16.59 18.81 16.59 16.17 14.17 14.56C11.43 12.73 6.91997 12.73 4.15997 14.56Z" stroke="#26292F" stroke-width="1.125" stroke-linecap="round" stroke-linejoin="round"></path>
    <path d="M18.3401 20C19.0601 19.85 19.7401 19.56 20.3001 19.13C21.8601 17.96 21.8601 16.03 20.3001 14.86C19.7501 14.44 19.0801 14.16 18.3701 14" stroke="#26292F" stroke-width="1.125" stroke-linecap="round" stroke-linejoin="round"></path>
  </symbol>
  <symbol fill="none" xmlns="http://www.w3.org/2000/svg" viewBox="0 0 24 24" id="dollar">
    <path d="M8.67188 14.3298C8.67188 15.6198 9.66188 16.6598 10.8919 16.6598H13.4019C14.4719 16.6598 15.3419 15.7498 15.3419 14.6298C15.3419 13.4098 14.8119 12.9798 14.0219 12.6998L9.99187 11.2998C9.20187 11.0198 8.67188 10.5898 8.67188 9.36984C8.67188 8.24984 9.54187 7.33984 10.6119 7.33984H13.1219C14.3519 7.33984 15.3419 8.37984 15.3419 9.66984" stroke="#26292F" stroke-width="1.125" stroke-linecap="round" stroke-linejoin="round"></path>
    <path d="M12 6V18" stroke="#26292F" stroke-width="1.125" stroke-linecap="round" stroke-linejoin="round"></path>
    <path d="M12 22C17.5228 22 22 17.5228 22 12C22 6.47715 17.5228 2 12 2C6.47715 2 2 6.47715 2 12C2 17.5228 6.47715 22 12 22Z" stroke="#26292F" stroke-width="1.125" stroke-linecap="round" stroke-linejoin="round"></path>
  </symbol>
  <symbol fill="none" xmlns="http://www.w3.org/2000/svg" viewBox="0 0 25 24" id="heart">
    <path d="M13.2867 20.8101C12.9467 20.9301 12.3867 20.9301 12.0467 20.8101C9.14675 19.8201 2.66675 15.6901 2.66675 8.6901C2.66675 5.6001 5.15675 3.1001 8.22675 3.1001C10.0467 3.1001 11.6567 3.9801 12.6667 5.3401C13.6767 3.9801 15.2967 3.1001 17.1067 3.1001C20.1767 3.1001 22.6667 5.6001 22.6667 8.6901C22.6667 15.6901 16.1867 19.8201 13.2867 20.8101Z" stroke="#26292F" stroke-width="1.125" stroke-linecap="round" stroke-linejoin="round"></path>
  </symbol>
  <symbol fill="none" xmlns="http://www.w3.org/2000/svg" viewBox="0 0 25 24" id="email">
    <path d="M2.5 8.5C2.5 5 4.5 3.5 7.5 3.5H17.5C20.5 3.5 22.5 5 22.5 8.5V15.5C22.5 19 20.5 20.5 17.5 20.5H7.5" stroke="#26292F" stroke-width="1.125" stroke-miterlimit="10" stroke-linecap="round" stroke-linejoin="round"></path>
    <path d="M17.5 9L14.37 11.5C13.34 12.32 11.65 12.32 10.62 11.5L7.5 9" stroke="#26292F" stroke-width="1.125" stroke-miterlimit="10" stroke-linecap="round" stroke-linejoin="round"></path>
    <path d="M2.5 16.5H8.5" stroke="#26292F" stroke-width="1.125" stroke-miterlimit="10" stroke-linecap="round" stroke-linejoin="round"></path>
    <path d="M2.5 12.5H5.5" stroke="#26292F" stroke-width="1.125" stroke-miterlimit="10" stroke-linecap="round" stroke-linejoin="round"></path>
  </symbol>
  <symbol fill="none" xmlns="http://www.w3.org/2000/svg" viewBox="0 0 29 28" id="increase">
    <path d="M4.12858 16.1891C3.97586 16.1891 3.79767 16.1382 3.6704 16.0109C3.41586 15.7564 3.41586 15.3491 3.6704 15.12L14.6922 4.07275C14.9468 3.8182 15.354 3.8182 15.5831 4.07275C15.8377 4.32729 15.8377 4.73456 15.5831 4.96365L4.58676 15.9855C4.45949 16.1127 4.30676 16.1891 4.12858 16.1891Z" fill="#26292F"></path>
    <path d="M15.1505 11.4545C14.7942 11.4545 14.5142 11.1745 14.5142 10.8182V5.16726H8.73597C8.37961 5.16726 8.09961 4.88726 8.09961 4.53089C8.09961 4.17453 8.37961 3.89453 8.73597 3.89453H15.1505C15.5069 3.89453 15.7869 4.17453 15.7869 4.53089V10.8182C15.7869 11.1745 15.5069 11.4545 15.1505 11.4545Z" fill="#26292F"></path>
    <path d="M23.9066 8.98566C22.8376 8.98566 21.9976 8.12021 21.9976 7.07657C21.9976 6.03294 22.863 5.16748 23.9066 5.16748C24.9503 5.16748 25.8157 6.03294 25.8157 7.07657C25.8157 8.12021 24.9757 8.98566 23.9066 8.98566ZM23.9066 6.41475C23.5503 6.41475 23.2703 6.69475 23.2703 7.05112C23.2703 7.40748 23.5503 7.68748 23.9066 7.68748C24.263 7.68748 24.543 7.40748 24.543 7.05112C24.543 6.69475 24.263 6.41475 23.9066 6.41475Z" fill="#26292F"></path>
    <path d="M23.9066 14.0257C22.8376 14.0257 21.9976 13.1602 21.9976 12.1166C21.9976 11.073 22.863 10.2075 23.9066 10.2075C24.9503 10.2075 25.8157 11.073 25.8157 12.1166C25.8157 13.1602 24.9757 14.0257 23.9066 14.0257ZM23.9066 11.4548C23.5503 11.4548 23.2703 11.7348 23.2703 12.0912C23.2703 12.4475 23.5503 12.7275 23.9066 12.7275C24.263 12.7275 24.543 12.4475 24.543 12.0912C24.543 11.7348 24.263 11.4548 23.9066 11.4548Z" fill="#26292F"></path>
    <path d="M18.8669 14.0257C17.7978 14.0257 16.9578 13.1602 16.9578 12.1166C16.9578 11.073 17.8232 10.2075 18.8669 10.2075C19.9105 10.2075 20.7759 11.073 20.7759 12.1166C20.7759 13.1602 19.9105 14.0257 18.8669 14.0257ZM18.8669 11.4548C18.5105 11.4548 18.2305 11.7348 18.2305 12.0912C18.2305 12.4475 18.5105 12.7275 18.8669 12.7275C19.2232 12.7275 19.5032 12.4475 19.5032 12.0912C19.5032 11.7348 19.2232 11.4548 18.8669 11.4548Z" fill="#26292F"></path>
    <path d="M23.9066 19.0653C22.8376 19.0653 21.9976 18.1998 21.9976 17.1562C21.9976 16.1125 22.863 15.2471 23.9066 15.2471C24.9503 15.2471 25.8157 16.1125 25.8157 17.1562C25.8157 18.1998 24.9757 19.0653 23.9066 19.0653ZM23.9066 16.4943C23.5503 16.4943 23.2703 16.7743 23.2703 17.1307C23.2703 17.4871 23.5503 17.7671 23.9066 17.7671C24.263 17.7671 24.543 17.4871 24.543 17.1307C24.5685 16.7998 24.263 16.4943 23.9066 16.4943Z" fill="#26292F"></path>
    <path d="M18.8669 19.0653C17.7978 19.0653 16.9578 18.1998 16.9578 17.1562C16.9578 16.1125 17.8232 15.2471 18.8669 15.2471C19.9105 15.2471 20.7759 16.1125 20.7759 17.1562C20.7759 18.1998 19.9105 19.0653 18.8669 19.0653ZM18.8669 16.4943C18.5105 16.4943 18.2305 16.7743 18.2305 17.1307C18.2305 17.4871 18.5105 17.7671 18.8669 17.7671C19.2232 17.7671 19.5032 17.4871 19.5032 17.1307C19.5032 16.7998 19.2232 16.4943 18.8669 16.4943Z" fill="#26292F"></path>
    <path d="M13.8014 19.0653C12.7323 19.0653 11.8923 18.1998 11.8923 17.1562C11.8923 16.1125 12.7578 15.2471 13.8014 15.2471C14.8705 15.2471 15.7105 16.1125 15.7105 17.1562C15.7105 18.1998 14.8705 19.0653 13.8014 19.0653ZM13.8014 16.4943C13.4451 16.4943 13.1651 16.7743 13.1651 17.1307C13.1651 17.4871 13.4451 17.7671 13.8014 17.7671C14.1578 17.7671 14.4378 17.4871 14.4378 17.1307C14.4632 16.7998 14.1578 16.4943 13.8014 16.4943Z" fill="#26292F"></path>
    <path d="M23.9066 24.1053C22.8376 24.1053 21.9976 23.2398 21.9976 22.1962C21.9976 21.1526 22.863 20.2871 23.9066 20.2871C24.9503 20.2871 25.8157 21.1526 25.8157 22.1962C25.8157 23.2398 24.9757 24.1053 23.9066 24.1053ZM23.9066 21.5344C23.5503 21.5344 23.2703 21.8144 23.2703 22.1707C23.2703 22.5271 23.5503 22.8071 23.9066 22.8071C24.263 22.8071 24.543 22.5271 24.543 22.1707C24.5685 21.8398 24.263 21.5344 23.9066 21.5344Z" fill="#26292F"></path>
    <path d="M18.8669 24.1053C17.7978 24.1053 16.9578 23.2398 16.9578 22.1962C16.9578 21.1526 17.8232 20.2871 18.8669 20.2871C19.9105 20.2871 20.7759 21.1271 20.7759 22.1962C20.7759 23.2653 19.9105 24.1053 18.8669 24.1053ZM18.8669 21.5344C18.5105 21.5344 18.2305 21.8144 18.2305 22.1707C18.2305 22.5271 18.5105 22.8071 18.8669 22.8071C19.2232 22.8071 19.5032 22.5271 19.5032 22.1707C19.5032 21.8398 19.2232 21.5344 18.8669 21.5344Z" fill="#26292F"></path>
    <path d="M13.8014 24.1053C12.7323 24.1053 11.8923 23.2398 11.8923 22.1962C11.8923 21.1526 12.7578 20.2871 13.8014 20.2871C14.8705 20.2871 15.7105 21.1526 15.7105 22.1962C15.7105 23.2398 14.8705 24.1053 13.8014 24.1053ZM13.8014 21.5344C13.4451 21.5344 13.1651 21.8144 13.1651 22.1707C13.1651 22.5271 13.4451 22.8071 13.8014 22.8071C14.1578 22.8071 14.4378 22.5271 14.4378 22.1707C14.4632 21.8398 14.1578 21.5344 13.8014 21.5344Z" fill="#26292F"></path>
    <path d="M8.76139 24.1053C7.6923 24.1053 6.85229 23.2398 6.85229 22.1962C6.85229 21.1526 7.71775 20.2871 8.76139 20.2871C9.80502 20.2871 10.6705 21.1526 10.6705 22.1962C10.6705 23.2398 9.80502 24.1053 8.76139 24.1053ZM8.76139 21.5344C8.40502 21.5344 8.12502 21.8144 8.12502 22.1707C8.12502 22.5271 8.40502 22.8071 8.76139 22.8071C9.11775 22.8071 9.39775 22.5271 9.39775 22.1707C9.39775 21.8398 9.11775 21.5344 8.76139 21.5344Z" fill="#26292F"></path>
  </symbol>
  <symbol fill="none" xmlns="http://www.w3.org/2000/svg" viewBox="0 0 20 20" id="long-arrow-right">
    <path d="M12.0249 4.94165L17.0832 9.99998L12.0249 15.0583" stroke="#26292F" stroke-width="1.5" stroke-miterlimit="10" stroke-linecap="round" stroke-linejoin="round"></path>
    <path d="M2.91675 10H16.9417" stroke="#26292F" stroke-width="1.5" stroke-miterlimit="10" stroke-linecap="round" stroke-linejoin="round"></path>
  </symbol>
    <symbol fill="none" xmlns="http://www.w3.org/2000/svg" viewBox="0 0 24 24" id="menu">
    <path d="M17.5401 8.31C18.8987 8.31 20.0001 7.20862 20.0001 5.85C20.0001 4.49138 18.8987 3.39 17.5401 3.39C16.1814 3.39 15.0801 4.49138 15.0801 5.85C15.0801 7.20862 16.1814 8.31 17.5401 8.31Z" stroke="#26292F" stroke-width="1.5" stroke-miterlimit="10" stroke-linecap="round" stroke-linejoin="round"></path>
    <path d="M6.46001 8.31C7.81863 8.31 8.92 7.20862 8.92 5.85C8.92 4.49138 7.81863 3.39 6.46001 3.39C5.10139 3.39 4 4.49138 4 5.85C4 7.20862 5.10139 8.31 6.46001 8.31Z" stroke="#26292F" stroke-width="1.5" stroke-miterlimit="10" stroke-linecap="round" stroke-linejoin="round"></path>
    <path d="M17.5401 20.61C18.8987 20.61 20.0001 19.5086 20.0001 18.15C20.0001 16.7914 18.8987 15.69 17.5401 15.69C16.1814 15.69 15.0801 16.7914 15.0801 18.15C15.0801 19.5086 16.1814 20.61 17.5401 20.61Z" stroke="#26292F" stroke-width="1.5" stroke-miterlimit="10" stroke-linecap="round" stroke-linejoin="round"></path>
    <path d="M6.46001 20.61C7.81863 20.61 8.92 19.5086 8.92 18.15C8.92 16.7914 7.81863 15.69 6.46001 15.69C5.10139 15.69 4 16.7914 4 18.15C4 19.5086 5.10139 20.61 6.46001 20.61Z" stroke="#26292F" stroke-width="1.5" stroke-miterlimit="10" stroke-linecap="round" stroke-linejoin="round"></path>
  </symbol>
  <symbol fill="none" xmlns="http://www.w3.org/2000/svg" viewBox="0 0 24 24" id="minus">
    <path d="M6 12H18" stroke="#26292F" stroke-width="1.5" stroke-linecap="round" stroke-linejoin="round"></path>
  </symbol>
  <symbol fill="none" xmlns="http://www.w3.org/2000/svg" viewBox="0 0 24 24" id="plus">
    <path d="M6 12H18" stroke="#26292F" stroke-width="1.5" stroke-linecap="round" stroke-linejoin="round"></path>
    <path d="M12 18V6" stroke="#26292F" stroke-width="1.5" stroke-linecap="round" stroke-linejoin="round"></path>
  </symbol>
  <symbol fill="none" xmlns="http://www.w3.org/2000/svg" viewBox="0 0 25 24" id="referrals">
    <mask id="path-1-outside-1_28655_4739" maskUnits="userSpaceOnUse" x="-0.666504" y="-1" width="26" height="26" fill="black">
      <rect fill="white" x="-0.666504" y="-1" width="26" height="26"></rect>
      <path d="M21.6499 18.052C22.4563 17.608 23.0031 16.766 23.0031 15.8C23.0031 14.3744 21.8135 13.2144 20.3515 13.2144C18.8891 13.2144 17.6995 14.374 17.6995 15.8C17.6995 16.7656 18.2463 17.608 19.0527 18.052C17.4935 18.592 16.3687 20.0716 16.3687 21.8128V23.6C16.3687 23.7061 16.4108 23.8078 16.4859 23.8828C16.5609 23.9579 16.6626 24 16.7687 24H23.9335C24.0396 24 24.1413 23.9579 24.2163 23.8828C24.2914 23.8078 24.3335 23.7061 24.3335 23.6V21.8124C24.3335 20.0716 23.2091 18.592 21.6499 18.052ZM18.4991 15.8C18.4991 14.8156 19.3299 14.0144 20.3511 14.0144C21.3723 14.0144 22.2027 14.8156 22.2027 15.8C22.2027 16.7844 21.3719 17.5856 20.3511 17.5856C19.3303 17.5856 18.4991 16.7844 18.4991 15.8ZM23.5335 23.2H17.1683V21.8124C17.1683 20.0576 18.5959 18.63 20.3511 18.63C22.1063 18.63 23.5335 20.058 23.5335 21.8124V23.2ZM21.6511 4.8368C22.4567 4.3928 23.0027 3.5508 23.0027 2.5856C23.0027 1.16 21.8131 0 20.3511 0C18.8887 0 17.6991 1.16 17.6991 2.5856C17.6991 3.5508 18.2451 4.3928 19.0511 4.8368C17.4923 5.3776 16.3687 6.8568 16.3687 8.5968V10.3844C16.3687 10.4905 16.4108 10.5922 16.4859 10.6672C16.5609 10.7423 16.6626 10.7844 16.7687 10.7844H23.9335C24.0396 10.7844 24.1413 10.7423 24.2163 10.6672C24.2914 10.5922 24.3335 10.4905 24.3335 10.3844V8.5968C24.3335 6.8568 23.2099 5.3772 21.6511 4.8368ZM18.4991 2.5856C18.4991 1.6012 19.3299 0.8 20.3511 0.8C21.3723 0.8 22.2027 1.6008 22.2027 2.5856C22.2027 3.5704 21.3719 4.3712 20.3511 4.3712C19.3303 4.3712 18.4991 3.57 18.4991 2.5856ZM23.5335 9.9844H17.1683V8.5968C17.1683 6.842 18.5959 5.4144 20.3511 5.4144C22.1063 5.4144 23.5335 6.842 23.5335 8.5968V9.9844ZM13.2299 11.8232L15.4795 9.8844C15.5207 9.85053 15.5546 9.80877 15.5794 9.76157C15.6042 9.71438 15.6194 9.6627 15.6239 9.60958C15.6284 9.55646 15.6223 9.50297 15.6059 9.45226C15.5895 9.40154 15.5631 9.35461 15.5282 9.31425C15.4934 9.27388 15.4509 9.24088 15.4031 9.21719C15.3553 9.19349 15.3033 9.17959 15.2501 9.17629C15.1969 9.17298 15.1436 9.18035 15.0933 9.19796C15.0429 9.21556 14.9966 9.24305 14.9571 9.2788L12.4595 11.4312H9.6451C9.53901 11.4312 9.43727 11.4733 9.36225 11.5484C9.28724 11.6234 9.2451 11.7251 9.2451 11.8312C9.2451 11.9373 9.28724 12.039 9.36225 12.114C9.43727 12.1891 9.53901 12.2312 9.6451 12.2312H12.4651L14.9647 14.2804C15.1583 14.4252 15.4167 14.3408 15.5275 14.2244C15.6799 14.0648 15.6427 13.8016 15.4715 13.6616L13.2299 11.8232ZM7.3515 10.864C7.83135 10.3139 8.09591 9.60876 8.0963 8.8788C8.0963 7.1936 6.7115 5.8224 5.0091 5.8224C3.3067 5.8224 1.9215 7.1936 1.9215 8.8788C1.9215 9.6368 2.2031 10.3296 2.6663 10.864C1.2503 11.6288 0.333496 13.1088 0.333496 14.7168V17.0696C0.333496 17.1757 0.375639 17.2774 0.450653 17.3524C0.525668 17.4275 0.627409 17.4696 0.733496 17.4696H9.2839C9.38998 17.4696 9.49172 17.4275 9.56674 17.3524C9.64175 17.2774 9.6839 17.1757 9.6839 17.0696V14.7168C9.6839 13.1088 8.7671 11.6288 7.3515 10.864ZM5.0087 6.6224C6.2699 6.6224 7.2959 7.6344 7.2959 8.8788C7.2959 10.1232 6.2699 11.1352 5.0087 11.1352C3.7475 11.1352 2.7211 10.1232 2.7211 8.8788C2.7211 7.6344 3.7475 6.6224 5.0087 6.6224ZM4.5771 11.9012C4.7187 11.9208 4.8619 11.9348 5.0087 11.9348C5.1555 11.9348 5.2987 11.9212 5.4403 11.9012V13.772L5.0087 14.3244L4.5771 13.772V11.9012ZM8.8839 16.6696H7.6263V14.7092C7.6263 14.1944 6.8263 14.1936 6.8263 14.7092V16.6696H3.1911V14.7092C3.1911 14.1944 2.3911 14.1936 2.3911 14.7092V16.6696H1.1335V14.7168C1.1335 13.3012 2.0107 12.0136 3.3287 11.4392C3.4707 11.5308 3.6203 11.6116 3.7775 11.6796V14.0484L4.6939 15.2208C4.73131 15.2686 4.77912 15.3073 4.8337 15.3339C4.88827 15.3605 4.94819 15.3743 5.0089 15.3743C5.06961 15.3743 5.12952 15.3605 5.1841 15.3339C5.23867 15.3073 5.28648 15.2686 5.3239 15.2208L6.2403 14.048V11.6796C6.3971 11.6116 6.5471 11.5308 6.6891 11.4392C8.0067 12.0136 8.8843 13.3016 8.8843 14.7168V16.6696H8.8839Z"></path>
    </mask>
    <path d="M21.6499 18.052C22.4563 17.608 23.0031 16.766 23.0031 15.8C23.0031 14.3744 21.8135 13.2144 20.3515 13.2144C18.8891 13.2144 17.6995 14.374 17.6995 15.8C17.6995 16.7656 18.2463 17.608 19.0527 18.052C17.4935 18.592 16.3687 20.0716 16.3687 21.8128V23.6C16.3687 23.7061 16.4108 23.8078 16.4859 23.8828C16.5609 23.9579 16.6626 24 16.7687 24H23.9335C24.0396 24 24.1413 23.9579 24.2163 23.8828C24.2914 23.8078 24.3335 23.7061 24.3335 23.6V21.8124C24.3335 20.0716 23.2091 18.592 21.6499 18.052ZM18.4991 15.8C18.4991 14.8156 19.3299 14.0144 20.3511 14.0144C21.3723 14.0144 22.2027 14.8156 22.2027 15.8C22.2027 16.7844 21.3719 17.5856 20.3511 17.5856C19.3303 17.5856 18.4991 16.7844 18.4991 15.8ZM23.5335 23.2H17.1683V21.8124C17.1683 20.0576 18.5959 18.63 20.3511 18.63C22.1063 18.63 23.5335 20.058 23.5335 21.8124V23.2ZM21.6511 4.8368C22.4567 4.3928 23.0027 3.5508 23.0027 2.5856C23.0027 1.16 21.8131 0 20.3511 0C18.8887 0 17.6991 1.16 17.6991 2.5856C17.6991 3.5508 18.2451 4.3928 19.0511 4.8368C17.4923 5.3776 16.3687 6.8568 16.3687 8.5968V10.3844C16.3687 10.4905 16.4108 10.5922 16.4859 10.6672C16.5609 10.7423 16.6626 10.7844 16.7687 10.7844H23.9335C24.0396 10.7844 24.1413 10.7423 24.2163 10.6672C24.2914 10.5922 24.3335 10.4905 24.3335 10.3844V8.5968C24.3335 6.8568 23.2099 5.3772 21.6511 4.8368ZM18.4991 2.5856C18.4991 1.6012 19.3299 0.8 20.3511 0.8C21.3723 0.8 22.2027 1.6008 22.2027 2.5856C22.2027 3.5704 21.3719 4.3712 20.3511 4.3712C19.3303 4.3712 18.4991 3.57 18.4991 2.5856ZM23.5335 9.9844H17.1683V8.5968C17.1683 6.842 18.5959 5.4144 20.3511 5.4144C22.1063 5.4144 23.5335 6.842 23.5335 8.5968V9.9844ZM13.2299 11.8232L15.4795 9.8844C15.5207 9.85053 15.5546 9.80877 15.5794 9.76157C15.6042 9.71438 15.6194 9.6627 15.6239 9.60958C15.6284 9.55646 15.6223 9.50297 15.6059 9.45226C15.5895 9.40154 15.5631 9.35461 15.5282 9.31425C15.4934 9.27388 15.4509 9.24088 15.4031 9.21719C15.3553 9.19349 15.3033 9.17959 15.2501 9.17629C15.1969 9.17298 15.1436 9.18035 15.0933 9.19796C15.0429 9.21556 14.9966 9.24305 14.9571 9.2788L12.4595 11.4312H9.6451C9.53901 11.4312 9.43727 11.4733 9.36225 11.5484C9.28724 11.6234 9.2451 11.7251 9.2451 11.8312C9.2451 11.9373 9.28724 12.039 9.36225 12.114C9.43727 12.1891 9.53901 12.2312 9.6451 12.2312H12.4651L14.9647 14.2804C15.1583 14.4252 15.4167 14.3408 15.5275 14.2244C15.6799 14.0648 15.6427 13.8016 15.4715 13.6616L13.2299 11.8232ZM7.3515 10.864C7.83135 10.3139 8.09591 9.60876 8.0963 8.8788C8.0963 7.1936 6.7115 5.8224 5.0091 5.8224C3.3067 5.8224 1.9215 7.1936 1.9215 8.8788C1.9215 9.6368 2.2031 10.3296 2.6663 10.864C1.2503 11.6288 0.333496 13.1088 0.333496 14.7168V17.0696C0.333496 17.1757 0.375639 17.2774 0.450653 17.3524C0.525668 17.4275 0.627409 17.4696 0.733496 17.4696H9.2839C9.38998 17.4696 9.49172 17.4275 9.56674 17.3524C9.64175 17.2774 9.6839 17.1757 9.6839 17.0696V14.7168C9.6839 13.1088 8.7671 11.6288 7.3515 10.864ZM5.0087 6.6224C6.2699 6.6224 7.2959 7.6344 7.2959 8.8788C7.2959 10.1232 6.2699 11.1352 5.0087 11.1352C3.7475 11.1352 2.7211 10.1232 2.7211 8.8788C2.7211 7.6344 3.7475 6.6224 5.0087 6.6224ZM4.5771 11.9012C4.7187 11.9208 4.8619 11.9348 5.0087 11.9348C5.1555 11.9348 5.2987 11.9212 5.4403 11.9012V13.772L5.0087 14.3244L4.5771 13.772V11.9012ZM8.8839 16.6696H7.6263V14.7092C7.6263 14.1944 6.8263 14.1936 6.8263 14.7092V16.6696H3.1911V14.7092C3.1911 14.1944 2.3911 14.1936 2.3911 14.7092V16.6696H1.1335V14.7168C1.1335 13.3012 2.0107 12.0136 3.3287 11.4392C3.4707 11.5308 3.6203 11.6116 3.7775 11.6796V14.0484L4.6939 15.2208C4.73131 15.2686 4.77912 15.3073 4.8337 15.3339C4.88827 15.3605 4.94819 15.3743 5.0089 15.3743C5.06961 15.3743 5.12952 15.3605 5.1841 15.3339C5.23867 15.3073 5.28648 15.2686 5.3239 15.2208L6.2403 14.048V11.6796C6.3971 11.6116 6.5471 11.5308 6.6891 11.4392C8.0067 12.0136 8.8843 13.3016 8.8843 14.7168V16.6696H8.8839Z" fill="#26292F"></path>
    <path d="M21.6499 18.052C22.4563 17.608 23.0031 16.766 23.0031 15.8C23.0031 14.3744 21.8135 13.2144 20.3515 13.2144C18.8891 13.2144 17.6995 14.374 17.6995 15.8C17.6995 16.7656 18.2463 17.608 19.0527 18.052C17.4935 18.592 16.3687 20.0716 16.3687 21.8128V23.6C16.3687 23.7061 16.4108 23.8078 16.4859 23.8828C16.5609 23.9579 16.6626 24 16.7687 24H23.9335C24.0396 24 24.1413 23.9579 24.2163 23.8828C24.2914 23.8078 24.3335 23.7061 24.3335 23.6V21.8124C24.3335 20.0716 23.2091 18.592 21.6499 18.052ZM18.4991 15.8C18.4991 14.8156 19.3299 14.0144 20.3511 14.0144C21.3723 14.0144 22.2027 14.8156 22.2027 15.8C22.2027 16.7844 21.3719 17.5856 20.3511 17.5856C19.3303 17.5856 18.4991 16.7844 18.4991 15.8ZM23.5335 23.2H17.1683V21.8124C17.1683 20.0576 18.5959 18.63 20.3511 18.63C22.1063 18.63 23.5335 20.058 23.5335 21.8124V23.2ZM21.6511 4.8368C22.4567 4.3928 23.0027 3.5508 23.0027 2.5856C23.0027 1.16 21.8131 0 20.3511 0C18.8887 0 17.6991 1.16 17.6991 2.5856C17.6991 3.5508 18.2451 4.3928 19.0511 4.8368C17.4923 5.3776 16.3687 6.8568 16.3687 8.5968V10.3844C16.3687 10.4905 16.4108 10.5922 16.4859 10.6672C16.5609 10.7423 16.6626 10.7844 16.7687 10.7844H23.9335C24.0396 10.7844 24.1413 10.7423 24.2163 10.6672C24.2914 10.5922 24.3335 10.4905 24.3335 10.3844V8.5968C24.3335 6.8568 23.2099 5.3772 21.6511 4.8368ZM18.4991 2.5856C18.4991 1.6012 19.3299 0.8 20.3511 0.8C21.3723 0.8 22.2027 1.6008 22.2027 2.5856C22.2027 3.5704 21.3719 4.3712 20.3511 4.3712C19.3303 4.3712 18.4991 3.57 18.4991 2.5856ZM23.5335 9.9844H17.1683V8.5968C17.1683 6.842 18.5959 5.4144 20.3511 5.4144C22.1063 5.4144 23.5335 6.842 23.5335 8.5968V9.9844ZM13.2299 11.8232L15.4795 9.8844C15.5207 9.85053 15.5546 9.80877 15.5794 9.76157C15.6042 9.71438 15.6194 9.6627 15.6239 9.60958C15.6284 9.55646 15.6223 9.50297 15.6059 9.45226C15.5895 9.40154 15.5631 9.35461 15.5282 9.31425C15.4934 9.27388 15.4509 9.24088 15.4031 9.21719C15.3553 9.19349 15.3033 9.17959 15.2501 9.17629C15.1969 9.17298 15.1436 9.18035 15.0933 9.19796C15.0429 9.21556 14.9966 9.24305 14.9571 9.2788L12.4595 11.4312H9.6451C9.53901 11.4312 9.43727 11.4733 9.36225 11.5484C9.28724 11.6234 9.2451 11.7251 9.2451 11.8312C9.2451 11.9373 9.28724 12.039 9.36225 12.114C9.43727 12.1891 9.53901 12.2312 9.6451 12.2312H12.4651L14.9647 14.2804C15.1583 14.4252 15.4167 14.3408 15.5275 14.2244C15.6799 14.0648 15.6427 13.8016 15.4715 13.6616L13.2299 11.8232ZM7.3515 10.864C7.83135 10.3139 8.09591 9.60876 8.0963 8.8788C8.0963 7.1936 6.7115 5.8224 5.0091 5.8224C3.3067 5.8224 1.9215 7.1936 1.9215 8.8788C1.9215 9.6368 2.2031 10.3296 2.6663 10.864C1.2503 11.6288 0.333496 13.1088 0.333496 14.7168V17.0696C0.333496 17.1757 0.375639 17.2774 0.450653 17.3524C0.525668 17.4275 0.627409 17.4696 0.733496 17.4696H9.2839C9.38998 17.4696 9.49172 17.4275 9.56674 17.3524C9.64175 17.2774 9.6839 17.1757 9.6839 17.0696V14.7168C9.6839 13.1088 8.7671 11.6288 7.3515 10.864ZM5.0087 6.6224C6.2699 6.6224 7.2959 7.6344 7.2959 8.8788C7.2959 10.1232 6.2699 11.1352 5.0087 11.1352C3.7475 11.1352 2.7211 10.1232 2.7211 8.8788C2.7211 7.6344 3.7475 6.6224 5.0087 6.6224ZM4.5771 11.9012C4.7187 11.9208 4.8619 11.9348 5.0087 11.9348C5.1555 11.9348 5.2987 11.9212 5.4403 11.9012V13.772L5.0087 14.3244L4.5771 13.772V11.9012ZM8.8839 16.6696H7.6263V14.7092C7.6263 14.1944 6.8263 14.1936 6.8263 14.7092V16.6696H3.1911V14.7092C3.1911 14.1944 2.3911 14.1936 2.3911 14.7092V16.6696H1.1335V14.7168C1.1335 13.3012 2.0107 12.0136 3.3287 11.4392C3.4707 11.5308 3.6203 11.6116 3.7775 11.6796V14.0484L4.6939 15.2208C4.73131 15.2686 4.77912 15.3073 4.8337 15.3339C4.88827 15.3605 4.94819 15.3743 5.0089 15.3743C5.06961 15.3743 5.12952 15.3605 5.1841 15.3339C5.23867 15.3073 5.28648 15.2686 5.3239 15.2208L6.2403 14.048V11.6796C6.3971 11.6116 6.5471 11.5308 6.6891 11.4392C8.0067 12.0136 8.8843 13.3016 8.8843 14.7168V16.6696H8.8839Z" stroke="#26292F" stroke-width="0.2" mask="url(#path-1-outside-1_28655_4739)"></path>
  </symbol>
  <symbol fill="none" xmlns="http://www.w3.org/2000/svg" viewBox="0 0 25 24" id="repeat">
    <path d="M3.91357 5.16016H17.7536C19.4136 5.16016 20.7536 6.50016 20.7536 8.16016V11.4802" stroke="#26292F" stroke-width="1.125" stroke-miterlimit="10" stroke-linecap="round" stroke-linejoin="round"></path>
    <path d="M7.07358 2L3.91357 5.15997L7.07358 8.32001" stroke="#26292F" stroke-width="1.125" stroke-miterlimit="10" stroke-linecap="round" stroke-linejoin="round"></path>
    <path d="M20.7536 18.84H6.91357C5.25357 18.84 3.91357 17.5 3.91357 15.84V12.52" stroke="#26292F" stroke-width="1.125" stroke-miterlimit="10" stroke-linecap="round" stroke-linejoin="round"></path>
    <path d="M17.5935 21.9997L20.7535 18.8397L17.5935 15.6797" stroke="#26292F" stroke-width="1.125" stroke-miterlimit="10" stroke-linecap="round" stroke-linejoin="round"></path>
  </symbol>
  <symbol fill="none" xmlns="http://www.w3.org/2000/svg" viewBox="0 0 18 18" id="tick">
    <path d="M3.16675 8.99502L7.32851 13.1568L15.6667 4.83325" stroke="#26292F" stroke-width="1.25" stroke-linecap="round" stroke-linejoin="round"></path>
  </symbol>
</svg>